<?xml version="1.0" encoding="UTF-8"?>
<svg width="216px" height="216px" viewBox="0 0 216 216" version="1.1" xmlns="http://www.w3.org/2000/svg" xmlns:xlink="http://www.w3.org/1999/xlink">
    <title>Group 58</title>
    <defs>
        <polygon id="path-1" points="0.168045581 0.118333333 15.7922079 0.118333333 15.7922079 15.9579809 0.168045581 15.9579809"></polygon>
    </defs>
    <g id="視覺稿" stroke="none" stroke-width="1" fill="none" fill-rule="evenodd">
        <g id="首頁-薪資福利(單色板)" transform="translate(-781.000000, -1452.000000)">
            <g id="Group-58" transform="translate(781.000000, 1452.000000)">
                <circle id="Oval-Copy-5" fill="#F1F1F1" cx="108" cy="108" r="108"></circle>
                <g id="Group-53" transform="translate(33.000000, 55.000000)">
                    <g id="Group-52" transform="translate(0.000000, 3.000000)">
                        <path d="M46.4283014,6.1426464 C46.3294846,5.63334086 46.0602252,5.1675488 45.4524021,5.34094344 C45.2060232,5.41148802 45.0292803,5.57927865 44.886029,5.792231 C44.8565166,5.72729042 44.8283306,5.6626795 44.7905282,5.59740927 C44.6081481,5.28193652 44.1094214,5.26940991 43.9303573,5.59740927 C43.5961044,6.20824627 43.3238606,8.19832884 42.9481576,8.76763024 C38.2991232,11.6843522 33.7180669,12.9469025 28.443303,14.5094321 C28.099102,14.6112933 28.0307924,14.9574232 28.1465209,15.2086147 C27.8852199,15.4993639 28.049362,16.0897627 28.5059754,16.0449307 C28.5689795,16.038997 28.6319835,16.0327337 28.6946559,16.0261408 C28.5298506,16.1210793 28.3660402,16.2183253 28.2032245,16.3211754 C27.7369946,16.6155507 28.0271448,17.3974748 28.5888755,17.2310027 L28.6180563,17.2221022 C28.2075353,17.5313117 28.431697,18.2845565 29.0119973,18.108195 C32.5839943,17.0226654 36.0193721,15.5438663 39.2262773,13.6348771 C40.5894856,12.822955 42.6968047,11.7733571 43.9015081,10.333786 C45.4925257,9.63592202 46.7718392,7.91516155 46.4283014,6.1426464" id="Fill-1" fill="#F2AB89"></path>
                        <path d="M22.0626525,62.920259 L10.9639949,62.920259 C7.41819424,62.920259 4.54388397,65.7776444 4.54388397,69.3025662 L28.4827634,69.3025662 C28.4827634,65.7776444 25.6084532,62.920259 22.0626525,62.920259" id="Fill-21" fill="#F5E4D5"></path>
                        <path d="M49.56441,12.5359968 C49.2082714,11.2675128 48.8451692,10.001666 48.4853831,8.73417101 C47.6991591,5.96381258 46.8655162,3.20762899 46.6028889,0.329146147 C46.5829929,0.110589788 46.4069132,-0.0413777559 46.1817567,0.0100472698 C42.2430099,0.911303809 38.8043161,1.81783471 34.9554329,3.04445343 C34.5538651,3.1723567 34.6971164,3.81286199 34.710712,3.80857657 C35.4379112,6.98604979 36.4181213,10.0959452 37.6801915,13.1046389 C38.2913306,14.5620109 38.9624894,15.9946594 39.6946626,17.3959914 C40.0471535,18.0704503 40.465633,19.5152958 41.256831,19.7776953 C41.3155242,19.7971445 41.3888078,19.7912108 41.4564543,19.7681355 C41.5300695,19.7813214 41.6063375,19.7750581 41.672326,19.7381376 C41.8122612,19.6590221 41.9793877,19.568369 42.1498302,19.465519 C43.6111922,19.0719198 44.6852451,17.9273833 46.1008462,17.3050086 C47.4398477,16.716258 49.5249496,16.5260513 49.9155746,14.7878195 C50.0830327,14.0424863 49.7620437,13.2397944 49.56441,12.5359968" id="Fill-27" fill="#FAEFE1"></path>
                        <path d="M24.7240092,46.5141595 C24.4898995,45.9349686 23.9275056,45.8232181 23.5309118,46.0391373 C23.4098777,45.8858511 23.2729268,45.7411358 23.11608,45.6072989 C22.8643954,45.393028 22.4648172,45.3511627 22.1517867,45.4688469 C21.955811,45.1213984 21.7366232,44.782191 21.4773119,44.4545213 C21.0243461,43.882253 20.0268928,44.3671646 20.0537524,45.0406347 C20.0627056,45.2664433 20.0816068,45.490274 20.0945392,45.7150937 C19.6936346,44.9826167 18.3735343,45.4246741 18.5870848,46.3714221 C19.2715076,49.4091247 19.8982319,52.4735288 20.6473167,55.4987048 C17.1253913,54.5779991 8.64173254,56.4738024 6.62460871,56.6112655 C5.77869668,56.6689538 3.88360171,56.7243346 3.84480449,57.807227 C3.76289925,60.1015742 4.93809025,59.027912 6.29300854,59.1409811 C10.4214307,59.4854629 19.3660136,60.3606773 23.5086946,60.3606773 C26.4930961,60.3606773 26.5922445,56.8469635 26.6492798,55.3556377 C26.7656714,52.3057382 25.8541026,49.3131972 24.7240092,46.5141595" id="Fill-29" fill="#F2AB89"></path>
                        <path d="M7.31340858,56.5973873 C7.28389617,56.3926761 7.12572289,56.1777459 6.90222437,56.1540113 C6.55238619,56.1174204 4.29651024,56.1375289 3.78849878,56.2812552 C3.15680046,56.4599242 2.81889988,57.1521842 2.49857412,57.6608305 C2.00382667,58.4463807 1.56876724,59.2672032 1.20632826,60.1213201 C0.99642535,60.6157915 0.476144684,61.5315526 0.590215142,62.0955796 C0.815371657,63.2091292 2.39345687,62.601259 2.97707316,62.1928257 C3.78319318,61.6291283 4.43777191,60.8175359 4.86553613,59.9136422 C4.95208378,59.8905668 5.99761911,59.8457347 6.26389405,59.8543056 C6.60411582,59.8645247 7.28555417,59.6772848 7.26035256,59.31698 C7.19104812,58.3280372 7.41985224,57.3357979 7.31340858,56.5973873" id="Fill-31" fill="#633941"></path>
                        <path d="M43.8755438,10.73322 C43.776727,10.2239144 43.5074676,9.75779274 42.8993129,9.93151702 C42.6532656,10.0020616 42.4765227,10.1698522 42.3332714,10.3828046 C42.303759,10.317864 42.2752414,10.2529234 42.2377706,10.1879829 C42.0550589,9.8725101 41.5566638,9.85998349 41.3772681,10.1879829 C41.0433468,10.7988199 40.771103,12.7885728 40.3954,13.3582038 C35.7463657,16.2745961 31.1653093,17.5371465 25.8905454,19.1000057 C25.5463444,19.2015372 25.4780348,19.5476672 25.5937633,19.7988586 C25.3324623,20.0899375 25.4962728,20.6803363 25.9532178,20.6355043 C26.0162219,20.6292409 26.0788943,20.6229776 26.1418983,20.6167143 C25.9770931,20.7116528 25.8132826,20.8088989 25.6504669,20.9117489 C25.1842371,21.2057946 25.4743872,21.9880484 26.0361179,21.8215763 C26.0457343,21.8186095 26.0553507,21.8156427 26.0652987,21.8126758 C25.6547777,22.1218853 25.8786078,22.87513 26.4589081,22.6987686 C30.0312367,21.613239 33.4666145,20.1341103 36.6731881,18.225121 C38.036728,17.4135286 40.1440471,16.363601 41.3484189,14.9243596 C42.9397681,14.2264956 44.2190816,12.5057351 43.8755438,10.73322" id="Fill-33" fill="#FFBD9E"></path>
                        <path d="M28.371611,49.4539568 C28.1375013,48.8747659 27.5751074,48.7630154 27.1785136,48.9789346 C27.0574796,48.8256484 26.9205287,48.6806035 26.7636818,48.5470962 C26.5119973,48.3328253 26.1124191,48.29096 25.7993885,48.4086442 C25.6034128,48.0611956 25.3842251,47.7219883 25.1249138,47.3943186 C24.671948,46.8217207 23.6744946,47.3069619 23.7013543,47.980432 C23.7103075,48.2059109 23.7292087,48.4300713 23.7421411,48.6545613 C23.3412365,47.922414 22.0211362,48.3644714 22.2346867,49.3112194 C22.9191095,52.348922 23.5458338,55.4133261 24.2949186,58.4381725 C20.7729932,57.5177964 11.2302035,59.328221 9.58148743,59.9077415 C8.78199942,60.1886012 7.53120358,59.6638022 7.49240636,60.7470243 C7.41050111,63.0413715 13.8949424,62.376802 15.2501923,62.4898711 C19.3782828,62.8346825 22.9005398,62.7097461 27.1562964,63.3004746 C30.1121803,63.7105562 30.2398464,59.7867608 30.2968816,58.295435 C30.4132733,55.2452058 29.5017044,52.2529945 28.371611,49.4539568" id="Fill-35" fill="#FFBD9E"></path>
                        <path d="M29.3999363,32.3895509 C29.2328098,31.4490663 28.3497586,31.265123 27.6633462,31.5805957 C27.5098154,31.4846683 27.3370517,31.4187388 27.1566612,31.3831368 C27.14605,31.2209502 27.1404128,31.0590932 27.1271488,30.8969066 C27.0326427,29.737536 25.2221058,28.8999014 24.6398159,30.2270627 C24.6305311,30.2484898 24.6209147,30.2692576 24.6116299,30.2906847 C24.0187288,30.0846549 23.2865556,30.2194808 22.9811518,30.8332846 C22.9765094,30.8428444 22.9721986,30.8524042 22.9675562,30.8616343 C22.6498833,29.9277427 21.2167073,29.4530501 20.5826878,30.5600068 C18.6773132,33.8884586 16.6363142,37.1279056 14.3671742,40.2242855 C12.6020665,42.6317019 9.13419196,45.2784425 11.1622586,48.4269067 C12.762561,50.9108014 15.2837171,52.7373787 18.0993341,53.6277569 C21.770148,54.7881164 25.4223923,53.1583387 29.0583882,54.172994 C29.8711402,54.4001212 30.7051146,52.9134105 30.5940285,51.9482024 C30.5850753,51.8700759 30.5548997,38.8803122 29.3999363,32.3895509" id="Fill-37" fill="#EA9F75"></path>
                        <path d="M31.3025918,15.9892532 C31.1702833,15.3995136 30.9146196,14.7781279 30.5356006,14.3014575 C30.2129536,13.8946723 29.8889803,13.7674284 29.3753316,13.8683005 C28.5098552,14.0387283 27.6403995,14.4062854 26.7997931,14.6733 C26.4453125,14.7860394 26.5371657,15.2877631 26.8429011,15.317761 C26.595859,15.877173 26.2294408,16.7128297 26.7739283,17.1248892 C26.7941559,17.140053 26.8153783,17.1506017 26.8369323,17.1591725 C26.9155215,17.4364062 27.0620888,17.6773785 27.3227265,17.8458285 C27.3316798,18.1810801 27.7491644,18.2895341 27.9219281,18.0643848 C28.4979176,18.1662459 29.1382375,18.0591105 29.6999682,17.992192 C30.1486232,17.9387891 31.0107836,17.9770282 31.3062394,17.572221 C31.5867731,17.1875222 31.3974294,16.4112021 31.3025918,15.9892532" id="Fill-53" fill="#A3B3D6"></path>
                        <polygon id="Fill-67" fill="#FFBD9E" points="26.5644896 19.2889268 20.6785866 18.4173385 21.9728221 9.77727491 27.8590567 10.6485335"></polygon>
                        <path d="M27.4130876,13.6250536 C26.5423055,12.7923637 25.7162895,12.2303146 25.158538,11.1398403 C25.1074716,11.0396274 25.04082,10.967105 24.9665415,10.9140317 L24.4509033,10.8378831 C24.1750119,10.9166689 23.9316174,11.1599488 23.9133794,11.4750919 C23.8914938,11.8452862 23.9415654,12.1686705 24.0357399,12.4643644 C23.865629,12.5850154 23.7313309,12.7673105 23.7545429,12.9852076 C23.915369,14.5005976 25.7308799,15.5340428 27.027105,16.2009199 L27.4130876,13.6250536 Z" id="Fill-79" fill="#F2AB89"></path>
                        <path d="M32.1583192,8.57379745 C31.9805815,8.06548085 30.985781,7.03269492 30.9178029,6.47756836 C30.721164,4.87053631 30.5533744,4.17366128 30.1010717,3.38745176 C29.9047644,3.0456072 29.6626963,2.853093 29.4004006,2.56893677 C28.6529738,1.75899261 27.4064888,1.39440237 26.6829372,1.9320576 C26.2674422,1.8911813 25.8015439,1.97952686 25.2766209,2.2415967 C23.7151157,3.02088363 23.3215063,5.25787224 23.131831,6.8026009 C22.9292233,8.45050925 22.7571228,11.3688795 24.2506499,12.5371506 C25.4221933,13.4542302 28.0020427,13.9796884 29.4037166,13.4252212 C30.8723737,12.8440525 31.34822,11.2693259 31.4413996,9.81360208 C32.0018039,9.66493101 32.3834757,9.21792886 32.1583192,8.57379745" id="Fill-85" fill="#FFBD9E"></path>
                        <path d="M29.0113341,22.6060387 C29.1655282,22.5536247 29.3203855,22.4982439 29.4759059,22.4385777 C30.1543599,22.1788154 31.2270864,21.9124602 31.6730887,21.2890965 C32.364475,20.3228994 31.639597,17.5914394 30.7227226,16.9143432 C29.9845806,16.3691061 28.9728685,16.7297406 28.1435364,16.7445747 C26.8967198,16.7666611 25.6638304,16.5316224 24.4226509,16.4544848 C24.1968312,16.3809734 23.9613951,16.3414157 23.7150162,16.3466901 C23.4915177,16.3509755 23.287252,16.3971262 23.0962503,16.4709672 C22.3995583,16.5461269 21.7589068,16.7580903 21.4415654,17.2403647 C19.5710089,18.5507139 19.1757415,21.3362362 18.4710911,30.1625507 C18.4143875,30.8706337 17.5243726,31.9973692 17.9335672,32.6487529 C18.4651223,33.4936397 19.6243965,33.5308898 20.4968365,33.7072513 C23.2836044,34.2699598 26.0723618,34.7858582 28.8767044,35.2556061 C30.4773384,35.5239392 30.8125862,34.8933234 30.8039646,33.0552083 C30.7933534,30.7611907 29.628442,23.8952905 29.0113341,22.6060387" id="Fill-87" fill="#BBC7E1"></path>
                        <path d="M28.912252,2.11989081 C25.7504443,-0.162589178 20.1901727,1.32873657 19.222895,4.87244827 C18.8528292,6.22927779 18.7092463,7.27557927 17.1036383,7.80499332 C16.0998846,8.13595951 15.0065988,7.92696293 14.0260571,8.40330371 C12.567348,9.11138676 11.4113898,10.8525854 11.7784712,12.4708255 C11.9525613,13.2385747 12.186671,13.7037075 11.812626,14.4447553 C11.5410455,14.9824105 11.1882229,15.4699593 10.9338856,16.0181633 C10.4858937,16.9833715 10.2017124,18.0323101 10.2902496,19.100698 C10.4288585,20.7690445 11.5649207,22.656277 13.4013224,22.7927511 C15.5039991,22.9493337 16.5090792,20.379401 17.7403106,19.1395964 C17.9081003,18.9704872 18.0818588,18.806982 18.2582701,18.6461139 C18.9781741,18.431843 19.7494761,18.4667857 20.5847769,18.4710711 C21.8163399,18.477664 22.7255876,18.3108623 23.6597053,17.6512375 C25.083928,16.6454827 26.4229295,15.6717037 26.9448682,14.010939 C27.2340235,13.0915519 27.381254,11.4100195 27.0277682,10.4790947 C26.8221761,9.93748365 26.6169156,9.58871648 26.3891063,9.11600183 C25.2978101,6.84802634 28.4556385,4.39511854 30.060915,3.44441486 C30.3328271,3.28321719 29.339353,2.42844096 28.912252,2.11989081" id="Fill-89" fill="#633941"></path>
                        <path d="M6.62802419,88.3955245 L7.8194636,82.5762554 L26.2037086,82.5762554 L27.395148,88.3955245 L6.62802419,88.3955245 Z M10.0385319,71.7400795 L23.9849719,71.7400795 L25.8747612,80.9688937 L8.14874257,80.9688937 L10.0385319,71.7400795 Z M31.8346111,99.8230882 C31.7195458,99.5148677 31.5467822,99.2415898 31.3677181,98.9676526 C31.2960924,98.8582096 31.2264564,98.7467888 31.1452143,98.6488834 L25.6346827,71.7400795 L28.2553189,71.7400795 C28.9317832,71.7400795 29.4802499,71.1948423 29.4802499,70.5223612 C29.4802499,69.8498801 28.9317832,69.3049726 28.2553189,69.3049726 L4.64008118,69.3049726 C4.63046477,69.3053023 4.38043824,68.5543651 4.38043824,68.5543651 C2.12721509,61.7853812 1.64805284,59.6828888 1.64805284,52.5532705 L1.64805284,49.9464173 C2.22105794,49.8023613 2.64550615,49.2877814 2.64550615,48.6733183 L2.64550615,39.467909 C2.64550615,38.7416954 2.05326825,38.1529448 1.32275308,38.1529448 C0.902947262,38.1529448 0.529565471,38.3477665 0.287165747,38.6510423 C0.144577674,38.7838903 0.050734826,38.9678336 0.0344864177,39.1735337 C0.0126008065,39.2684722 0,39.3667072 0,39.467909 L0,48.6733183 C0,48.7702347 0.0112744058,48.8641842 0.031170416,48.955167 L0.031170416,52.5532705 C0.031170416,59.8549649 0.537855475,62.1272258 2.84546106,69.0593852 L3.5245782,71.0992445 C3.62041065,71.3876862 3.86546318,71.5848154 4.14632852,71.6362405 C4.2975382,71.7024996 4.46433309,71.7400795 4.64008118,71.7400795 L8.38848949,71.7400795 L6.36771806,81.60841 C6.36672326,81.6130251 4.84733128,89.0340519 4.84733128,89.0340519 C4.84567328,89.0406448 2.98141713,98.1455115 2.98141713,98.1455115 C2.90017508,98.2434169 2.83020745,98.3548378 2.75891341,98.4642808 C2.57951772,98.7382179 2.40708563,99.0114958 2.29202037,99.3197163 C2.06222146,99.9348387 2.15838551,100.724015 2.79737903,101.050696 C3.41747135,101.367817 4.15395533,101.052014 4.46665429,100.463923 C4.79593326,99.8461635 4.64737638,99.0685248 4.61189516,98.4013181 C4.61023716,98.3667051 4.60459996,98.3347293 4.59929435,98.3030831 L6.29874522,90.0025565 L27.724427,90.0025565 L29.5273371,98.806455 C29.5216999,98.8384308 29.5163943,98.870077 29.5147363,98.90469 C29.4789235,99.5718967 29.3303666,100.349865 29.6596456,100.967625 C29.9726761,101.555386 30.7091601,101.871189 31.3292524,101.554068 C31.9679144,101.227717 32.0640784,100.438211 31.8346111,99.8230882 L31.8346111,99.8230882 Z" id="Fill-103" fill="#4C4E77"></path>
                        <path d="M27.965235,22.3343102 C26.3251406,22.8775694 22.9550881,23.0282184 22.2414845,20.9484717 C22.10586,20.5532242 21.4728353,20.7213445 21.6077966,21.1218663 C22.4364654,23.582356 26.1039633,23.6463076 28.1416463,22.9708597 C28.5452037,22.8370228 28.37244,22.1994843 27.965235,22.3343102" id="Fill-116" fill="#A3B3D6"></path>
                        <path d="M30.2145453,7.76705088 C30.0321652,7.7914448 29.8630491,7.66354153 29.8385107,7.48223535 L29.8172883,7.32565274 C29.7927499,7.14434656 29.9214108,6.97622629 30.1037909,6.95150272 C30.2858393,6.9271088 30.455287,7.05534171 30.4798254,7.23664789 L30.5010479,7.3932305 C30.5255863,7.57420703 30.3965938,7.74265696 30.2145453,7.76705088" id="Fill-130" fill="#633941"></path>
                        <path d="M30.2648822,5.80686736 C30.0049077,5.70039118 29.6759603,5.74489361 29.4063694,5.80291158 C29.1278252,5.86290745 28.7425058,5.96015349 28.6294302,6.24628761 C28.6035654,6.31155783 28.6509842,6.40847423 28.7226098,6.42231943 C28.9732996,6.47077762 29.2034301,6.31881008 29.4468246,6.26276999 C29.7157523,6.20112589 29.9909805,6.23804642 30.2546026,6.17310584 C30.4263715,6.13091095 30.4134391,5.86818181 30.2648822,5.80686736" id="Fill-131" fill="#633941"></path>
                        <path d="M31.3493806,10.6080198 C30.8662391,10.5968118 30.3814397,10.5519797 29.892661,10.4613266 C29.7086229,10.4270433 29.550118,10.5028622 29.5056836,10.6403253 C29.477166,10.7283412 29.543486,10.8895389 29.6287073,10.9881035 C29.6429661,11.0049155 29.6621989,11.0190904 29.6771209,11.0352431 C30.0150215,11.3981851 30.4766089,11.6839896 30.9740092,11.866944 C31.1537365,11.4743337 31.2741073,11.0451325 31.3493806,10.6080198" id="Fill-132" fill="#E78686"></path>
                        <path d="M31.3492148,10.6089758 C31.1170947,10.6030422 30.8846429,10.5895266 30.6511964,10.5661216 C30.6376008,10.564803 30.6240052,10.5641437 30.6104096,10.5624955 C30.4071387,10.541398 30.2032046,10.5146966 29.9989389,10.4790947 C30.3179382,10.8492889 30.7457025,11.0714714 31.2155799,11.1973968 C31.2699623,11.0045529 31.3147284,10.808083 31.3492148,10.6089758" id="Fill-133" fill="#FFFFFF"></path>
                        <path d="M5.80873965,59.8607007 C6.00571015,59.8544374 6.18112664,59.8514706 6.26966389,59.8541078 C6.33067832,59.855756 6.40462516,59.8491631 6.481888,59.8386144 C6.64735648,58.6380378 6.51637442,57.3379077 6.35654313,56.13832 C6.16222544,56.1373311 5.93474772,56.139309 5.6959956,56.1435944 C5.85052128,57.3421931 5.99344095,58.6673764 5.80873965,59.8607007" id="Fill-143" fill="#806F87"></path>
                        <path d="M10.3724533,59.6739883 C10.3625053,59.4672993 10.2252228,59.2385239 10.0050403,59.1940214 C9.66017615,59.1247954 7.77668718,59.0585363 7.25740132,59.1541341 C6.61177579,59.2724776 6.20987638,59.9301245 5.84279499,60.406795 C5.2760903,61.1428981 4.76542604,61.9195478 4.32340301,62.7360849 C4.06773928,63.2087996 3.46356377,64.071817 3.5235834,64.6434259 C3.64262787,65.7734579 5.2711163,65.3155774 5.89087702,64.9635137 C6.74673705,64.4776132 7.47493103,63.7306317 7.98625849,62.8709108 C8.07446413,62.8560766 8.16300138,62.8451983 8.25187022,62.84355 C8.52975117,62.8392646 8.7880677,62.9714533 9.05235303,63.0044181 C9.38992201,63.0462833 9.64392774,63.0413386 9.91119747,62.7970697 C10.5448854,62.2188678 10.4085977,60.4193216 10.3724533,59.6739883" id="Fill-144" fill="#633941"></path>
                        <path d="M9.01057141,59.106467 C9.02151422,60.3825329 8.87992095,61.6338752 8.57551199,62.8746688 C8.73700127,62.9148858 8.89517455,62.9692776 9.05500584,62.9890565 C9.11568867,62.9966384 9.1727239,63.0015831 9.22876433,63.0048796 C9.54080008,61.7357363 9.69234136,60.4484624 9.67642455,59.1417393 C9.49404446,59.1275645 9.26059794,59.1153675 9.01057141,59.106467" id="Fill-145" fill="#806F87"></path>
                    </g>
                    <path d="M86.2298326,50.964601 L86.886308,50.964601 L86.886308,63.2095563 C86.886308,63.6463111 87.2416782,64 87.6797697,64 C88.118192,64 88.4732314,63.6463111 88.4732314,63.2095563 L88.4732314,50.964601 L106.770167,50.964601 C108.001721,50.964601 109,49.969789 109,48.7429202 L109,43.2216808 C109,41.9944823 108.001721,41 106.770167,41 L86.2298326,41 C84.9982794,41 84,41.9944823 84,43.2216808 L84,48.7429202 C84,49.969789 84.9982794,50.964601 86.2298326,50.964601" id="Fill-3" fill="#B9C7E0"></path>
                    <path d="M86.3343229,83.6423049 L87.4950112,77.7910847 L105.404228,77.7910847 L106.565244,83.6423049 L86.3343229,83.6423049 Z M89.3562507,68.4096529 L103.543316,68.4096529 L105.083675,76.1747702 L87.8155634,76.1747702 L89.3562507,68.4096529 Z M110.889744,95.1331013 C110.777748,94.8233863 110.609589,94.5483836 110.434862,94.273044 C110.365234,94.1631777 110.296919,94.0512894 110.217767,93.9525446 L105.150676,68.4096529 L107.860262,68.4096529 C108.519102,68.4096529 109.053137,67.8613327 109.053137,67.1852846 C109.053137,66.5088994 108.519102,65.9605792 107.860262,65.9605792 L104.638318,65.9605792 C104.484939,65.6373837 104.133514,65.4483194 103.774206,65.5227993 C103.524924,65.5750363 103.327863,65.7432058 103.224406,65.9605792 L89.8416772,65.9605792 C89.9228005,65.5265064 89.648886,65.1049031 89.2255337,65.0162687 C88.7992254,64.9276343 88.3834271,65.2100512 88.2967203,65.6471571 L88.2346461,65.9605792 L84.8553814,65.9605792 C84.1962129,65.9605792 83.6621781,66.5088994 83.6621781,67.1852846 C83.6621781,67.8613327 84.1962129,68.4096529 84.8553814,68.4096529 L87.7488912,68.4096529 L86.0807713,76.817791 C86.079786,76.8225092 84.5992023,84.2853258 84.5992023,84.2853258 C84.5985454,84.289707 82.7819731,93.446351 82.7819731,93.446351 C82.7028203,93.5447588 82.6348343,93.6566472 82.5648777,93.7668504 C82.3904789,94.0421901 82.2223203,94.3171927 82.1103241,94.6269077 C81.88666,95.2456636 81.9802639,96.0389923 82.6026477,96.36758 C83.2066391,96.6860573 83.9239406,96.368591 84.2290564,95.7774702 C84.5496087,95.1563552 84.4050974,94.3744849 84.3702833,93.703492 C84.3686412,93.6687796 84.3633862,93.6364264 84.3578028,93.6047472 L86.0137706,85.2586194 L106.885797,85.2586194 L108.641937,94.1109407 C108.636682,94.142957 108.631427,94.1753102 108.629456,94.2096855 C108.594971,94.8810155 108.450459,95.6628857 108.770683,96.2840008 C109.075799,96.8751216 109.793101,97.1925879 110.39742,96.8737736 C111.019476,96.5455229 111.113408,95.7518572 110.889744,95.1331013 L110.889744,95.1331013 Z" id="Fill-5" fill="#633941"></path>
                    <path d="M111.890052,20.5633013 C109.936958,21.4610825 108.398187,23.0289374 107.440549,24.8890931 C107.135293,25.4821767 106.880351,26.562646 106.140174,26.765234 C105.451661,26.9537941 104.525427,26.2191272 104.071934,25.8426594 C102.313676,24.3831124 102.000654,22.5386157 102.069539,20.3861592 C102.14923,17.8781134 102.293078,15.8059091 100.545288,13.7509949 C99.6271577,12.6711781 97.7118825,12.8313564 96.7599852,13.7509949 C95.639252,14.8337478 95.8600895,16.3089537 96.7599852,17.4080179 C97.1962574,17.9410755 96.6424754,20.2801349 96.637748,20.9551019 C96.6282932,22.2887246 96.7481667,23.7091241 97.1553991,24.9892453 C97.9837084,27.5938547 100.073898,29.9394386 102.583138,31.1840009 C105.116353,32.4406336 108.331665,32.3261273 110.399231,30.276759 C112.118994,28.5728668 112.309103,26.2804582 114.627559,25.0884188 C117.741569,23.4872886 115.005414,19.1314838 111.890052,20.5633013" id="Fill-7" fill="#4E372B"></path>
                    <path d="M56.2298326,49.9644582 L56.886308,49.9644582 L56.886308,62.209238 C56.886308,62.6459865 57.2416782,63 57.6797697,63 C58.118192,63 58.4732314,62.6459865 58.4732314,62.209238 L58.4732314,49.9644582 L76.7701674,49.9644582 C78.0017206,49.9644582 79,48.9696605 79,47.7428092 L79,42.221649 C79,40.9944681 78.0017206,40 76.7701674,40 L56.2298326,40 C54.9982794,40 54,40.9944681 54,42.221649 L54,47.7428092 C54,48.9696605 54.9982794,49.9644582 56.2298326,49.9644582" id="Fill-9" fill="#B9C7E0"></path>
                    <path d="M55.3342649,82.6421345 L56.4949559,76.7908966 L74.4042144,76.7908966 L75.5652338,82.6421345 L55.3342649,82.6421345 Z M58.3561998,67.4094367 L72.5432989,67.4094367 L74.0836613,75.1745773 L56.8158374,75.1745773 L58.3561998,67.4094367 Z M79.8897438,94.1333023 C79.7777473,93.8235864 79.6095883,93.548246 79.4348607,93.2729055 C79.3652323,93.1630389 79.2969178,93.0511502 79.2177648,92.9527421 L74.1506622,67.4094367 L76.8602549,67.4094367 C77.5190965,67.4094367 78.053461,66.8611148 78.053461,66.1850646 C78.053461,65.5086775 77.5190965,64.9606926 76.8602549,64.9606926 L73.6383028,64.9606926 C73.4849235,64.6371591 73.1334975,64.4480943 72.7745175,64.5225744 C72.5249065,64.5748115 72.3281737,64.7429816 72.2243881,64.9606926 L58.8416275,64.9606926 C58.922751,64.5262815 58.6488358,64.105014 58.2254825,64.0163793 C57.7991732,63.9274076 57.3833739,64.2098253 57.2966669,64.6469326 L57.2345926,64.9606926 L53.85532,64.9606926 C53.1961499,64.9606926 52.6621139,65.5086775 52.6621139,66.1850646 C52.6621139,66.8611148 53.1961499,67.4094367 53.85532,67.4094367 L56.7488366,67.4094367 L55.0807127,75.8176001 C55.0800559,75.8223183 53.5991403,83.2854943 53.5991403,83.2854943 C53.5984834,83.2895384 51.7819068,92.44621 51.7819068,92.44621 C51.7027538,92.5446181 51.6347677,92.6568438 51.5648109,92.7667104 C51.3904117,93.0420509 51.2222527,93.3170543 51.1102562,93.6267702 C50.8865916,94.245528 50.9805242,95.0388591 51.602581,95.3674478 C52.2065738,95.6862631 52.9238769,95.3687958 53.2289935,94.7773362 C53.5495465,94.1565563 53.4050349,93.3743467 53.3702208,92.7033517 C53.3685786,92.6686393 53.3633236,92.636623 53.3577402,92.6046066 L55.0137119,84.2584538 L75.8857868,84.2584538 L77.6419314,93.1108017 C77.6366764,93.1428181 77.6314214,93.1751714 77.6297792,93.2095468 C77.5949651,93.8808788 77.4504535,94.6627514 77.7706781,95.2838683 C78.0757946,95.8749909 78.7930977,96.1924581 79.397419,95.8739799 C80.0194758,95.5453912 80.1134084,94.7517231 79.8897438,94.1333023 L79.8897438,94.1333023 Z" id="Fill-11" fill="#4C4E77"></path>
                    <path d="M139.168315,67 L149.831685,67 C153.23842,67 156,69.6862249 156,73 L133,73 C133,69.6862249 135.76158,67 139.168315,67" id="Fill-13" fill="#F5E4D5"></path>
                    <path d="M74.8741662,61.7627283 C74.3017108,58.3145742 74.2194224,54.7200052 71.0827425,54.3597258 C69.2565223,54.1498095 65.4790294,54.0237939 63.6473016,54.1475063 C62.8117824,54.2037692 61.9633044,54.3281396 61.2139612,54.686774 C60.9243318,52.9590777 58.6980083,54.8210151 57.7698336,56.6378764 C56.72017,58.6916338 56.4075388,59.828406 56.0845404,62.0368039 C55.8376751,63.7256756 56.0816247,64.8756086 57.4857117,65.8876813 C60.3314663,67.9391356 65.5541904,66.5733639 68.7119283,66.3213328 C70.2754087,66.1966333 72.1978481,66.3279132 73.6035549,65.4207986 C75.0306438,64.4998651 75.1657394,63.5203656 74.8741662,61.7627283" id="Fill-15" fill="#EA9F75"></path>
                    <path d="M133.559726,92.616924 L134.753446,86.7542971 L153.167751,86.7542971 L154.361138,92.616924 L133.559726,92.616924 Z M152.837933,85.1349594 L135.082931,85.1349594 L136.97581,75.8373837 L150.945054,75.8373837 L152.837933,85.1349594 Z M129.619521,105.873508 C130.240627,106.192992 130.978315,105.874837 131.291858,105.282696 C131.621675,104.660333 131.472875,103.876568 131.437004,103.204391 C131.435343,103.16952 131.430029,103.137638 131.424383,103.105424 L133.230241,94.2359297 L154.690956,94.2359297 L156.393185,102.598301 C156.387539,102.630183 156.382225,102.662397 156.380564,102.697268 C156.345025,103.369446 156.196225,104.152879 156.52571,104.775241 C156.839585,105.367714 157.576941,105.68587 158.198047,105.366386 C158.837753,105.037271 158.934074,104.242215 158.704232,103.622509 C158.588979,103.311992 158.416264,103.036678 158.236575,102.7607 C158.165165,102.650442 158.095083,102.538191 158.013708,102.439556 L156.146071,93.266851 C156.144743,93.2602089 154.622866,85.78389 154.622866,85.78389 C154.62187,85.7792406 152.597794,75.8373837 152.597794,75.8373837 L156.352,75.8373837 C156.528367,75.8373837 156.695435,75.7995238 156.846892,75.732771 C157.127884,75.6809628 157.37367,75.4823648 157.469659,75.191774 L158.150218,73.1367162 C160.461265,66.1529071 160.968779,63.8637162 160.968779,56.5076188 L160.968779,52.8827067 C160.988707,52.7913782 161,52.6963966 161,52.5987581 L161,43.3247617 C161,43.2228059 160.987379,43.123839 160.965457,43.0281931 C160.949182,42.8209604 160.855186,42.6356465 160.712365,42.5018087 C160.469569,42.1962733 160.095576,42 159.675084,42 C158.943374,42 158.350168,42.5931372 158.350168,43.3247617 L158.350168,52.5987581 C158.350168,53.2177994 158.77531,53.7362133 159.349252,53.8813426 L159.349252,56.5076188 C159.349252,63.6903581 158.869307,65.8085156 156.612399,72.6279333 L156.361964,73.3844656 C156.352,73.3841335 132.698481,73.3841335 132.698481,73.3841335 C132.02091,73.3841335 131.471547,73.9331009 131.471547,74.6105925 C131.471547,75.2880841 132.02091,75.8373837 132.698481,75.8373837 L135.32307,75.8373837 L129.80386,102.946678 C129.722485,103.045313 129.652735,103.157564 129.580992,103.267822 C129.401303,103.543801 129.228589,103.819115 129.113336,104.129632 C128.883493,104.749337 128.979815,105.544725 129.619521,105.873508 L129.619521,105.873508 Z" id="Fill-17" fill="#4C4E77"></path>
                    <path d="M96.3210494,75.5057072 C96.0535565,71.8177281 96.3819201,67.0527521 95.8624901,63.3904953 C95.463787,60.5804155 94.6917435,57.9116415 92.2785581,56.1728795 C91.7892252,55.8201163 91.0516751,56.0449361 90.7050502,56.5072697 C90.0297236,56.3001549 89.1264699,56.6532522 89.0804787,57.5699021 C88.4741388,69.6617301 91.3983,81.5013458 94.3441041,93.1425321 C94.4986481,93.7531867 95.1952795,94.1279976 95.8009431,93.9596333 C96.8232328,93.6753516 96.8056479,93.6583147 96.9409162,92.6541421 C97.1860898,90.8392154 96.6071418,79.4499074 96.3210494,75.5057072" id="Fill-19" fill="#F2AB89"></path>
                    <path d="M102.775608,77.7375116 C103.565393,74.183874 105.206091,69.7822205 105.756567,66.1821838 C106.17926,63.4196329 106.217952,60.6860402 104.484912,58.3683932 C104.133427,57.8981508 103.391764,57.9030868 102.942734,58.2417009 C102.378927,57.8566878 101.448353,57.936323 101.148566,58.7876296 C97.1937883,70.0221132 96.5597493,82.0098403 96.0011446,93.8162492 C95.9718813,94.4358899 96.5080507,94.9851094 97.1128264,94.9962978 C98.134117,95.0153839 98.1224117,94.9939943 98.5291721,94.0854293 C99.2646574,92.4427069 101.931198,81.5376234 102.775608,77.7375116" id="Fill-23" fill="#FFBD9E"></path>
                    <path d="M109.856991,56.9272567 C109.587737,54.9992177 108.835036,53.3105397 107.965166,51.6340269 C107.752651,51.0142532 107.530063,50.3964521 107.30479,49.7796375 C106.879759,48.1169341 106.322116,46.480534 105.63891,44.8766844 C105.636896,44.8691222 105.63421,44.8618888 105.632196,44.8543265 C105.613731,44.8175018 105.597616,44.7800194 105.581837,44.7418795 C105.494883,44.0796915 105.340113,43.440519 104.937576,42.7888523 C103.811881,40.9676709 100.891052,42.6270865 102.016746,44.460762 C102.190317,44.7435235 102.277942,45.0621234 102.326958,45.3948613 C102.330987,45.4773882 102.336695,45.5602439 102.355495,45.6454012 C101.947922,45.7499572 101.581979,45.9860302 101.357377,46.3421124 C100.84405,45.9215868 100.111493,45.8364296 99.4262728,46.1681812 C98.8928018,46.4266121 98.5322305,46.7988051 98.2824492,47.2370855 C97.9000556,46.34277 96.8777653,45.8962698 96.0616117,46.132014 C95.4683812,45.2889902 94.1425933,45.3438985 93.4039928,46.0715162 C93.3858635,45.967289 93.3707558,45.8640482 93.3512836,45.7588346 C93.2529154,45.2209301 92.9628469,44.8832603 92.5942181,44.7119594 C91.7226695,43.5463902 89.4383795,43.8097529 89.5766992,45.5717517 C89.715019,47.3393399 89.5307046,49.1006811 89.2570867,50.8593919 C88.5735455,54.2005808 87.3353824,57.202456 85.9944867,60.3180933 C84.8352197,63.011561 84.5787239,65.4880258 84.6804493,68.3945511 C84.7381944,70.0427877 84.822462,71.746919 84.106691,73.286654 C83.5520691,74.4788555 82.655341,75.4889059 82.0130943,76.6331036 C80.6309041,79.0957591 80.1917725,81.8687947 80.0027579,84.6372271 C79.9416555,85.5312138 80.9078793,86.0852291 81.7055679,85.9076812 C84.1886085,85.3546523 86.7280513,85.3724071 89.1879268,86.0388694 C91.2046419,86.5853224 93.125339,88.1523473 95.2931315,87.8623523 C97.5183334,87.5647952 99.4695817,86.5281125 101.775694,87.1676139 C103.365699,87.6081958 105.026879,88.9815618 105.999817,86.7996951 C106.982156,84.5967857 107.337356,81.8891798 107.726128,79.5317379 C108.109865,77.2084904 108.376097,74.8665018 108.56444,72.5205676 C108.760169,70.0812564 108.872638,67.6363557 108.964963,65.1917838 C108.985106,64.6604552 109.012636,64.1261675 109.036808,63.5905646 C110.043319,61.5918352 110.151424,59.0390906 109.856991,56.9272567" id="Fill-25" fill="#46514B"></path>
                    <path d="M98.7921166,25.0267711 C98.6048904,23.9477633 98.4091694,22.87043 98.2178657,21.792092 C98.1410724,21.3594173 97.6786135,21.2371833 97.3177529,21.3587475 C97.0731016,20.7603034 95.9585791,20.9451614 96.0136256,21.6567974 C96.0340133,21.9193493 96.0601773,22.1862547 96.08872,22.4551694 C95.8627574,22.2971025 95.5725738,22.3027956 95.3527274,22.4350762 C95.1600645,21.824911 94.0693276,21.9049491 94.0265136,22.6731812 C93.9160807,24.6597343 94.150878,26.5977286 94.7261483,28.5042436 C94.8202711,28.815689 95.1614237,28.9905003 95.4730143,28.979449 C95.5008773,28.9834677 95.5270414,28.9901654 95.5569433,28.991505 C96.9711636,29.0537941 98.5474653,28.8036331 98.9287136,27.2269824 C99.1037072,26.5019508 98.9168208,25.74477 98.7921166,25.0267711" id="Fill-39" fill="#FFBD9E"></path>
                    <path d="M105.141161,48.5111973 C107.746456,44.4349301 109.516927,38.8456825 108.863837,33.9973054 C108.280744,29.6655316 104.93117,28.4810596 101.532791,27.3367058 C100.313305,26.9259881 94.7880486,26.9371685 94.3382065,27.1252635 C93.4211835,27.3781393 88.8280416,28.9970054 87.3125134,29.8835507 C85.7350156,30.8059394 84.685705,32.4060617 84.2567335,34.5839511 C83.4203032,38.8331867 84.7518488,43.0909721 86.4593867,47.0426099 C86.4757621,47.1205444 86.4995225,47.1997942 86.5419059,47.2800305 C86.6038756,47.3970966 86.661029,47.5138338 86.7152926,47.6292557 C86.7310258,47.6647701 86.7467591,47.6999557 86.7624923,47.7354701 C87.5754833,49.5401292 87.4961749,51.1810274 87.4708091,53.1885791 C87.4544337,54.4832116 87.6840105,55.8636705 88.6841948,56.758108 C89.6313999,57.6055217 90.7243783,55.967912 91.9197832,55.793957 C93.8578611,55.5124723 95.8733209,56.7959243 97.8550666,56.8574169 C99.5154047,56.9087155 100.662005,54.7508851 102.311105,54.8363828 C103.265053,54.8863661 104.738197,57.2585984 105.341519,56.4325591 C106.132355,55.3490402 105.967637,53.7831169 105.798425,52.5325487 C105.617011,51.1882618 105.378123,49.8489075 105.141161,48.5111973" id="Fill-41" fill="#806F87"></path>
                    <path d="M117.125038,15.8050069 C115.294734,14.3016505 112.997483,14.3725377 110.808163,14.6156774 C108.113765,14.9146364 107.234482,14.315691 105.466546,12.1185306 C103.865999,10.1299223 100.235444,8.84402186 98.3977079,9.01524696 C96.5257181,9.18989656 95.7721396,9.40050342 94.6220599,10.5884631 C93.5841122,11.6599898 94.006142,15.7858297 94.719004,14.4423976 C95.3840403,13.1876601 96.4106779,11.9890844 97.563989,11.3675373 C97.5300586,11.6949197 97.6525313,12.0407944 97.8528823,12.2842765 C97.7430124,12.2712634 97.634435,12.2520862 97.5226262,12.2445522 C96.0581246,12.1428445 96.0684653,14.5478722 97.5226262,14.6571138 C100.472634,14.8790216 101.267575,17.5378048 101.228474,20.221587 C101.194221,22.6043554 101.613019,24.9319893 103.400021,26.5606824 C104.930122,27.9551396 107.011834,28.3746411 108.908383,27.6507014 C109.952147,27.2520894 110.867946,26.8634084 111.975047,26.6661571 C113.074716,26.470618 114.116218,26.1702892 115.132515,25.6751062 C116.887849,24.8203506 118.741742,23.4988353 118.954696,21.3112635 C119.154078,19.2599868 118.72203,17.1169335 117.125038,15.8050069" id="Fill-43" fill="#4E372B"></path>
                    <path d="M95.171102,28.1222139 C95.4095286,26.8514725 95.164354,25.7652253 94.4259384,24.694106 C93.9600104,24.0182846 93.5210741,23.4513182 93.3205643,22.6255336 C93.1200546,21.7984335 93.05611,21.0880811 92.6673011,20.3228079 C92.4545809,19.9048182 91.7595448,19.8801532 91.5545364,20.3228079 C90.9934948,21.532709 90.7872012,22.8198939 91.1245973,24.1363478 C91.5461819,25.7819975 92.8122208,26.7100597 93.2659383,28.2695463 C92.2389686,32.8733532 91.3061486,37.4988653 90.4838659,42.1457538 C90.1516111,44.0242412 89.7618382,45.3061641 90.1853507,47.2033969 C90.3813618,48.0804848 91.0188799,50.129983 92.2225808,49.9935032 C93.3568746,49.8645874 93.9028137,47.7743098 94.2222154,46.8666373 C94.9484205,44.8029979 95.3847862,43.2671897 95.6730189,41.097984 C96.2488417,36.7628613 96.0534733,32.3945231 95.171102,28.1222139" id="Fill-45" fill="#FFBD9E"></path>
                    <path d="M103.514304,33.2400753 C103.016197,36.4864329 102.190117,39.5636114 101.031547,42.4931364 C100.880484,42.8748828 101.312846,43.2145866 101.464662,42.8325039 C102.645314,39.8592546 103.48896,36.7174988 103.994093,33.4173267 C104.058333,32.9982465 103.578795,32.8193134 103.514304,33.2400753" id="Fill-47" fill="#685A6E"></path>
                    <path d="M146.039891,24.532747 C145.832297,24.9593942 145.568396,25.3675808 145.268877,25.7610671 C145.380815,25.5579995 145.488004,25.3508294 145.584338,25.1340871 C145.814319,24.6165038 145.32756,22.583434 144.878113,23.005637 C142.699736,25.0523814 133.569687,35.3900307 132.56971,35.328495 C132.092787,34.7213432 130.024653,32.1159916 129.597593,31.4801231 C128.710571,30.1591576 128.560643,29.1537333 127.651233,27.4635538 C127.616634,27.2567256 127.587802,27.0495555 127.564397,26.8423855 C128.192605,25.665345 128.525026,24.3689937 128.542665,23.0111068 C128.547753,22.6357393 128.156988,22.4716442 127.854756,22.6131762 C127.618669,22.7235985 127.390724,23.7297066 127.337468,23.8920924 C127.293032,23.4801453 127.233332,23.0705913 127.136998,22.6651396 C126.944669,21.8545782 126.447394,19.9179142 125.325303,20.0026967 C124.115357,20.0946583 124.049551,22.1373004 124.009525,22.98786 C123.933543,24.6079572 124.321255,26.1808771 124.847023,27.6990986 C124.889763,27.8659286 124.98915,28.1353181 125.122119,28.4604315 C125.157057,28.552735 125.190638,28.6457222 125.225915,28.7376838 C125.244911,28.7869124 125.268994,28.8296455 125.295452,28.8699855 C125.472857,29.2778302 125.682147,29.7301173 125.897881,30.1574483 C126.595966,31.5399495 127.366979,32.8933922 128.112892,34.2502535 C128.278085,34.5500689 131.461187,40.1682748 132.691824,40.868072 C133.929584,41.5719716 136.600147,39.2568633 137.629635,38.688684 C140.425704,37.1455064 143.136294,32.9723629 144.393388,29.8005414 C144.541621,29.4272251 144.167139,29.1315121 143.830986,29.1609124 C145.203411,27.9466087 146.409964,26.565475 146.973384,24.929652 C147.161982,24.3833521 146.295312,24.0079845 146.039891,24.532747" id="Fill-49" fill="#F2AB89"></path>
                    <path d="M94,27.8478516 C93.9600692,26.9387078 93.7084753,26.0989586 93.2323082,25.2688065 C92.7969726,24.5098947 92.3865563,23.8735309 92.1995121,22.9470384 C92.0121677,22.0183311 91.9524216,21.2213999 91.5891416,20.3624564 C91.3903884,19.8929351 90.7409878,19.8656202 90.5491399,20.3624564 C90.1957675,21.2782445 89.997915,22.2342666 90,23.2128052 C90.0087233,23.5546108 90.0657673,23.7269901 90.1282154,23.9178254 C90.7055604,25.6689332 92.2547547,26.2008358 93.1134166,27.6673517 C93.3542022,28.0774446 93.7481058,28.0719078 94,27.8478516" id="Fill-51" fill="#F2AB89"></path>
                    <path d="M113.527529,90.4167253 C113.283071,90.8827185 113.051358,91.3539911 112.827816,91.8291352 C112.861805,91.6813126 112.896774,91.5334899 112.930763,91.3856673 C113.154305,90.4163734 112.086598,89.8131164 111.490813,90.6015036 C111.442444,90.665912 111.394075,90.7303204 111.34538,90.7940249 C111.144388,91.0604576 111.127394,91.3297059 111.217268,91.5542555 C110.805807,93.2813163 110.545662,94.7422964 110.152829,96.4739327 C109.880591,97.6748154 109.853466,98.6669867 111.090137,98.936235 C112.377137,99.2160421 113.166071,98.5585834 113.613482,97.2862531 C114.28999,95.3603357 114.557979,93.2105726 114.979572,91.2072243 C115.166183,90.3209926 114.025923,89.4653813 113.527529,90.4167253" id="Fill-55" fill="#F2AB89"></path>
                    <path d="M113.912333,96.7000821 C113.086138,96.5021038 111.949396,96.4885341 110.741565,96.0758762 C110.528639,96.0031566 110.312651,95.9046893 110.216392,96.2021788 C109.486115,98.4644902 109.390537,98.6179321 105.514663,99.876782 C104.835407,100.097377 104.120436,100.614765 104.015334,101.421291 C103.723835,103.656811 107.671478,102.915002 108.791894,102.748686 C110.003125,102.568452 111.494291,102.45398 112.531372,101.746616 C113.337159,101.19687 113.356547,100.103639 113.530018,99.2028206 C113.651107,98.5747874 114.213695,96.7721059 113.912333,96.7000821" id="Fill-57" fill="#633941"></path>
                    <path d="M123.527529,90.4167253 C123.283071,90.8827185 123.051358,91.3539911 122.827816,91.8291352 C122.861805,91.6813126 122.896774,91.5334899 122.930763,91.3856673 C123.154305,90.4163734 122.086598,89.8131164 121.49114,90.6015036 C121.442444,90.665912 121.394075,90.7303204 121.345707,90.7940249 C121.144388,91.0604576 121.127394,91.3297059 121.217268,91.5542555 C120.806134,93.2813163 120.545662,94.7422964 120.152829,96.4739327 C119.880591,97.6748154 119.853466,98.6669867 121.090137,98.936235 C122.377137,99.2160421 123.166398,98.5585834 123.613482,97.2862531 C124.28999,95.3603357 124.557979,93.2105726 124.979572,91.2072243 C125.166183,90.3209926 124.025923,89.4653813 123.527529,90.4167253" id="Fill-59" fill="#FFBD9E"></path>
                    <path d="M122.912465,96.7000821 C122.085921,96.5021038 120.949509,96.4885341 119.741666,96.0758762 C119.528397,96.0031566 119.312408,95.9046893 119.216488,96.2021788 C118.486204,98.4644902 118.390284,98.6179321 114.514712,99.876782 C113.83511,100.097377 113.120472,100.614765 113.015369,101.421291 C112.723527,103.656811 116.671209,102.915002 117.791975,102.748686 C119.003219,102.568452 120.494399,102.45398 121.53115,101.746616 C122.337286,101.19687 122.356334,100.103639 122.530146,99.2028206 C122.651236,98.5747874 123.21349,96.7721059 122.912465,96.7000821" id="Fill-61" fill="#633941"></path>
                    <path d="M154.959866,54.0222295 C154.8976,52.4588328 153.598822,51.7218029 152.434681,51.9461454 C152.165407,50.4777525 150.587248,49.6820536 149.347475,50.3914157 C148.255706,49.6740532 146.656683,49.872728 146.258313,51.574797 C145.985778,52.7388442 145.444947,53.7365513 144.74894,54.6209204 C144.376975,52.9398523 141.02571,52.0531497 139.984145,53.9735609 C138.691887,56.3563241 129.95806,60.5694949 126.991147,61.7762105 C122.833688,63.4669457 120.923662,64.5433227 118.866612,68.5408181 C117.205323,71.7682822 112.041506,86.9608981 110.29122,92.6137939 C109.984129,93.6058342 109.679973,96.0005979 110.726102,96.0305991 C111.64281,96.0569335 115.32203,97.0296396 116.202226,96.9993051 C117.459276,96.9556366 118.43662,93.2528199 118.903124,91.9934355 C119.501983,90.37737 122.7887,77.3261742 126.509647,73.1410046 C129.226193,70.085214 139.928725,70.594568 144.053911,70.2612211 C147.681297,69.9682093 150.733621,68.531151 152.77046,65.3630226 C154.914878,62.0262206 155.113411,57.8883862 154.959866,54.0222295" id="Fill-63" fill="#342747"></path>
                    <polygon id="Fill-65" fill="#FFBD9E" points="153 21.1648396 147.256697 23 144 16.5327649 149.205522 15"></polygon>
                    <path d="M157.092389,42.3781904 C156.696858,39.5923286 156.468387,36.8242932 156.430088,34.0107015 C156.368348,29.4894119 156.411599,24.5148709 153.903372,20.5422366 C153.110988,19.2871298 152.686072,17.998351 151.080833,18 C150.078136,18.0009919 148.191601,18.9065043 147.243381,19.7007671 C146.06636,20.6861679 145.062343,21.8178108 144.176523,23.0465082 C144.080776,23.0781995 143.989322,23.1389411 143.914706,23.236986 C142.960543,24.4878013 141.739941,25.6455235 140.874261,26.9501479 C140.462551,27.5707689 141.714518,30.3797389 142.083968,30.885809 C141.994494,31.0802483 139.366749,41.1808542 139.153466,43.2929461 C138.952728,45.2832246 137.861219,47.7610868 138.014743,49.7777747 C138.221424,52.4939817 140.058435,53.3087118 142.152641,54.014503 C145.321518,55.0821031 148.838055,55.584542 151.414625,57.9320077 C152.406756,58.8358695 153.511142,60.7627655 155.065866,59.6773391 C156.551257,58.6411002 157.334727,55.8714141 157.631871,54.2046507 C157.826996,53.1109714 157.99934,51.6247823 158,49.7371703 C158.00033,47.2956211 157.434435,44.7877182 157.092389,42.3781904" id="Fill-69" fill="#FAEFE1"></path>
                    <path d="M133.896236,68.981821 C133.658209,69.2584959 133.42951,69.5404472 133.204993,69.8253664 C133.636015,68.2942556 131.819613,67.5150149 130.857534,68.3252538 C130.321652,68.0947463 129.672225,68.1643272 129.22705,68.7262511 C128.60239,68.2352272 127.624229,68.1940063 127.108289,69.0926229 C124.218193,74.1248757 120.505296,88.4747109 120.084889,89.984057 C119.771273,91.1108727 118.440574,93.8960895 119.265948,94.742273 C119.869057,95.3605872 121.907403,95.6300073 123.905542,95.9703274 C124.723518,96.109819 125.411866,95.756638 125.694603,94.9289214 C128.552212,86.5627186 131.579978,78.2604906 134.776614,70.024546 C135.316356,68.634246 134.821646,67.9061192 133.896236,68.981821" id="Fill-71" fill="#342747"></path>
                    <path d="M143.760643,31.365668 C141.567285,35.0348417 141.030143,36.4242998 137.748011,38.9177287 C136.296312,37.5636748 134.115799,36.8861651 132.378567,35.972734 C130.113745,34.7818618 124.58161,31.4847552 124.548018,31.4696279 C124.13734,30.3102978 123.419724,28.9527035 122.495616,28.6343866 C122.123799,28.5062874 121.645607,28.8445595 121.834315,29.251709 C121.894254,29.3807738 121.948264,29.5114479 122.006556,29.6411564 C121.953204,29.6038209 121.899523,29.5671292 121.845842,29.5301156 C121.142716,28.8493873 120.848622,28.7122761 119.93637,28.2964364 C119.038608,27.8870339 118.358536,27.7869362 118.032167,28.7525083 C117.978815,28.9102184 117.979803,29.3466569 118.128661,29.5159539 C119.841522,31.4660875 121.167745,32.8140261 123.62918,33.6012891 C127.694136,37.1269144 131.084289,41.5798107 135.996619,43.9374157 C136.990875,44.4144083 138.126086,45.1179885 139.289619,44.9831302 C140.229864,44.8740206 141.036071,44.2615261 141.769166,43.7230588 C143.586755,42.3870289 145.073364,40.712727 146.457221,38.9615013 C147.980385,37.0342195 147.786079,37.5038094 149,35.3772979 C147.266391,34.0245315 145.520927,32.6859268 143.760643,31.365668" id="Fill-73" fill="#FFBD9E"></path>
                    <path d="M95.7837749,10.0388553 C93.4486379,9.64794519 91.5321483,12.2936896 90.8780519,14.0649587 C90.6545368,14.6699225 90.4432778,15.4253664 90.2981381,16.2643352 C90.2155697,16.740461 89.9652843,17.6298152 89.6417839,18.1769541 C89.4082702,18.5722602 89.0405829,18.9009494 89.0038142,19.3892488 C88.9538216,20.0516994 89.4024647,20.43517 89.9269029,20.6103356 C89.9739927,23.0095632 90.4964957,25.1544963 91.8053336,25.7029878 C95.4338269,27.2246967 98.7565592,22.5581229 99.6080456,19.4480882 C100.561775,15.9650658 99.9531557,10.7364742 95.7837749,10.0388553" id="Fill-75" fill="#FFBD9E"></path>
                    <path d="M97.0700721,10.0366954 C95.9316107,9.86608747 94.8890197,10.3080585 94.0248163,10.9956406 C93.9676364,11.7009273 94.0005063,12.4065359 94.2162147,13.0899333 C94.5945605,14.2890173 95.4806772,15.0953811 96.4458871,15.904642 C97.0238488,16.389748 97.7189094,16.8816138 98.0760268,17.5447314 C98.4786826,18.2937967 97.2265463,20.133787 97.8438834,21.0621516 C98.2523599,21.6763401 99.6078994,22.5976228 101.359589,23 C101.880371,22.1868762 102.535029,19.6287232 102.762037,18.885774 C103.774497,15.5701861 101.496204,10.7007787 97.0700721,10.0366954" id="Fill-77" fill="#4E372B"></path>
                    <path d="M76.1398806,47.5699578 C76.5723827,44.1466098 76.7360321,40.581251 75.0731533,37.4570115 C72.9791083,33.5220308 70.6198844,32.0274728 67.3362081,31.082264 C66.4094178,30.8149687 65.3754204,31.222963 64.8036493,31.959911 C64.3096951,31.6739214 63.7028563,31.5463412 63.0522662,31.6768731 C62.3071602,31.8270833 61.6395373,32.1029058 61.0420498,32.4679361 C58.9844084,33.2911401 57.2854599,35.1212111 56.3623434,37.1506878 C54.6293292,40.960712 53.6066871,45.5581915 54.1430565,49.7201273 C54.3945423,51.6712191 56.5156396,52.6649674 57.9641042,51.5049385 C60.0755161,52.1330005 62.2196579,51.8660331 64.3808326,51.6699072 C67.709262,51.7355012 71.0383594,51.8004392 74.3667888,51.8657052 C76.9056932,51.9152286 77.8374931,48.6739039 76.1398806,47.5699578" id="Fill-81" fill="#FAEFE1"></path>
                    <path d="M71.8968734,40.3086725 C71.8750587,39.898242 71.0909191,39.895978 71.1119406,40.3086725 C71.2701964,43.4391351 71.2333097,46.5621589 71.0008839,49.6893872 C70.9699467,50.1043458 71.7612256,50.1027286 71.7921628,49.6893872 C72.0285549,46.5631292 72.0630618,43.4381648 71.8968734,40.3086725" id="Fill-83" fill="#E3D9CC"></path>
                    <g id="Group-93" transform="translate(138.000000, 0.000000)">
                        <mask id="mask-2" fill="white">
                            <use xlink:href="#path-1"></use>
                        </mask>
                        <g id="Clip-92"></g>
                        <path d="M11.8351347,0.243966667 C10.2201143,-0.0947 9.27186939,0.344633333 7.57782857,0.469633333 C5.61635918,0.613966667 3.70158367,0.1053 1.78027755,0.532966667 C0.780767347,0.7553 0.100277551,1.53496667 0.173420408,2.61463333 C0.26517551,3.96796667 1.40182857,4.64796667 2.54795102,5.0153 C3.21929796,5.23063333 3.69080816,4.72363333 3.76133878,4.17263333 C4.14958367,4.2733 4.41309388,4.65896667 4.44117551,5.13296667 C4.47219592,5.65763333 8.01929796,12.5986333 10.1603592,15.3099667 C10.8741551,16.2136333 11.4883592,15.9716333 11.6881959,15.7659667 C13.9709714,13.4229667 15.2023184,10.7399667 15.6934204,7.38963333 C16.1286857,4.42363333 15.1755429,0.944966667 11.8351347,0.243966667" id="Fill-91" fill="#633941" mask="url(#mask-2)"></path>
                    </g>
                    <path d="M147.7555,9.35717608 C146.292311,7.70957492 145.431278,10.4404705 144.929272,8.38331892 C144.344437,5.98711331 141.228154,3.0081376 139.587027,4.3217202 C139.186744,4.64231089 138.976682,6.64810082 138.983611,9.01812205 C138.953377,9.23934642 138.929757,9.46426345 138.863936,9.67340271 C138.700169,10.1940689 138.386179,10.6106689 138.173913,11.1017937 C137.905903,11.7214905 137.897715,12.478823 138.508689,12.8642033 C138.667416,12.964241 138.93889,13.0585719 139.202176,13.0756924 C139.466407,15.4997609 139.974712,17.544156 140.760475,17.7982786 C142.515924,18.3662781 146.148071,17.6619856 147.538509,16.5931262 C148.21499,16.0727958 146.730071,14.1757717 147.230503,12.8259338 C147.728415,11.4831456 148.353247,10.0302487 147.7555,9.35717608" id="Fill-94" fill="#FFBD9E"></path>
                    <polygon id="Fill-96" fill="#4C4E77" points="36 52 130 52 130 49 36 49"></polygon>
                    <polygon id="Fill-98" fill="#4C4E77" points="38 57 125 57 125 52 38 52"></polygon>
                    <polygon id="Fill-99" fill="#363860" points="38 55 125 55 125 52 38 52"></polygon>
                    <polygon id="Fill-100" fill="#4C4E77" points="46 107 49 107 49 58 46 58"></polygon>
                    <polygon id="Fill-101" fill="#4C4E77" points="114 107 117 107 117 58 114 58"></polygon>
                    <path d="M96.4786908,93.3547584 C96.3972283,92.9552366 95.8850901,93.0482808 95.6170321,93.0138331 C93.7725969,92.8682296 94.2149539,93.88994 94.2484612,95.2355294 C94.2761277,96.350284 94.3837198,97.272913 93.7578414,98.2044203 C93.3388472,98.8283846 93.0449672,99.2708771 93.0010081,100.092294 C92.9813341,100.461275 93.2524661,100.868609 93.5650979,100.948158 C94.8626581,101.27843 96.2724215,99.9751009 96.7633487,98.6160165 C97.3062274,97.1131043 96.7870189,94.8715207 96.4786908,93.3547584" id="Fill-102" fill="#47292F"></path>
                    <path d="M92.9955525,21.1137372 C92.9662728,21.0300747 92.8617024,20.9844116 92.7404007,21.0048482 C92.1541091,21.1051155 91.5744403,21.1261908 91,21.070948 C91.0386911,21.3934637 91.0923706,21.7028873 91.1585985,21.9985799 C91.7609242,22.0215712 92.4692147,21.7635586 92.8787822,21.3573803 C92.8923764,21.3442881 92.9049248,21.335347 92.9146847,21.325448 C92.9708042,21.2654154 93.0143752,21.1673834 92.9955525,21.1137372" id="Fill-104" fill="#FFFFFF"></path>
                    <path d="M141.550463,13.0101274 C140.692608,13.1819062 139.843084,13.2322622 139,13.1778453 C139.087111,13.8263813 139.19013,14.439993 139.309434,15 C140.224101,14.8956332 141.191414,14.4192821 141.790208,13.7236389 C141.81369,13.6968365 141.835657,13.6793744 141.851943,13.6594756 C141.949281,13.5376467 142.024651,13.3394716 141.992457,13.2306378 C141.941706,13.0608895 141.760287,12.9678934 141.550463,13.0101274" id="Fill-105" fill="#E78686"></path>
                    <path d="M92.4484434,18.9985385 C92.7172239,19.0173815 92.9553839,18.8518034 92.9787139,18.6300971 L92.9981555,18.4388604 C93.0214855,18.2171541 92.8207506,18.0207055 92.55197,18.0014615 C92.2831895,17.9826185 92.0445434,18.1481966 92.0216995,18.3699029 L92.0017718,18.5611396 C91.9789279,18.7828459 92.1796628,18.9796954 92.4484434,18.9985385" id="Fill-106" fill="#633941"></path>
                    <path d="M92.1182273,16.1375085 C92.4046627,15.9470488 92.7783393,15.9891997 93.086117,16.0578901 C93.4036297,16.1281417 93.8443284,16.2488702 93.989231,16.690154 C94.0225549,16.7905877 93.9750029,16.9482634 93.8952503,16.9753233 C93.6155545,17.0731551 93.3463426,16.8530336 93.0688934,16.7859043 C92.7618646,16.7120101 92.4537125,16.79371 92.1523,16.7135712 C91.9561011,16.6620534 91.9546034,16.2462683 92.1182273,16.1375085" id="Fill-107" fill="#4E372B"></path>
                    <path d="M141,13 C140.327721,13.1464745 139.661678,13.1908843 139,13.1417998 C139.0343,13.436307 139.071718,13.7222439 139.111631,14 C139.832866,13.9372809 140.537262,13.674328 141,13" id="Fill-108" fill="#FFFFFF"></path>
                    <g id="Group-51" transform="translate(140.000000, 7.000000)" fill="#633941">
                        <path d="M0.950611558,2.59951344 C0.676762873,2.59951344 0.453243136,2.42069765 0.453243136,2.2016187 L0.453243136,2.01253976 C0.453243136,1.79346081 0.676762873,1.61464502 0.950611558,1.61464502 C1.22446024,1.61464502 1.44797998,1.79346081 1.44797998,2.01253976 L1.44797998,2.2016187 C1.44797998,2.42069765 1.22446024,2.59951344 0.950611558,2.59951344" id="Fill-109"></path>
                        <path d="M0.14372011,0.129684494 C0.512799058,-0.0274207687 1.00671353,-0.0128155055 1.41477274,0.0246844945 C1.8356609,0.0637634418 2.42085827,0.134816073 2.63006879,0.462447652 C2.67793064,0.537052916 2.62168064,0.658631863 2.51806222,0.683105547 C2.15391748,0.769947652 1.79026616,0.615605547 1.42217406,0.57771081 C1.01510169,0.535473968 0.612963531,0.611658179 0.212799058,0.565473968 C-0.0477272583,0.534684494 -0.0669706793,0.220079231 0.14372011,0.129684494" id="Fill-110"></path>
                    </g>
                    <path d="M66.4243221,20.358797 C63.0819547,18.9444991 60.1940173,21.9427846 60.0131212,25.3067305 C59.919136,27.052621 60.3368477,28.9766372 61.0479682,30.5362907 C61.621985,31.7951748 62.2930186,32.9417975 63.4966347,33.5410653 C66.7470381,35.1591207 69.3759269,32.2179392 69.8701068,29.0950631 C70.3565388,26.0228019 69.5342531,21.6751095 66.4243221,20.358797" id="Fill-111" fill="#FFBD9E"></path>
                    <polygon id="Fill-112" fill="#806F87" points="73 45 60 45 64.7414559 49 68.1635501 49"></polygon>
                    <path d="M63.2695827,68.8415676 C63.3884303,67.8494905 63.7177371,66.9049697 64,65.9505414 C63.9147552,65.930396 63.8298641,65.8907658 63.7506324,65.8296691 C62.5267855,64.8871298 60.4147654,62.7002009 58.5591872,63.034416 C58.172579,64.5175778 57.8874863,66.4287463 58.0434737,68.3577484 C58.3971867,72.7335878 60.8707014,81.0807079 61.2268904,83.6731863 C61.4550352,85.334354 63.6448722,85.5077363 63.6958069,83.78283 C63.8058116,80.0526333 63.8514406,76.6695315 63.6289551,73.3940919 C63.5154132,71.7197141 63.0690275,70.5146244 63.2695827,68.8415676" id="Fill-113" fill="#FFBD9E"></path>
                    <path d="M73.4517564,63.8075349 C72.401468,62.3416237 70.0467508,63.1522643 68.938889,64.0334675 C68.5968554,64.3051166 68.3372642,64.7351172 68,65.0299558 C68.2895703,66.2871611 68.7760483,67.4996436 68.9245808,68.7916332 C69.1180819,70.4698945 68.6878145,71.678733 68.5784592,73.3579882 C68.3645179,76.6439483 68.4081237,80.037243 68.5140724,83.7790436 C68.563129,85.5093158 70.6722225,85.3353941 70.8922959,83.6690588 C71.2353515,81.0685157 73.6176631,72.6954294 73.958334,68.3059776 C74.0758655,66.7900432 73.9321024,65.285041 73.6854567,63.9877509 C73.5958602,63.9503164 73.5130772,63.893005 73.4517564,63.8075349" id="Fill-114" fill="#FFBD9E"></path>
                    <path d="M152.44454,22.6410189 C148.883503,20.109131 145.20709,25.7067323 144.031236,28.4962461 C143.863536,28.8942076 144.417663,29.2422948 144.588613,28.8412377 C145.660142,26.3224203 148.606277,21.3370674 151.842963,23.153175 C155.525225,25.2196853 151.538437,31.1866994 149.837706,33.3949212 C149.575105,33.7361293 150.033682,34.2273038 150.298883,33.8826561 C152.197864,31.4174964 156.208702,25.3173699 152.44454,22.6410189" id="Fill-115" fill="#E3D9CC"></path>
                    <path d="M70.3009652,21.5397474 C69.3909632,20.0715271 67.9796831,18.7758782 66.1343449,19.0326889 C65.6252978,19.1032862 65.4108021,19.2673313 64.939925,19.4279658 C64.1799011,19.6864817 64.4751282,19.6878459 63.7978624,19.4381973 C63.0760085,19.1718373 62.4217123,18.9730051 61.6552703,19.1749067 C60.9499681,19.36112 60.3189793,19.8409773 59.9217401,20.4535031 C59.6829237,20.8221782 59.5775337,21.2270045 59.4657257,21.646155 C59.2566347,22.430911 58.7911623,22.8739349 58.3797359,23.5376182 C58.028436,24.1041023 57.9301395,24.6085152 58.0466766,25.2814068 C58.140244,25.8195837 58.4432402,26.2755676 58.6033519,26.7881657 C58.7330626,27.2039057 58.7482631,27.7308279 58.9421537,28.1237175 C59.5258521,29.3068199 60.8807215,29.2150775 61.5478536,28.3075434 C62.0771681,28.4579465 62.6064826,28.4282751 63.1381616,28.1332669 C63.5323606,27.9143128 64.9135775,25.5068409 64.9939712,25.4246478 C65.4773464,25.8335668 65.9742332,26.8365948 66.6231248,27.0020041 C67.3804464,27.1946973 68.19857,26.469625 68.8602975,26.7591765 C69.4112305,26.9999578 69.4831794,27.5429094 70.1844282,27.5118738 C70.7985276,27.4849309 71.3562163,26.9590318 71.6831955,26.4709892 C72.6766312,24.9870807 71.0866611,22.8074302 70.3009652,21.5397474" id="Fill-117" fill="#633941"></path>
                    <path d="M63.539032,29.9991902 C63.2690327,30.0132181 63.0336988,29.8432812 63.016122,29.6220428 L63.0009864,29.4300622 C62.9838978,29.2080222 63.1909136,29.0152401 63.4609129,29.0008115 C63.7314004,28.9867837 63.9662461,29.1563197 63.9838229,29.377959 L63.9989585,29.5699395 C64.0165353,29.7915788 63.8095195,29.9847617 63.539032,29.9991902" id="Fill-118" fill="#633941"></path>
                    <path d="M63.8864597,28.1582195 C63.6036943,27.9528633 63.2305335,27.9851182 62.9223677,28.0464025 C62.60449,28.1092996 62.163346,28.220579 62.011691,28.67161 C61.9773259,28.7748256 62.02215,28.938788 62.1013393,28.9699678 C62.3788753,29.0790968 62.6504347,28.8603011 62.9287178,28.7990168 C63.235763,28.7318191 63.5416876,28.8253583 63.8435033,28.7522472 C64.0399823,28.70494 64.0482001,28.2759499 63.8864597,28.1582195" id="Fill-119" fill="#633941"></path>
                    <path d="M67.4923334,29.9999676 C67.7666594,30.002773 67.9935344,29.8232255 67.9969944,29.6011958 L67.9999601,29.4088236 C68.0034201,29.1867939 67.7814878,29.0028379 67.5076561,29.0000324 C67.2338244,28.997227 67.0064551,29.1767745 67.0029951,29.3988042 L67.0000294,29.5907757 C66.9970638,29.8132061 67.2185017,29.9971621 67.4923334,29.9999676" id="Fill-120" fill="#633941"></path>
                    <path d="M67.1025357,28.2198318 C67.3763112,27.9755972 67.7486607,27.9802493 68.057402,28.0215366 C68.3754428,28.0639869 68.818468,28.1488874 68.9851139,28.6239818 C69.0234276,28.7327243 68.98437,28.9129926 68.9069987,28.9531169 C68.6347111,29.093261 68.3568439,28.8786835 68.0782328,28.8356517 C67.7702354,28.7879678 67.4693055,28.9129926 67.1665158,28.8589121 C66.9693678,28.8228585 66.9463052,28.3599759 67.1025357,28.2198318" id="Fill-121" fill="#633941"></path>
                    <path d="M66.8190826,31.6522583 C66.6553343,31.6851389 66.4679463,31.7305141 66.3543604,31.5391491 C66.2843061,31.420779 66.3067926,31.2274412 66.3102521,31.092302 C66.3186125,30.7802653 66.3367747,30.467571 66.3503243,30.1558631 C66.3586847,29.9559491 66.1021073,29.949373 66.0701072,30.1302162 C66.0614585,30.1561919 66.0585756,30.1838116 66.0608819,30.21176 C66.0346476,30.650387 65.9299986,31.2142889 66.075873,31.6259538 C66.2182879,32.0264393 66.5691358,32.0346594 66.8957675,31.9695559 C67.0782546,31.9330584 67.0009931,31.6160896 66.8190826,31.6522583" id="Fill-122" fill="#E8A2A2"></path>
                    <path d="M65.4267429,34.5431782 C65.2393666,34.8831521 65.203169,35.3123827 65.0139676,35.6407459 C64.8162492,35.9839853 64.4612686,36.0913836 64.1272766,36.0333305 C64.3243866,35.655622 64.5227134,35.2782765 64.7198235,34.9002052 C64.926059,34.5050808 64.4040824,34.143337 64.1978468,34.5362844 C63.9885695,34.9346743 63.7808131,35.3337898 63.5718399,35.7318168 C63.1541978,35.1872056 63.7701667,34.1335406 64.0530561,33.5381328 C64.2446909,33.1353889 63.7248435,32.7729195 63.5326004,33.1753005 C63.0772397,34.1302751 62.3770123,35.5881352 63.241498,36.363145 C62.1759478,38.3957315 61.1113102,40.4294065 60.0475851,42.4634444 C59.8401328,42.8607458 60.3657597,43.2250294 60.5726035,42.8295422 C61.6457583,40.7802654 62.7176963,38.7306257 63.789026,36.6802604 C64.1893297,36.8163226 64.6392152,36.8032606 65.0127509,36.5812072 C65.6180735,36.2212776 65.6147275,35.5133918 65.9493279,34.9074619 C66.1640805,34.5185056 65.6399746,34.1560362 65.4267429,34.5431782" id="Fill-123" fill="#E3D9CC"></path>
                    <path d="M66.6167051,34.303482 C66.3263981,34.0941569 65.982165,34.0606922 65.6954903,33.8284882 C65.4792269,33.6536523 64.9220834,33.1294858 64.8572603,33.0881672 C64.4465275,32.8265962 64.0047803,33.1769511 64.0000303,33.745168 C63.9980745,33.9968361 64.0908386,34.2331379 64.24647,34.3909 C64.3484546,34.4947089 64.3797485,34.4779765 64.4135571,34.5896393 C64.4493216,34.7088146 64.4029396,34.8576984 64.4498804,34.9895083 C64.5328652,35.2220538 64.6890554,35.3296189 64.8888336,35.3716205 C65.0332886,35.4016705 65.1688024,35.365474 65.3110221,35.4334278 C65.4554771,35.5017231 65.5733881,35.6611926 65.7005197,35.76466 C66.0724144,36.0672082 66.5571908,36.1283325 66.8558801,35.6454847 C67.1283049,35.2053215 66.9955851,34.5770047 66.6167051,34.303482" id="Fill-124" fill="#806F87"></path>
                    <path d="M65.9447995,32.3334844 C66.0708156,32.5938304 65.9737458,32.8792013 65.7282015,32.9711786 C65.4824076,33.0633753 65.1812166,32.9270558 65.0552005,32.6667098 C64.9291844,32.4063637 65.0262542,32.1207733 65.2717985,32.028796 C65.5175924,31.9365993 65.8187834,32.0731383 65.9447995,32.3334844" id="Fill-125" fill="#E78686"></path>
                    <path d="M63.1514545,37.0214777 C62.6547915,36.8542455 60.5916522,37.7118094 60.2671702,37.9265631 C59.3543751,38.5301952 58.7933548,39.4708311 58.5713054,40.553306 C58.4031678,40.7836584 58.236378,41.0201777 58.0412844,41.246177 C57.4671232,41.9122038 56.8019856,42.4784716 56.144261,43.0443767 C55.9626454,43.2003634 55.97208,43.5054443 56.065078,43.7060504 C56.2227701,44.0470445 56.3807993,44.3880386 56.5384914,44.7290327 C56.6554128,44.9818762 57.0162853,45.0816351 57.2326066,44.9249229 C58.1784227,44.2418465 59.0854897,43.5018167 59.9315689,42.6805288 C60.2985065,42.3235733 62.6096404,40.4851072 62.8421352,40.281599 C63.3556457,39.8321397 63.9132964,39.280745 63.9907947,38.5309208 C64.0578476,37.8808554 63.7566151,37.2257114 63.1514545,37.0214777" id="Fill-126" fill="#FFBD9E"></path>
                    <path d="M58.7703831,35.1519895 C57.0850454,36.2993327 55.473918,37.5240886 53.9768804,38.8709424 C52.6622476,40.0538451 51.0091602,41.3969227 50.3166459,42.9958396 C49.8068833,44.1724486 49.8152059,45.8050368 51.073314,46.6125198 C52.4729072,47.5112615 54.4346265,46.6537436 55.7267187,45.985981 C56.3682567,45.6543025 56.213594,44.6580083 55.5235072,44.5264698 C55.5304427,44.519232 55.5377251,44.513253 55.5446606,44.5060152 C55.7111137,44.3307354 55.7724933,44.1378332 55.7648642,43.9524835 C55.9646079,43.744791 56.162271,43.5355252 56.3661761,43.3303503 C56.990722,42.7034968 56.1334885,41.5070626 55.3078117,42.0851399 C55.2013511,42.1597203 55.0952372,42.2339861 54.9887766,42.3082519 C55.7211703,41.4982514 56.5860329,40.7596846 57.2442162,40.157062 C57.7983663,39.649789 57.283402,38.7702431 56.623138,38.7771662 C57.5923806,37.9797532 58.5952606,37.2175849 59.6373264,36.4978993 C60.5035761,35.8999969 59.6584798,34.5477934 58.7703831,35.1519895" id="Fill-127" fill="#FAEFE1"></path>
                    <path d="M52.138993,43.3778336 C51.8203263,43.5891638 52.1065521,44.1659471 52.4263671,43.9539439 C52.7763263,43.7220864 55.3210663,42.016975 55.445375,43.0635305 C55.4959023,43.489556 56.0462483,43.3078389 55.9968693,42.8855151 C55.7583,40.8438907 52.8472368,42.907725 52.138993,43.3778336" id="Fill-128" fill="#E3D9CC"></path>
                    <path d="M57.8242359,44.1390768 C57.6853391,43.8261346 57.2173173,44.0965124 57.3545671,44.4067776 C57.5019734,44.7408682 57.5025224,45.0069628 57.2321403,45.2701127 C57.0408141,45.4556293 56.779216,45.5959045 56.5538519,45.7353767 C56.0959866,46.0183364 55.6224748,46.2731876 55.1382576,46.5101028 C54.8245046,46.6640307 55.1003767,47.1220668 55.4135807,46.9692096 C56.144024,46.613703 56.9480333,46.221789 57.5642848,45.691206 C58.091873,45.2371855 58.0905005,44.7387266 57.8242359,44.1390768" id="Fill-129" fill="#E3D9CC"></path>
                    <path d="M133.687273,69.000538 C131.245922,68.9895965 128.630605,69.1318359 126.553032,70.7056455 C124.734792,72.0828613 123.821307,74.4077511 123.024553,76.5766365 C122.869342,76.9987662 123.494715,77.181242 123.648634,76.7644066 C124.451854,74.5884621 125.390885,72.2632193 127.315186,71.0141249 C129.2272,69.7731483 131.52789,69.7039699 133.687273,69.7071464 C134.104081,69.7078523 134.104404,69.0026557 133.687273,69.000538" id="Fill-134" fill="#231B30"></path>
                    <path d="M62.8893293,85.2598661 C63.0026544,84.4867192 63.0133985,83.2436751 62.820004,82.4771661 C62.6534698,81.8172138 61.04236,81.9457805 60.6934312,82.2427416 C60.5701293,82.3475514 60.4977343,82.5770848 60.51999,82.8405068 C60.5335481,83.0033113 60.622571,85.0729553 60.6287105,85.1477197 C60.4698507,86.0875141 59.4269014,88.3919321 60.4314787,88.9257633 C61.2403592,89.3554835 62.47261,87.8158276 62.8348411,86.9717594 C63.0307938,86.5147887 63.0643053,85.7783252 62.8706549,85.3472076 C62.8778177,85.3196077 62.8847246,85.2916584 62.8893293,85.2598661" id="Fill-135" fill="#806F87"></path>
                    <path d="M69.1112323,85.7312745 C68.9972897,85.0558981 68.9697686,84.1032878 69.0736801,83.4798165 C69.1732191,82.8813818 69.6559959,83.0148083 70.1174247,83.026716 C70.4723698,83.036181 70.8738694,82.9012279 71.2246992,83.1610585 C71.3486729,83.2526556 71.4212051,83.4532534 71.3990854,83.6834675 C71.3854534,83.8257484 71.3196085,85.5899095 71.3134355,85.6552488 C71.4729037,86.4765699 72.5925242,88.4688079 71.5824737,88.9350374 C70.7694435,89.310891 69.5302219,87.9650236 69.1660173,87.2273612 C68.968997,86.828303 68.9353029,86.184375 69.1302656,85.8076054 C69.1228066,85.7837902 69.1161192,85.7590589 69.1112323,85.7312745" id="Fill-136" fill="#806F87"></path>
                    <path d="M112.834172,98.993119 C112.887531,98.8343276 112.946961,98.6586539 113,98.486895 C112.356818,98.5409672 111.713316,98.4842036 111.047767,98.3657829 C110.707485,98.3048599 109.831057,98.1810564 109.266475,98 C109.183721,98.1570787 109.09841,98.294339 109,98.4161851 C109.51953,98.5933268 110.147056,98.6929078 110.529196,98.7709578 C111.295391,98.9275472 112.067977,99.0278622 112.834172,98.993119" id="Fill-137" fill="#806F87"></path>
                    <polygon id="Fill-138" fill="#47292F" points="46 58 49 58 49 57 46 57"></polygon>
                    <polygon id="Fill-139" fill="#47292F" points="114 58 117 58 117 57 114 57"></polygon>
                    <path d="M94.2807705,94.0589253 C94.1857656,94.0444014 94.093699,94.0186735 94,94 C94.0111002,94.2589392 94.035586,94.5440214 94.0525628,94.848192 C94.3026445,94.8930084 94.554032,94.9286955 94.8083578,94.946954 C95.158015,94.972267 95.5742736,95.0386617 95.9490695,94.9693622 C95.9751877,94.6772257 95.9915116,94.3929735 96,94.1170206 C95.5445642,94.3178645 94.6036565,94.1083063 94.2807705,94.0589253" id="Fill-140" fill="#806F87"></path>
                    <path d="M98.7477655,93.2786049 C98.6490255,92.8740136 96.9214498,93.0282977 96.4543049,93.0315345 C94.7947999,93.1325924 95.3595627,93.7961222 95.3999564,95.1587859 C95.4336177,96.2876856 95.564523,97.2223816 94.8034023,98.1657088 C94.2932457,98.7975905 92.9337008,98.9353314 93.0025196,99.9991369 C93.0462793,100.676333 94.3340133,101.213271 95.7249755,100.916211 C97.3033192,100.579591 97.8628458,99.958498 98.4597739,98.5825278 C99.1206586,97.060545 99.1229027,94.8142538 98.7477655,93.2786049" id="Fill-141" fill="#633941"></path>
                    <path d="M97.9452405,94.9004045 C98.2713408,94.848838 98.6646878,94.816023 99,94.6840931 C98.9809621,94.4476909 98.9536336,94.2196599 98.9204708,94 C98.5305015,94.2518052 97.632651,94.2792627 97.327738,94.3063853 C96.8828045,94.3458973 96.4418628,94.3398701 96,94.3067202 C96.0202661,94.5019362 96.0497441,94.7252794 96.0678608,94.9787588 C96.6945752,95.0226238 97.3194473,94.9995193 97.9452405,94.9004045" id="Fill-142" fill="#806F87"></path>
                    <path d="M93,24.9549569 C93,24.9549569 94.9741671,24.5188764 96.5841333,22.9855104 C97.4480519,22.1629398 98,22 98,22 L97.6379164,23.4774784 C97.6379164,23.4774784 95.7717391,24.7403276 94.6706663,24.9040546 C93.4559571,25.0845741 93,24.9549569 93,24.9549569" id="Fill-146" fill="#F2AB89"></path>
                    <path d="M94.3823622,29.0657059 C94.0440228,27.8542874 94.2212163,26.7875254 94.9109339,25.7006899 C95.3458939,25.0150054 95.7614629,24.436698 95.9102386,23.6245187 C96.0593486,22.8110649 96.0747277,22.1202824 96.4237656,21.3536667 C96.6143322,20.934354 97.3341392,20.8623444 97.5788669,21.2762404 C98.2475218,22.4060905 98.5537657,23.6356707 98.2976709,24.9315252 C97.9773852,26.5514231 96.7300095,27.536298 96.3702732,29.0752647 C97.7654216,33.4531948 99.0639494,37.8585267 100.249475,42.2922164 C100.728566,44.0844913 101.208994,45.2975029 100.904756,47.1608315 C100.764004,48.0217607 100.24914,50.0472703 98.990063,49.9991576 C97.8035349,49.9542313 97.0874055,47.9717363 96.6912275,47.1165424 C95.7898807,45.1729199 95.2432553,43.7174334 94.7892387,41.6415808 C93.8812053,37.4921061 93.7722146,33.2562835 94.3823622,29.0657059" id="Fill-147" fill="#FFBD9E"></path>
                </g>
            </g>
        </g>
    </g>
</svg>