<?xml version="1.0" encoding="UTF-8"?>
<svg width="363px" height="311px" viewBox="0 0 363 311" version="1.1" xmlns="http://www.w3.org/2000/svg" xmlns:xlink="http://www.w3.org/1999/xlink">
    <title>about-img1</title>
    <defs>
        <rect id="path-1" x="0" y="0" width="363" height="310.957312"></rect>
    </defs>
    <g id="視覺稿" stroke="none" stroke-width="1" fill="none" fill-rule="evenodd">
        <g id="首頁-關於玉山(單色板)" transform="translate(-665.000000, -1534.000000)">
            <g id="about-img1" transform="translate(665.000000, 1534.000000)">
                <g id="Clipped">
                    <mask id="mask-2" fill="white">
                        <use xlink:href="#path-1"></use>
                    </mask>
                    <g id="path-1"></g>
                    <g id="Group" mask="url(#mask-2)" fill-rule="nonzero">
                        <g transform="translate(-81.808023, 58.744892)">
                            <path d="M14.114781,120.305222 C14.114781,120.305222 29.9944492,106.514052 44.4309595,106.957414 C58.8675401,107.400777 65.540752,111.485841 81.4503662,109.085269 C97.3599105,106.684773 107.704652,99.3884672 115.847684,99.4085685 C123.990795,99.4297396 127.699688,102.286808 131.033051,103.108809 C134.366483,103.930888 141.02793,103.540992 149.547567,106.003398 C158.067203,108.465803 160.297645,112.132755 160.297645,112.132755 L454.195298,115.318376 C454.195298,115.318376 467.509636,111.284042 478.617133,112.532675 C489.724488,113.781232 506.032022,121.958711 514.17406,121.57249 C522.316098,121.186347 531.925822,115.922218 542.295091,117.982457 C552.664361,120.04285 563.807082,134.716131 571.952327,135.550326 C580.097503,136.384599 597.468457,126.665285 611.906037,127.515427 C626.343686,128.365646 644.859203,131.667091 655.612559,139.016864 C666.365845,146.366636 668.973955,152.882138 668.973955,152.882138 L669.323684,285.908893 L12.6950901,284.24484 L14.114781,120.305222 Z" id="Fill-1" fill="#5B7860" transform="translate(341.009387, 192.658731) rotate(-4.000000) translate(-341.009387, -192.658731) "></path>
                            <path d="M8.91055106,104.669769 C8.91055106,104.669769 24.5641443,117.59363 31.782961,125.771875 C39.0017779,133.9502 49.5923453,143.210619 60.001024,141.519142 C70.4096301,139.827585 72.384589,133.819978 86.1621956,132.137038 C99.9398024,130.454099 102.552134,133.896429 107.603376,133.050343 C112.654546,132.204176 116.763771,122.551446 122.582901,122.566193 C128.40203,122.58094 133.159919,126.673012 135.915185,126.250512 C138.670524,125.828011 139.738541,124.327604 139.738541,124.327604 C139.738541,124.327604 146.843439,118.332917 149.907021,118.662794 C152.970529,118.99267 155.807817,120.610424 156.572882,120.397622 C157.338018,120.184819 158.019441,117.287611 159.164324,115.89469 C160.309135,114.501849 168.707852,105.504215 170.160413,104.648929 C171.6129,103.793643 173.065179,102.830985 174.137921,103.155815 C175.210736,103.480647 176.367474,106.597256 177.978777,107.88979 C179.590008,109.182324 185.338763,111.558974 188.930388,108.883882 C192.522013,106.208791 197.328823,99.7787972 199.234537,96.5626586 C201.140322,93.3463604 201.597145,92.3812593 203.282492,92.7076432 C204.967767,93.034027 205.153026,95.5397377 207.5545,96.4405814 C209.955973,97.341345 211.713954,96.1648001 213.469885,94.2365736 C215.225889,92.3084267 217.666985,88.8788232 222.023392,85.8835573 C226.379873,82.8882915 236.236159,74.9680605 238.83353,72.7199333 C241.430901,70.4717262 247.233094,64.0443345 248.306474,64.5839092 C249.37978,65.1234839 248.411214,75.3210277 251.784165,76.8326886 C255.157045,78.3444292 256.300799,76.522022 256.300799,76.522022 L269.339891,56.0477781 L282.843498,37.5073083 L290.555639,29.4742727 L296.289434,26.1603845 L301.800886,25.6374973 L309.842367,26.4094726 L315.583291,25.7797958 L320.77909,21.7129479 C320.77909,21.7129479 322.769364,21.5032499 324.512023,24.2276498 C326.254683,26.9520496 326.920742,27.8842856 326.920742,27.8842856 L333.102227,29.8326274 L343.000578,28.2113579 L347.6461,28.3662919 C347.6461,28.3662919 356.741667,32.0398737 362.391245,45.2247051 C368.040823,58.4094568 364.436208,65.8445463 372.871433,70.7332453 C381.306658,75.6220241 381.657911,73.3323347 384.576132,76.6323586 C387.494354,79.9323826 384.851338,84.2204417 389.755361,85.6644021 C394.659527,87.1084427 396.299534,89.6178406 396.299534,89.6178406 L406.19882,98.0534109 L412.571963,104.941141 L418.110232,114.61832 C418.110232,114.61832 421.612089,126.330306 423.454956,128.339154 C425.297822,130.348081 432.757899,133.230131 450.161375,151.598395 C467.56485,169.966658 472.543111,160.817194 480.712163,161.553623 C488.881288,162.290131 510.369138,180.955147 518.433843,180.832345 C526.498549,180.709621 527.210911,179.852539 532.117945,182.441796 C537.025124,185.031055 543.279634,195.354274 549.714307,196.515791 C556.148981,197.677389 562.570481,193.828389 569.930047,197.282829 C577.28954,200.737269 590.174767,209.073035 595.189911,213.953147 C600.205128,218.833179 620.245149,230.479705 629.129647,231.504349 L638.014146,232.528993 L638.168457,291.223973 L9.40151479,289.630536 C9.40151479,289.630536 10.1309918,104.672862 8.91055106,104.669769" id="Fill-4" fill="#5C9169" transform="translate(323.539504, 156.466594) rotate(-4.000000) translate(-323.539504, -156.466594) "></path>
                            <path d="M394.331929,87.2337233 C394.331929,87.2337233 403.936781,93.4082132 409.667642,100.431068 C415.398503,107.453843 418.683016,115.18565 418.891165,116.759433 C419.099315,118.333294 417.688144,124.765928 413.709891,124.755847 C409.731566,124.745764 405.44346,123.304593 400.228272,118.428502 C395.013156,113.55233 392.770894,114.261801 393.284238,115.550375 C393.797655,116.83887 406.580573,129.028532 405.889089,137.608367 C405.197606,146.18828 402.126895,151.901556 402.752544,157.052078 C403.37812,162.202679 406.07777,170.576561 400.439498,179.358404 C394.801154,188.140247 391.842583,197.679791 381.666781,197.439458 C371.490979,197.199125 371.942357,194.303982 366.666533,195.470534 C361.39078,196.637165 346.211047,213.690353 337.949129,213.955477 C329.687282,214.2206 322.329582,209.196049 311.427599,214.031296 C300.525545,218.866622 291.962871,221.13333 289.944551,229.42382 C287.92623,237.714231 307.772862,259.504514 309.544576,273.811727 C311.316288,288.118861 311.215034,288.404665 311.215034,288.404665 L199.822714,288.122373 C199.822714,288.122373 210.797445,272.131176 218.128448,267.000819 C225.459451,261.870461 230.224498,250.726403 233.245587,235.859293 C236.266747,220.992183 243.932075,187.829427 251.145278,176.691573 C258.358555,165.553799 269.74876,152.424183 272.39348,149.570357 C275.038129,146.71653 307.089314,115.90398 315.419325,102.76669 C323.749336,89.6293193 321.687468,81.3285685 326.163273,76.6199869 C330.639222,71.9114853 334.399694,66.6290488 331.336419,65.4770423 C328.273144,64.325036 325.757576,77.4771413 324.012184,73.1818851 C322.266722,68.8867082 323.900026,69.3199387 323.888368,64.8860457 C323.876712,60.4522324 320.808172,57.2977867 321.913323,50.8644573 C323.018545,44.4310484 326.786394,42.0091594 326.365207,37.0021069 C325.943947,31.9951339 325.522456,26.8451297 325.621455,25.7011372 C325.720453,24.5571448 328.688114,28.1403464 333.788063,28.0102404 C338.888084,27.8801345 343.978328,24.0312925 349.190436,27.7632126 C354.402616,31.4951327 358.31353,44.6635241 356.390448,50.3797082 C354.467293,56.0958921 350.207462,65.3818354 348.294084,74.8167554 C346.380778,84.2516757 338.759548,95.3884162 337.856834,101.250217 C336.954265,107.112018 302.271519,145.784412 313.822839,155.110425 C325.37416,164.436357 343.705391,153.040697 354.185883,143.055446 C364.666302,133.070115 382.48163,119.384661 386.93577,106.380579 C391.389837,93.3764166 394.331929,87.2337233 394.331929,87.2337233" id="Fill-6" fill="#AFC793" transform="translate(309.366850, 156.940041) rotate(-4.000000) translate(-309.366850, -156.940041) "></path>
                            <path d="M316.200143,24.8207559 C316.200143,24.8207559 311.44725,30.3779197 305.967706,29.6500913 C300.488164,28.9221835 293.991623,27.1920682 288.422657,31.0335918 C282.853691,34.8751154 275.169566,44.4232915 269.309054,53.1192634 C263.448541,61.8152353 252.130333,78.0658449 252.134087,79.493818 C252.137842,80.921791 259.823467,71.9448357 261.861591,75.5200287 C263.899716,79.0952218 262.393179,84.8034168 259.867393,88.6526525 C257.341535,92.501888 250.773591,102.195697 248.764751,109.758995 C246.755838,117.322373 244.655698,128.741077 245.783517,133.313513 C246.911337,137.88603 236.048433,172.987484 237.271307,175.132568 C238.494182,177.277652 249.244834,138.034748 253.595806,133.904529 C257.946706,129.774389 266.137337,119.941888 269.165802,114.380354 C272.194269,108.818741 277.831259,92.2682048 281.396264,97.8464481 C284.961198,103.424691 285.874954,103.712615 281.321483,107.985125 C276.768013,112.257555 275.862213,114.968462 277.994266,115.687887 C280.12639,116.407311 291.763248,105.583994 295.085513,96.0247629 C298.407778,86.465533 299.110775,83.7541125 301.842814,81.1905586 C304.574924,78.6270845 310.039075,73.5001362 308.910504,68.6420095 C307.781862,63.7839621 304.642948,65.9179923 303.530825,67.343217 C302.418773,68.7684418 301.735745,79.0483023 298.990566,76.6137519 C296.245315,74.1792012 293.995306,67.1762475 297.421708,58.6169114 C300.848038,50.0575751 307.638073,47.647189 310.26004,41.7990164 C310.26004,41.7990164 318.236275,27.6105203 317.674206,26.0383281 C317.112209,24.4660565 316.200143,24.8207559 316.200143,24.8207559" id="Fill-8" fill="#AFC793" transform="translate(277.438851, 100.001900) rotate(-4.000000) translate(-277.438851, -100.001900) "></path>
                            <path d="M243.505084,73.6804492 C243.505084,73.6804492 228.653431,87.1268656 220.612722,92.700909 C212.572085,98.2749534 210.143393,105.297726 206.567364,102.563179 C202.991407,99.8286324 203.088092,97.8205663 200.848173,99.1059473 C198.608328,100.391248 192.532565,116.441938 183.25288,116.13152 C173.973124,115.821101 175.790472,108.940309 172.833778,109.076187 C169.877156,109.212145 160.521456,118.799398 157.880536,122.665797 C155.239544,126.532195 157.688673,127.255576 153.810896,126.098222 C149.933119,124.940789 149.418838,123.218157 142.497109,127.79096 C135.575453,132.363684 134.366199,137.81159 130.089233,139.952433 C125.812339,142.093356 117.858134,141.786296 119.604441,146.667889 C121.350677,151.549481 128.194881,156.300621 132.873675,151.865664 C137.552395,147.430627 140.075582,137.539157 143.435541,135.682891 C146.795571,133.826546 147.904746,129.095641 151.47361,129.104685 C155.042401,129.11373 154.746687,132.986071 158.005507,131.416371 C161.264253,129.846751 164.41545,126.125096 167.075603,129.574577 C169.735757,133.024057 166.286279,139.613891 167.819909,141.195657 C169.353612,142.777422 174.836742,134.041139 175.129135,128.877733 C175.421382,123.714325 174.082631,118.690394 178.569185,118.701764 C183.055665,118.713134 191.833892,122.178039 194.585452,121.611289 C197.337082,121.044379 199.266131,117.89351 201.510879,118.472922 C203.7557,119.052414 204.182796,126.369326 209.893312,126.527249 C215.603828,126.685171 217.598636,109.763435 222.397874,112.357631 C227.19704,114.951827 216.825905,126.114465 218.465649,129.274458 C220.105394,132.434451 221.422271,129.1385 221.833222,130.287148 C222.244101,131.435715 217.055104,135.726009 217.688016,143.760617 C218.320928,151.795224 218.01918,153.372418 216.198132,158.818774 C214.377012,164.265128 218.164892,170.012678 217.871441,174.74565 C217.57799,179.478703 210.567568,189.071899 212.521883,195.531977 C214.476197,201.991976 219.951858,190.386659 220.547507,184.219945 C221.143083,178.05323 219.586752,167.86452 221.406741,161.98781 C223.226657,156.1111 225.662138,151.670457 226.050011,144.068709 C226.437885,136.466961 222.76034,133.875607 225.807613,129.436515 C228.854958,124.997344 231.18621,119.695732 233.209753,113.676088 C235.233223,107.656442 237.271401,107.231255 238.0694,100.491251 C238.867398,93.7513264 238.345126,89.0162067 239.761705,84.8598039 C241.178285,80.7034811 244.533319,76.9464804 244.529792,75.5836893 C244.526154,74.2209773 243.505084,73.6804492 243.505084,73.6804492" id="Fill-10" fill="#AFC793" transform="translate(181.943828, 135.555163) rotate(-4.000000) translate(-181.943828, -135.555163) "></path>
                            <path d="M165.409946,295.297526 C165.509993,294.579163 169.643749,277.197586 176.768435,273.047283 C183.89305,268.89706 187.455618,266.893738 189.902928,267.187418 C192.350166,267.481098 192.453993,268.200058 192.151961,269.636606 C191.84993,271.073233 184.234453,282.409016 184.545176,284.278414 C184.855899,286.147732 198.783591,271.809501 201.617864,264.198662 C204.452066,256.587903 210.93339,240.36219 213.468205,235.19416 C216.003091,230.02605 217.504557,219.537209 219.133279,218.6789 C220.761999,217.820672 221.099246,229.751567 220.907771,234.494317 C220.71644,239.237148 217.482733,250.009079 216.885471,255.469498 C216.288211,260.929916 216.302194,266.248225 216.003185,268.834695 C215.704176,271.421163 214.28273,273.573571 210.52309,278.16362 C206.763451,282.753669 197.207397,292.647141 196.70187,294.226992 L196.196271,295.806762 L165.409946,295.297526 Z" id="Fill-12" fill="#94AD76" transform="translate(193.182952, 257.220841) rotate(-4.000000) translate(-193.182952, -257.220841) "></path>
                            <path d="M127.490488,184.209971 C127.490488,184.209971 121.096577,187.632985 113.900527,195.209704 C106.704477,202.786344 100.624508,209.649372 87.5340469,217.354378 C74.4435865,225.059463 64.3930749,229.332956 66.0546174,242.807429 C67.7162318,256.281902 71.8910974,259.301708 73.1984593,254.002931 C74.5057492,248.704153 68.1750435,237.510712 75.5826474,233.087139 C82.9902517,228.663644 84.2106012,228.953266 86.0464725,231.394087 C87.8822717,233.834828 89.0315048,245.731659 85.4852744,249.87841 C81.9389718,254.025081 77.9861374,258.170802 76.2806037,266.62118 C74.57507,275.071558 77.4403857,282.530471 79.8796503,282.536653 C82.318843,282.542835 82.7069146,275.522079 83.1939823,267.498525 C83.6810495,259.474891 85.4992139,255.180537 88.7514708,255.188778 C92.0037278,255.19702 95.9806738,260.222581 95.7898402,264.950972 C95.5990068,269.679443 89.4170271,276.398908 89.5310926,281.128071 C89.6451582,285.857315 90.8624941,285.000576 90.6694001,288.869216 C90.4763063,292.737856 87.4329664,294.879625 85.9170642,298.171697 C84.4012339,301.46377 84.3014846,302.180037 84.3014846,302.180037 L99.5466549,302.218672 C99.5466549,302.218672 101.059471,297.78016 100.940131,291.044725 C100.820791,284.309371 97.9697201,282.295889 99.5725623,273.415339 C101.175333,264.534788 103.389408,256.228923 102.865796,250.352289 C102.342184,244.475655 98.8919363,246.473168 96.556942,247.470379 C94.2220193,248.46751 90.6723263,251.324516 91.7643661,241.439543 C92.8563341,231.554569 92.7414431,226.538795 97.9146275,222.682776 C103.087812,218.826836 103.190952,219.400313 105.821427,214.821329 C108.451829,210.242345 108.853841,208.523794 115.954285,203.239698 C123.054731,197.955601 126.445919,192.781471 127.034598,191.206618 C127.623278,189.631845 128.870041,187.055611 128.730826,185.646075 C128.591611,184.236619 127.490488,184.209971 127.490488,184.209971" id="Fill-14" fill="#94AD76" transform="translate(97.308097, 243.214321) rotate(-4.000000) translate(-97.308097, -243.214321) "></path>
                            <path d="M195.258985,142.264272 C195.258985,142.264272 182.92089,164.959288 178.896911,167.91347 C174.87286,170.867574 170.745046,172.692126 170.05767,179.607114 C169.370294,186.522022 167.071623,193.997569 171.406221,194.149715 C175.740819,194.301861 177.927862,182.732442 180.434432,177.657158 C182.940931,172.581872 183.142148,172.441221 184.04744,171.737711 C184.952735,171.034279 180.952506,183.022507 186.491441,181.201452 C192.030375,179.380475 188.483946,172.313598 189.673067,164.552995 C190.862188,156.792313 194.4723,149.743651 195.27086,146.781373 C196.069422,143.819017 196.840075,143.021163 196.468394,142.220257 C196.096712,141.419429 195.258985,142.264272 195.258985,142.264272" id="Fill-16" fill="#94AD76" transform="translate(182.698606, 168.013299) rotate(-4.000000) translate(-182.698606, -168.013299) "></path>
                        </g>
                    </g>
                </g>
                <g id="Group-47" transform="translate(0.000000, 48.000000)" fill="#F9B931" fill-rule="nonzero">
                    <ellipse id="Oval" opacity="0.373000372" cx="43.6246418" cy="43.1232092" rx="31.5902579" ry="31.0888252"></ellipse>
                    <ellipse id="Oval" opacity="0.168736049" cx="43.6246418" cy="43.1232092" rx="43.6246418" ry="43.1232092"></ellipse>
                    <ellipse id="Oval" opacity="0.829613095" cx="43.1232092" cy="42.6217765" rx="22.0630372" ry="21.5616046"></ellipse>
                </g>
                <g id="E.S.B" transform="translate(139.000000, 194.000000)" fill="#FFFFFF" fill-rule="nonzero" font-family="MicrosoftJhengHeiBold, Microsoft JhengHei" font-size="40" font-weight="bold">
                    <text>
                        <tspan x="-2.13162821e-14" y="43">E.S.B</tspan>
                    </text>
                </g>
            </g>
        </g>
    </g>
</svg>