<?xml version="1.0" encoding="UTF-8"?>
<svg width="483px" height="265px" viewBox="0 0 483 265" version="1.1" xmlns="http://www.w3.org/2000/svg" xmlns:xlink="http://www.w3.org/1999/xlink">
    <title>Group 49</title>
    <defs>
        <rect id="path-1" x="0" y="0" width="483" height="265"></rect>
    </defs>
    <g id="視覺稿" stroke="none" stroke-width="1" fill="none" fill-rule="evenodd">
        <g id="首頁-關於玉山(單色板)" transform="translate(-142.000000, -1856.000000)">
            <g id="Group-49" transform="translate(142.000000, 1856.000000)">
                <g id="Group-47">
                    <mask id="mask-2" fill="white">
                        <use xlink:href="#path-1"></use>
                    </mask>
                    <g id="Mask"></g>
                    <g mask="url(#mask-2)">
                        <g transform="translate(-94.000000, -2.000000)">
                            <path d="M18.9841302,171.801191 C18.9841302,171.801191 40.1705871,152.633369 59.3817932,153.192233 C78.5930925,153.751097 87.4584983,159.385122 108.641104,155.99822 C129.823617,152.611425 143.618967,142.463111 154.456092,142.460457 C165.293311,142.457806 170.218348,146.401883 174.651417,147.527931 C179.084579,148.654085 187.951497,148.088348 199.280453,151.467185 C210.609409,154.846023 213.563734,159.917822 213.563734,159.917822 L604.686778,163.203699 C604.686778,163.203699 622.421715,157.56327 637.199396,159.250565 C651.97689,160.937753 673.648482,172.204625 684.485838,171.6383 C695.323194,171.072081 708.132545,163.742052 721.924638,166.556614 C735.716731,169.371389 750.48978,189.657649 761.326723,190.782128 C772.163573,191.906715 795.319092,178.374499 814.530161,179.496929 C833.741323,180.619466 858.370129,185.122394 872.65309,195.263836 C886.935958,205.405277 890.381976,214.422133 890.381976,214.422133 L890.337004,398.721934 L16.4657058,398.935827 L18.9841302,171.801191 Z" id="Fill-1" fill="#5B7860" transform="translate(453.423841, 270.698142) rotate(-4.000000) translate(-453.423841, -270.698142) "></path>
                            <path d="M12.5921144,145.00143 C12.5921144,145.00143 33.3750623,162.846706 42.9508229,174.14954 C52.5265835,185.452485 66.5854756,198.241679 80.4443222,195.858289 C94.3030727,193.474789 96.9544907,185.143985 115.296832,182.759498 C133.639173,180.37501 137.102578,185.134156 143.828254,183.942567 C150.553834,182.750866 156.059619,169.361746 163.803933,169.35985 C171.548247,169.357954 177.864567,175.009052 181.533026,174.413127 C185.201581,173.817202 186.628703,171.73437 186.628703,171.73437 C186.628703,171.73437 196.107236,163.401784 200.183128,163.847056 C204.258923,164.292328 208.02871,166.522756 209.04771,166.224993 C210.066807,165.92723 210.984793,161.910685 212.513801,159.976473 C214.042713,158.042372 225.254641,145.544395 227.191058,144.353867 C229.127379,143.163339 231.063832,141.824055 232.490242,142.269976 C233.916747,142.715897 235.444231,147.029357 237.583669,148.813914 C239.723011,150.598471 247.364605,153.869137 252.154771,150.149157 C256.944938,146.429177 263.366736,137.502313 265.915289,133.039208 C268.463938,128.575883 269.075602,127.237033 271.317289,127.682755 C273.558879,128.128476 273.795817,131.599297 276.988354,132.838155 C280.180892,134.076902 282.525008,132.440115 284.869282,129.76192 C287.213652,127.083836 290.475536,122.322933 296.28474,118.156434 C302.094039,113.989934 315.241636,102.97905 318.706964,99.854421 C322.172293,96.7296817 329.918784,87.8026034 331.345217,88.5460378 C332.771554,89.2894722 331.443413,103.421354 335.926496,105.50274 C340.409482,107.584236 341.938635,105.054998 341.938635,105.054998 L359.370225,76.6389713 L377.412595,50.9003058 L387.707095,39.7413636 L395.350612,35.1281447 L402.687517,34.382565 L413.386535,35.4212428 L421.029241,34.5268315 L427.959657,28.8724902 C427.959657,28.8724902 430.609211,28.5743281 432.917971,32.3421559 C435.22673,36.1099836 436.109576,37.3989923 436.109576,37.3989923 L444.328711,40.074601 L457.50812,37.7904383 L463.690003,37.9872672 C463.690003,37.9872672 475.780714,43.041925 483.248849,61.2871449 C490.716985,79.5322544 485.891267,89.8470136 497.098502,96.5876867 C508.305738,103.32847 508.781986,100.154877 512.65303,104.715692 C516.524074,109.276506 512.990172,115.227529 519.511135,117.209245 C526.032289,119.191071 528.205258,122.661419 528.205258,122.661419 L541.347326,134.310479 L549.802576,143.828618 L557.136034,157.214596 C557.136034,157.214596 561.751532,173.427506 564.196397,176.203589 C566.641262,178.979782 576.558423,182.944089 599.649308,208.325586 C622.740192,233.707083 629.400599,221.011877 640.26953,222.000817 C651.138558,222.989868 679.66398,248.766829 690.397339,248.565749 C701.130697,248.364779 702.082032,247.174603 708.602607,250.743057 C715.123375,254.311511 723.407563,268.589796 731.96667,270.174329 C740.525778,271.758972 749.086579,266.401745 758.86778,271.159454 C768.648884,275.917164 785.765163,287.416495 792.420828,294.158393 C799.076589,300.90018 825.702101,316.958945 837.522076,318.344447 L849.342052,319.72995 L849.322213,401.048192 L12.5358473,401.253047 C12.5358473,401.253047 14.2163222,145.001032 12.5921144,145.00143" id="Fill-4" fill="#5C9169" transform="translate(430.938949, 215.059985) rotate(-4.000000) translate(-430.938949, -215.059985) "></path>
                            <path d="M524.997952,124.381002 C524.997952,124.381002 537.756848,132.898583 545.3568,142.606394 C552.956753,152.314094 557.298272,163.013508 557.569248,165.193103 C557.840224,167.372808 555.937492,176.290301 550.643085,176.291597 C545.348582,176.292893 539.6473,174.312678 532.725392,167.577117 C525.803581,160.841446 522.81675,161.832983 523.494989,163.616266 C524.173324,165.399439 541.138661,182.238535 540.185482,194.128101 C539.232303,206.017777 535.123738,213.945004 535.936618,221.078383 C536.749402,228.211872 540.310093,239.803091 532.772723,251.99151 C525.235258,264.17993 521.26125,277.407822 507.719738,277.113896 C494.178226,276.819969 494.79005,272.807168 487.76426,274.443607 C480.738566,276.080156 460.471236,299.764702 449.474871,300.163716 C438.478602,300.56273 428.705908,293.629706 414.178488,300.370518 C399.650971,307.11144 388.246667,310.284699 385.528782,321.778485 C382.810898,333.272161 409.140119,363.385313 411.443104,383.200414 C413.746088,403.015404 413.610237,403.41176 413.610237,403.41176 L265.365206,403.448052 C265.365206,403.448052 280.032247,381.250975 289.808374,374.115004 C299.5845,366.979033 305.968806,351.521238 310.046455,330.912042 C314.124199,310.302845 324.452817,264.328164 334.09522,248.869572 C343.737719,233.41109 358.946713,215.176991 362.477381,211.213016 C366.007952,207.249041 408.781394,164.436884 419.917768,146.203892 C431.054141,127.970789 428.341961,116.478443 434.316637,109.937775 C440.291506,103.397218 445.316386,96.0642498 441.244056,94.4799583 C437.171725,92.8956667 433.773427,111.126875 431.467059,105.182718 C429.160595,99.2386715 431.33261,99.832623 431.334109,93.6897401 C431.335607,87.5469676 427.263954,83.1884211 428.759424,74.2711383 C430.25499,65.3537452 435.278711,61.9838877 434.737386,55.0484935 C434.195966,48.1132096 433.654787,40.9797647 433.790927,39.3944429 C433.927068,37.8091211 437.862822,42.7620737 444.650572,42.5622509 C451.438418,42.3624281 458.227521,37.0105277 465.149719,42.1609103 C472.072014,47.3112928 477.226315,65.540407 474.645055,73.4672607 C472.063699,81.3941143 466.358887,94.2756487 463.776274,107.35458 C461.193757,120.433511 451.008338,135.892126 449.784474,144.016808 C448.560801,152.14149 402.255001,205.85315 417.592256,218.729533 C432.929511,231.605805 457.369295,215.747379 471.355536,201.873122 C485.341681,187.998755 509.103661,168.969917 515.081334,150.936349 C521.05891,132.902671 524.997952,124.381002 524.997952,124.381002" id="Fill-6" fill="#AFC793" transform="translate(411.479751, 221.264495) rotate(-4.000000) translate(-411.479751, -221.264495) "></path>
                            <path d="M421.683896,32.9902503 C421.683896,32.9902503 415.3372,40.7076471 408.04756,39.720303 C400.757921,38.7328487 392.118659,36.3607904 384.692479,41.7043882 C377.266299,47.0479861 367.003271,60.3059691 359.170462,72.3762706 C351.337653,84.4465721 336.2125,107.004371 336.212018,108.982738 C336.211535,110.961106 346.474369,98.4945142 349.173083,103.439938 C351.871797,108.385361 349.844926,116.299548 346.468722,121.642155 C343.092423,126.984761 334.314303,140.440228 331.611825,150.926492 C328.909251,161.412865 326.070473,177.240942 327.553884,183.571487 C329.037296,189.902142 314.445756,238.575056 316.064985,241.542266 C317.684213,244.509476 332.142252,190.09923 337.948576,184.360333 C343.754805,178.621547 354.693005,164.967703 358.744768,157.250868 C362.796531,149.533923 370.362003,126.582389 375.085077,134.297076 C379.808055,142.011763 381.023019,142.407161 374.946654,148.343972 C368.870289,154.280672 367.654408,158.039968 370.489083,159.028512 C373.323854,160.017057 388.852256,144.977265 393.310359,131.720703 C397.768461,118.464141 398.714446,114.704912 402.360208,111.14276 C406.006065,107.580717 413.297683,100.456633 411.814368,93.7302816 C410.330957,87.0040406 406.145356,89.9726718 404.659822,91.9515133 C403.174383,93.9303547 402.225936,108.175186 398.581863,104.812776 C394.937696,101.450366 391.970148,91.7567721 396.563005,79.8851116 C401.155766,68.0134511 410.201511,64.6479345 413.713386,56.5355363 C413.713386,56.5355363 424.38297,36.8475111 423.640975,34.6714773 C422.899076,32.4953334 421.683896,32.9902503 421.683896,32.9902503" id="Fill-8" fill="#AFC793" transform="translate(369.808641, 137.300563) rotate(-4.000000) translate(-369.808641, -137.300563) "></path>
                            <path d="M324.262576,105.669175 C324.262576,105.669175 304.445717,124.355467 293.723383,132.108865 C283.001145,139.862263 279.741984,149.601268 274.993331,145.826416 C270.244774,142.051564 270.381152,139.269122 267.395233,141.058544 C264.40941,142.847855 256.261921,165.108562 243.913279,164.714098 C231.56454,164.319634 234.009552,154.779683 230.074125,154.979279 C226.138795,155.178986 213.651011,168.497522 210.121518,173.864348 C206.591929,179.231174 209.848568,180.223983 204.692284,178.635409 C199.535999,177.046724 198.85818,174.662079 189.628878,181.024018 C180.399673,187.385846 178.769438,194.938275 173.069241,197.920711 C167.369139,200.903258 156.784493,200.508363 159.08983,207.264854 C161.395071,214.021345 170.485425,220.577543 176.729196,214.415189 C182.97287,208.252724 186.368796,194.538927 190.847506,191.954277 C195.326312,189.369516 196.820605,182.810838 201.57018,182.809675 C206.319658,182.808512 205.911251,188.174574 210.25426,185.987333 C214.597174,183.800203 218.805211,178.631954 222.332231,183.400822 C225.859252,188.169691 221.243243,197.312798 223.2782,199.498367 C225.313253,201.683936 232.643977,189.559234 233.052917,182.40448 C233.461665,175.249727 231.69927,168.29447 237.670138,168.293008 C243.640911,168.291547 255.310086,173.058311 258.974164,172.262551 C262.638337,171.466569 265.217692,167.093804 268.202884,167.887936 C271.188173,168.682179 271.728497,178.817741 279.32771,179.014624 C286.926923,179.211507 289.646632,155.759668 296.023726,159.335378 C302.400724,162.911088 288.55551,178.416134 290.725633,182.787848 C292.895757,187.159562 294.660964,182.588141 295.203469,184.177956 C295.745879,185.76766 288.82366,191.731547 289.635141,202.860649 C290.446622,213.989751 290.038991,216.176029 287.59456,223.728656 C285.150032,231.281284 290.169066,239.229682 289.760368,245.788095 C289.35167,252.346618 279.985068,265.664389 282.561175,274.606992 C285.137281,283.549484 292.469071,267.449913 293.285448,258.903967 C294.101729,250.35802 292.069585,236.248066 294.514257,228.099207 C296.958834,219.950349 300.217122,213.788726 300.762489,203.255412 C301.307857,192.722097 296.423552,189.146022 300.496036,182.984199 C304.568617,176.822266 307.691496,169.468216 310.407616,161.120548 C313.12364,152.77288 315.837773,152.175985 316.925647,142.834998 C318.013521,133.494122 317.336624,126.935865 319.237821,121.171951 C321.139019,115.408147 325.618928,110.190145 325.618928,108.302083 C325.618928,106.414131 324.262576,105.669175 324.262576,105.669175" id="Fill-10" fill="#AFC793" transform="translate(242.192737, 191.449760) rotate(-4.000000) translate(-242.192737, -191.449760) "></path>
                            <path d="M169.885013,258.949657 C169.885013,258.949657 161.362564,263.716597 151.756653,274.241357 C142.150743,284.766006 134.032902,294.297701 116.581942,305.022811 C99.1309809,315.748031 85.7388928,321.707294 87.898452,340.369099 C90.0581069,359.030905 95.602627,363.19867 97.3628559,355.852474 C99.1229891,348.506277 90.740737,333.022638 100.616096,326.865586 C110.491454,320.708644 112.114441,321.105216 114.54834,324.479803 C116.982143,327.85428 118.465949,344.332309 113.73055,350.091023 C108.995054,355.849626 103.718531,361.608472 101.416304,373.322574 C99.114077,385.036677 102.898754,395.359618 106.145018,395.358823 C109.391186,395.358029 109.934588,385.629648 110.613585,374.511564 C111.292583,363.393369 113.728758,357.436788 118.056982,357.435729 C122.385206,357.434669 127.65863,364.382063 127.386517,370.933734 C127.114405,377.485516 118.861355,386.818704 118.995014,393.370276 C119.128673,399.921958 120.752047,398.73032 120.480226,404.09086 C120.208404,409.451401 116.149967,412.430387 114.119902,416.997197 C112.089933,421.564007 111.954434,422.556741 111.954434,422.556741 L132.243272,422.551775 C132.243272,422.551775 134.273629,416.396643 134.140648,407.065508 C134.007667,397.734484 130.221054,394.955849 132.388265,382.646159 C134.55538,370.336469 137.533843,358.820631 136.859544,350.68087 C136.185245,342.541109 131.585828,345.321798 128.474482,346.712341 C125.363232,348.102773 120.628173,352.074625 122.119437,338.37532 C123.610607,324.676014 123.476949,317.727362 130.37646,312.365199 C137.275971,307.003146 137.411034,307.797274 140.929362,301.443237 C144.447594,295.089201 144.989203,292.706697 154.459081,285.358613 C163.928959,278.01053 168.461965,270.829031 169.251449,268.644896 C170.040933,266.460871 171.71007,262.88685 171.530204,260.934545 C171.350337,258.982351 169.885013,258.949657 169.885013,258.949657" id="Fill-14" fill="#94AD76" transform="translate(129.606597, 340.753199) rotate(-4.000000) translate(-129.606597, -340.753199) "></path>
                            <path d="M259.928149,200.891046 C259.928149,200.891046 243.420957,232.381147 238.054322,236.489451 C232.687593,240.597647 227.187104,243.141308 226.245781,252.724299 C225.304457,262.307182 222.216595,272.672983 227.984697,272.867142 C233.752799,273.061301 236.70781,257.024082 240.063143,249.982923 C243.418381,242.941763 243.68671,242.746127 244.894216,241.767976 C246.101722,240.789934 240.732034,257.414348 248.110494,254.870119 C255.488954,252.325998 250.796316,242.548815 252.40863,231.792342 C254.020944,221.03576 258.852493,211.256354 259.926622,207.149209 C261.00075,203.041955 262.029434,201.933613 261.537854,200.825425 C261.046275,199.717346 259.928149,200.891046 259.928149,200.891046" id="Fill-16" fill="#94AD76" transform="translate(243.119601, 236.609145) rotate(-4.000000) translate(-243.119601, -236.609145) "></path>
                        </g>
                    </g>
                </g>
                <g id="Group-47" transform="translate(41.000000, 22.000000)" fill="#F9B931">
                    <ellipse id="Oval" opacity="0.373000372" cx="49.5" cy="49" rx="35.5" ry="35"></ellipse>
                    <ellipse id="Oval" opacity="0.168736049" cx="49" cy="48.5" rx="49" ry="48.5"></ellipse>
                    <ellipse id="Oval" opacity="0.829613095" cx="48" cy="47.5" rx="25" ry="24.5"></ellipse>
                </g>
                <text id="E.S.B" font-family="MicrosoftJhengHeiBold, Microsoft JhengHei" font-size="40" font-weight="bold" letter-spacing="2.12765957" fill="#FFFFFF">
                    <tspan x="225" y="195">E.S.B</tspan>
                </text>
            </g>
        </g>
    </g>
</svg>