<?xml version="1.0" encoding="UTF-8"?>
<svg width="52px" height="46px" viewBox="0 0 52 46" version="1.1" xmlns="http://www.w3.org/2000/svg" xmlns:xlink="http://www.w3.org/1999/xlink">
    <title>Group 59</title>
    <g id="視覺稿" stroke="none" stroke-width="1" fill="none" fill-rule="evenodd">
        <g id="首頁-薪資福利(單色板)" transform="translate(-782.000000, -1353.000000)">
            <g id="Group-59" transform="translate(782.000000, 1353.000000)">
                <path d="M11.2840889,44.4615571 L9.31458474,45.7775884 C8.63001736,46.2353541 7.75461995,45.963792 7.35939361,45.171436 L0.191987854,30.8016998 C-0.203238488,30.0093438 0.0313085259,28.9958484 0.715875897,28.5384429 L2.6854734,27.2224116 C3.37004077,26.7646459 4.24540707,27.036208 4.64066452,27.828564 L11.8080703,42.1983002 C12.2032344,42.9906562 11.9686251,44.0041516 11.2840889,44.4615571" id="Fill-3" fill="#FFFFFF"></path>
                <path d="M51.4116718,23.9868588 L51.4116718,23.9868588 C50.5247137,22.783976 48.9649226,22.6637237 47.9499815,23.7197908 L43.2979891,28.5607568 C42.8405119,29.0367409 42.3027378,29.3957032 41.7194313,29.6146702 L34.6797586,32.2551971 C33.2802537,32.7800001 31.7733786,32.7685133 30.379719,32.2225316 L24.3574486,29.8619953 C24.3153004,29.845842 24.3254528,29.7733316 24.3697546,29.7729726 L27.5028735,29.7683061 C28.8931489,29.7683061 30.0203825,28.4534271 30.0203825,26.8312763 L30.0203825,26.8309174 C30.0203825,25.2087666 28.8931489,23.8938876 27.5028735,23.8938876 L12.7128541,23.8938876 C11.4296413,23.8938876 10.1665489,24.2675673 9.03845381,24.9815434 L6.65606515,26.5135947 C6.03420997,26.9134787 5.81507008,27.8313454 6.17009946,28.5489111 L7.82689298,31.8969527 L7.82781593,31.8969527 L12.0880147,40.5030746 C12.4267385,41.1868979 13.1660242,41.4399663 13.7674821,41.0777733 L14.6504408,40.5457912 C15.6263101,39.9581698 16.7350847,39.7406386 17.822016,39.9233505 L29.669045,41.9177452 C30.8941117,42.1237896 32.1440981,41.9410777 33.2876373,41.3882757 L41.9172509,37.2174924 C42.3719593,36.9978075 42.791903,36.6901768 43.1592385,36.3078819 L51.1867789,27.9541105 C52.1764925,26.9246065 52.2764791,25.1595887 51.4116718,23.9868588" id="Fill-4" fill="#FFFFFF"></path>
                <path d="M50,12.5001575 C50,19.4037659 44.1799247,25 37.000182,25 C29.8204392,25 24,19.4037659 24,12.5001575 C24,5.59647905 29.8204392,0 37.000182,0 C44.1799247,0 50,5.59647905 50,12.5001575" id="Fill-5" fill="#FFFFFF"></path>
                <path d="M34,14.7702703 L34,15.7027027 C34,16.7321081 34.838518,17.5675676 35.8489459,17.5675676 L37.6777748,17.5675676 C38.6872883,17.5675676 39.4864865,16.7321081 39.4864865,15.7027027 L39.4864865,15.181473 C39.4864865,14.3795811 38.9927027,13.6662703 38.2465405,13.4126486 L35.255491,12.3981622 C34.5084144,12.1445405 34,11.4312297 34,10.6293378 L34,10.1081081 C34,9.0787027 34.838518,8.24324324 35.8489459,8.24324324 L37.6777748,8.24324324 C38.6872883,8.24324324 39.4864865,9.0787027 39.4864865,10.1081081 L39.4864865,11.0405405" id="Stroke-1" stroke="#439FB7" stroke-width="3"></path>
                <line x1="36.7432432" y1="7.83783784" x2="36.7432432" y2="5" id="Stroke-3" stroke="#2B93AE" stroke-width="3"></line>
                <line x1="36.7432432" y1="17.5675676" x2="36.7432432" y2="20.4054054" id="Stroke-5" stroke="#439FB7" stroke-width="3"></line>
            </g>
        </g>
    </g>
</svg>