<?xml version="1.0" encoding="UTF-8"?>
<svg width="177px" height="414px" viewBox="0 0 177 414" version="1.1" xmlns="http://www.w3.org/2000/svg" xmlns:xlink="http://www.w3.org/1999/xlink">
    <title>Group 3</title>
    <defs>
        <polygon id="path-1" points="0 0 177 0 177 414 0 414"></polygon>
        <linearGradient x1="50%" y1="0%" x2="50%" y2="100%" id="linearGradient-3">
            <stop stop-color="#BEDBCE" stop-opacity="0" offset="0%"></stop>
            <stop stop-color="#44FFF3" offset="100%"></stop>
        </linearGradient>
    </defs>
    <g id="視覺稿" stroke="none" stroke-width="1" fill="none" fill-rule="evenodd" opacity="0.499790737">
        <g id="Artboard-Copy-4" transform="translate(-1065.000000, -2865.000000)">
            <g id="Group-3" transform="translate(1153.500000, 3072.000000) scale(-1, -1) translate(-1153.500000, -3072.000000) translate(1065.000000, 2865.000000)">
                <mask id="mask-2" fill="white">
                    <use xlink:href="#path-1"></use>
                </mask>
                <g id="Clip-2"></g>
                <path d="M80.4932272,7.42883298 C78.786485,7.42883298 77.391291,5.9830474 77.391291,4.21441649 C77.391291,2.44578558 78.786485,1 80.4932272,1 C82.213515,1 83.5951634,2.44578558 83.5951634,4.21441649 C83.5951634,5.9830474 82.1999694,7.42883298 80.4932272,7.42883298 L80.4932272,7.42883298 Z M52.0204332,7.42883298 C51.2076988,7.42883298 50.4220556,7.10598766 49.8260504,6.48837052 C49.2435907,5.88479013 48.918497,5.07065844 48.918497,4.21441649 C48.918497,2.44578558 50.313691,1 52.0204332,1 C53.7271753,1 55.1359149,2.44578558 55.1359149,4.21441649 C55.1359149,5.9830474 53.7271753,7.42883298 52.0204332,7.42883298 L52.0204332,7.42883298 Z M23.5611847,7.42883298 C21.8544425,7.42883298 20.4592485,5.9830474 20.4457029,4.21441649 C20.4457029,2.44578558 21.8544425,1 23.5611847,1 C25.2679268,1 26.6631208,2.44578558 26.6631208,4.21441649 C26.6631208,5.9830474 25.2679268,7.42883298 23.5611847,7.42883298 L23.5611847,7.42883298 Z M108.966021,7.42883298 C107.259279,7.42883298 105.85054,5.9830474 105.85054,4.21441649 C105.85054,3.35817454 106.175633,2.54404286 106.758093,1.94046247 C107.340553,1.33688208 108.126196,1 108.966021,1 C109.792301,1 110.577944,1.33688208 111.160404,1.94046247 C111.742864,2.54404286 112.067957,3.35817454 112.067957,4.21441649 C112.067957,5.9830474 110.672763,7.42883298 108.966021,7.42883298 L108.966021,7.42883298 Z M165.898064,7.42883298 C164.191322,7.42883298 162.782582,5.9830474 162.782582,4.21441649 C162.782582,2.44578558 164.191322,1 165.898064,1 C167.604806,1 169,2.44578558 169,4.21441649 C169,5.07065844 168.674906,5.88479013 168.092447,6.48837052 C167.509987,7.10598766 166.724344,7.42883298 165.898064,7.42883298 L165.898064,7.42883298 Z M-4.9116094,7.42883298 C-6.61835157,7.42883298 -8,5.9830474 -8,4.21441649 C-8,2.44578558 -6.61835157,1 -4.9116094,1 C-3.20486722,1 -1.79612765,2.44578558 -1.79612765,4.21441649 C-1.79612765,5.07065844 -2.13476697,5.88479013 -2.7172266,6.48837052 C-3.29968623,7.10598766 -4.07178388,7.42883298 -4.9116094,7.42883298 L-4.9116094,7.42883298 Z M137.42527,7.42883298 C135.718528,7.42883298 134.323334,5.9830474 134.323334,4.21441649 C134.323334,2.44578558 135.718528,1 137.42527,1 C139.132012,1 140.540752,2.44578558 140.540752,4.21441649 C140.540752,5.9830474 139.132012,7.42883298 137.42527,7.42883298 L137.42527,7.42883298 Z M-4.9116094,41.3977758 C-6.61835157,41.3977758 -8,39.9519902 -8,38.1833593 C-8,36.4006917 -6.61835157,34.9549061 -4.9116094,34.9549061 C-4.07178388,34.9549061 -3.29968623,35.2917882 -2.7172266,35.9094053 C-2.13476697,36.5129857 -1.79612765,37.3130806 -1.79612765,38.1833593 C-1.79612765,39.0396013 -2.13476697,39.853733 -2.7172266,40.4573134 C-3.29968623,41.0608937 -4.07178388,41.3977758 -4.9116094,41.3977758 L-4.9116094,41.3977758 Z M23.5611847,41.3977758 C22.7349047,41.3977758 21.9628071,41.0608937 21.3668019,40.4573134 C20.7843422,39.853733 20.4457029,39.0396013 20.4592485,38.1833593 C20.4457029,37.3130806 20.7843422,36.5129857 21.3668019,35.9094053 C21.9628071,35.2917882 22.7349047,34.9549061 23.5611847,34.9549061 C25.2814724,34.9549061 26.6631208,36.4006917 26.6631208,38.1833593 C26.6631208,39.9519902 25.2814724,41.3977758 23.5611847,41.3977758 L23.5611847,41.3977758 Z M137.42527,41.3977758 C135.718528,41.3977758 134.323334,39.9519902 134.323334,38.1833593 C134.323334,36.4006917 135.718528,34.9549061 137.42527,34.9549061 C139.132012,34.9549061 140.540752,36.4006917 140.540752,38.1833593 C140.540752,39.9519902 139.132012,41.3977758 137.42527,41.3977758 L137.42527,41.3977758 Z M165.898064,41.3977758 C164.191322,41.3977758 162.782582,39.9519902 162.782582,38.1833593 C162.782582,36.4006917 164.191322,34.9549061 165.898064,34.9549061 C167.618352,34.9549061 169,36.4006917 169,38.1833593 C169,39.9519902 167.604806,41.3977758 165.898064,41.3977758 L165.898064,41.3977758 Z M52.0204332,41.3977758 C51.1941532,41.3977758 50.4220556,41.0608937 49.8260504,40.4573134 C49.2435907,39.853733 48.918497,39.0396013 48.918497,38.1833593 C48.918497,37.3130806 49.2435907,36.5129857 49.8260504,35.9094053 C50.40851,35.2917882 51.1941532,34.9549061 52.0204332,34.9549061 C53.7407209,34.9549061 55.1359149,36.4006917 55.1359149,38.1833593 C55.1359149,39.9519902 53.7407209,41.3977758 52.0204332,41.3977758 L52.0204332,41.3977758 Z M80.4932272,41.3977758 C78.786485,41.3977758 77.391291,39.9519902 77.391291,38.1833593 C77.391291,36.4006917 78.786485,34.9549061 80.4932272,34.9549061 C82.1999694,34.9549061 83.5951634,36.4006917 83.5951634,38.1833593 C83.5951634,39.9519902 82.213515,41.3977758 80.4932272,41.3977758 L80.4932272,41.3977758 Z M108.966021,41.3977758 C107.259279,41.3977758 105.85054,39.9519902 105.85054,38.1833593 C105.85054,37.3130806 106.175633,36.5129857 106.758093,35.9094053 C107.354098,35.2917882 108.126196,34.9549061 108.966021,34.9549061 C110.686309,34.9549061 112.067957,36.4006917 112.067957,38.1833593 C112.067957,39.0396013 111.742864,39.853733 111.160404,40.4573134 C110.577944,41.0608937 109.792301,41.3977758 108.966021,41.3977758 L108.966021,41.3977758 Z M52.0204332,75.3526819 C51.1941532,75.3526819 50.4220556,75.0298366 49.8260504,74.4122194 C49.2435907,73.808639 48.918497,72.9945074 48.918497,72.1382654 C48.918497,70.3696345 50.313691,68.9238489 52.0204332,68.9238489 C53.7407209,68.9238489 55.1359149,70.3696345 55.1359149,72.1382654 C55.1359149,72.9945074 54.8108212,73.808639 54.2283615,74.4122194 C53.6459019,75.0298366 52.8602587,75.3526819 52.0204332,75.3526819 L52.0204332,75.3526819 Z M80.4932272,75.3526819 C78.786485,75.3526819 77.391291,73.9209331 77.391291,72.1382654 C77.391291,70.3696345 78.786485,68.9238489 80.4932272,68.9238489 C82.213515,68.9238489 83.5951634,70.3696345 83.5951634,72.1382654 C83.5951634,72.9945074 83.2700696,73.808639 82.68761,74.4122194 C82.1051504,75.0298366 81.3330527,75.3526819 80.4932272,75.3526819 L80.4932272,75.3526819 Z M165.898064,75.3526819 C164.191322,75.3526819 162.782582,73.9209331 162.782582,72.1382654 C162.782582,70.3696345 164.191322,68.9238489 165.898064,68.9238489 C166.724344,68.9238489 167.509987,69.260731 168.092447,69.8643114 C168.674906,70.4819285 169,71.2820235 169,72.1382654 C169,72.9945074 168.674906,73.808639 168.092447,74.4122194 C167.509987,75.0298366 166.724344,75.3526819 165.898064,75.3526819 L165.898064,75.3526819 Z M-4.9116094,75.3526819 C-6.61835157,75.3526819 -8,73.9209331 -8,72.1382654 C-8,70.3696345 -6.61835157,68.9238489 -4.9116094,68.9238489 C-3.20486722,68.9238489 -1.79612765,70.3696345 -1.79612765,72.1382654 C-1.79612765,73.9209331 -3.19132165,75.3526819 -4.9116094,75.3526819 L-4.9116094,75.3526819 Z M23.5611847,75.3526819 C21.8544425,75.3526819 20.4457029,73.9209331 20.4457029,72.1382654 C20.4457029,70.3696345 21.8544425,68.9238489 23.5611847,68.9238489 C25.2679268,68.9238489 26.6631208,70.3696345 26.6631208,72.1382654 C26.6631208,73.9209331 25.2814724,75.3526819 23.5611847,75.3526819 L23.5611847,75.3526819 Z M108.966021,75.3526819 C107.259279,75.3526819 105.85054,73.9209331 105.85054,72.1382654 C105.85054,70.3696345 107.259279,68.9238489 108.966021,68.9238489 C110.672763,68.9238489 112.067957,70.3696345 112.067957,72.1382654 C112.067957,73.9209331 110.672763,75.3526819 108.966021,75.3526819 L108.966021,75.3526819 Z M137.42527,75.3526819 C136.59899,75.3526819 135.813347,75.0298366 135.230887,74.4122194 C134.648427,73.808639 134.323334,72.9945074 134.323334,72.1382654 C134.323334,71.2820235 134.648427,70.4819285 135.230887,69.8643114 C135.813347,69.260731 136.59899,68.9238489 137.42527,68.9238489 C138.265095,68.9238489 139.037193,69.260731 139.619653,69.8643114 C140.202112,70.4819285 140.540752,71.2820235 140.540752,72.1382654 C140.540752,73.9209331 139.132012,75.3526819 137.42527,75.3526819 L137.42527,75.3526819 Z M-4.9116094,109.335661 C-5.73788934,109.335661 -6.50998699,108.984743 -7.10599219,108.381162 C-7.68845183,107.763545 -8,106.977487 -8,106.107208 C-8,105.250966 -7.68845183,104.450871 -7.10599219,103.833254 C-6.50998699,103.229674 -5.73788934,102.892792 -4.9116094,102.892792 C-3.20486722,102.892792 -1.79612765,104.338577 -1.79612765,106.107208 C-1.79612765,107.875839 -3.20486722,109.335661 -4.9116094,109.335661 L-4.9116094,109.335661 Z M23.5611847,109.335661 C22.7213591,109.335661 21.9628071,108.984743 21.3668019,108.381162 C20.7843422,107.763545 20.4457029,106.977487 20.4592485,106.107208 C20.4457029,105.250966 20.7843422,104.450871 21.3668019,103.833254 C21.9628071,103.229674 22.7349047,102.892792 23.5611847,102.892792 C24.3874646,102.892792 25.1731078,103.229674 25.7555675,103.833254 C26.3380271,104.450871 26.6631208,105.250966 26.6631208,106.107208 C26.6631208,106.977487 26.3380271,107.763545 25.7555675,108.381162 C25.1731078,108.984743 24.3874646,109.335661 23.5611847,109.335661 L23.5611847,109.335661 Z M52.0204332,108.198684 L52.0204332,109.335661 C51.1941532,109.335661 50.40851,108.984743 49.8260504,108.381162 C49.2435907,107.763545 48.918497,106.977487 48.918497,106.107208 C48.918497,105.250966 49.2435907,104.450871 49.8260504,103.833254 C50.40851,103.229674 51.1941532,102.892792 52.0204332,102.892792 C52.8602587,102.892792 53.6459019,103.229674 54.2283615,103.833254 C54.8108212,104.450871 55.1359149,105.250966 55.1359149,106.107208 C55.1359149,106.977487 54.8108212,107.763545 54.2283615,108.381162 C53.6459019,108.984743 52.8602587,109.335661 52.0204332,109.335661 L52.0204332,108.198684 Z M80.4932272,109.335661 C78.786485,109.321625 77.391291,107.875839 77.391291,106.107208 C77.391291,104.338577 78.786485,102.892792 80.4932272,102.892792 C82.213515,102.892792 83.5951634,104.338577 83.5951634,106.107208 C83.5951634,106.977487 83.2700696,107.763545 82.68761,108.381162 C82.1051504,108.984743 81.3330527,109.335661 80.4932272,109.335661 L80.4932272,109.335661 Z M108.966021,108.198684 L108.966021,109.335661 C107.259279,109.335661 105.85054,107.875839 105.85054,106.107208 C105.85054,104.338577 107.259279,102.892792 108.966021,102.892792 C110.672763,102.892792 112.067957,104.338577 112.067957,106.107208 C112.067957,106.977487 111.742864,107.763545 111.160404,108.381162 C110.577944,108.984743 109.792301,109.335661 108.966021,109.335661 L108.966021,108.198684 Z M165.898064,108.198684 L165.898064,109.335661 C164.191322,109.335661 162.782582,107.875839 162.782582,106.107208 C162.782582,104.338577 164.191322,102.892792 165.898064,102.892792 C166.724344,102.892792 167.509987,103.229674 168.092447,103.833254 C168.674906,104.450871 169,105.250966 169,106.107208 C169,106.977487 168.674906,107.777582 168.092447,108.381162 C167.509987,108.984743 166.724344,109.335661 165.898064,109.335661 L165.898064,108.198684 Z M137.42527,109.335661 C135.718528,109.321625 134.323334,107.875839 134.323334,106.107208 C134.323334,104.338577 135.718528,102.892792 137.42527,102.892792 C139.132012,102.892792 140.540752,104.338577 140.540752,106.107208 C140.540752,107.875839 139.145558,109.335661 137.42527,109.335661 L137.42527,109.335661 Z M80.4932272,143.290568 C78.786485,143.290568 77.391291,141.844782 77.391291,140.076151 C77.391291,138.293483 78.786485,136.861735 80.4932272,136.861735 C82.213515,136.861735 83.5951634,138.293483 83.5951634,140.076151 C83.5951634,141.844782 82.1999694,143.290568 80.4932272,143.290568 L80.4932272,143.290568 Z M165.898064,143.290568 C164.191322,143.290568 162.782582,141.844782 162.782582,140.076151 C162.782582,138.293483 164.191322,136.861735 165.898064,136.861735 C167.604806,136.861735 169,138.293483 169,140.076151 C169,140.94643 168.674906,141.732488 168.092447,142.350105 C167.509987,142.953685 166.724344,143.290568 165.898064,143.290568 L165.898064,143.290568 Z M-4.9116094,143.304604 C-6.61835157,143.290568 -8,141.844782 -8,140.076151 C-8,138.293483 -6.61835157,136.861735 -4.9116094,136.861735 C-3.20486722,136.861735 -1.79612765,138.293483 -1.79612765,140.076151 C-1.79612765,141.844782 -3.19132165,143.304604 -4.9116094,143.304604 L-4.9116094,143.304604 Z M23.5611847,143.304604 C21.8544425,143.304604 20.4457029,141.844782 20.4457029,140.076151 C20.4592485,138.293483 21.8544425,136.861735 23.5611847,136.861735 C25.2679268,136.861735 26.6631208,138.293483 26.6631208,140.076151 C26.6631208,141.844782 25.2679268,143.290568 23.5611847,143.304604 L23.5611847,143.304604 Z M108.966021,143.304604 C107.259279,143.304604 105.85054,141.844782 105.85054,140.076151 C105.85054,138.293483 107.259279,136.861735 108.966021,136.861735 C110.686309,136.861735 112.067957,138.293483 112.067957,140.076151 C112.067957,141.844782 110.672763,143.290568 108.966021,143.304604 L108.966021,143.304604 Z M137.42527,143.304604 C136.59899,143.290568 135.813347,142.953685 135.230887,142.350105 C134.648427,141.732488 134.323334,140.932393 134.323334,140.076151 C134.323334,139.219909 134.648427,138.405777 135.230887,137.802197 C135.813347,137.18458 136.59899,136.861735 137.42527,136.861735 C139.132012,136.861735 140.540752,138.293483 140.540752,140.076151 C140.540752,140.932393 140.202112,141.732488 139.619653,142.350105 C139.037193,142.953685 138.265095,143.304604 137.42527,143.304604 L137.42527,143.304604 Z M52.0204332,143.304604 C50.313691,143.290568 48.918497,141.844782 48.918497,140.076151 C48.9320425,138.293483 50.313691,136.861735 52.0204332,136.861735 C53.7407209,136.861735 55.1359149,138.293483 55.1359149,140.076151 C55.1359149,141.844782 53.7407209,143.304604 52.0204332,143.304604 L52.0204332,143.304604 Z M-4.9116094,177.25951 C-5.72434377,177.25951 -6.50998699,176.922628 -7.10599219,176.305011 C-7.68845183,175.701431 -8,174.901336 -8,174.031057 C-8,173.188852 -7.68845183,172.37472 -7.10599219,171.77114 C-6.50998699,171.153523 -5.72434377,170.830677 -4.9116094,170.830677 C-4.07178388,170.830677 -3.29968623,171.153523 -2.7172266,171.77114 C-2.13476697,172.37472 -1.79612765,173.188852 -1.79612765,174.031057 C-1.79612765,175.813725 -3.20486722,177.25951 -4.9116094,177.25951 L-4.9116094,177.25951 Z M23.5611847,177.25951 C22.7213591,177.25951 21.9492615,176.922628 21.3668019,176.305011 C20.7843422,175.701431 20.4457029,174.901336 20.4592485,174.031057 C20.4457029,173.188852 20.7843422,172.37472 21.3668019,171.77114 C21.9628071,171.153523 22.7213591,170.830677 23.5611847,170.830677 C24.3874646,170.830677 25.1731078,171.153523 25.7555675,171.77114 C26.3380271,172.37472 26.6631208,173.188852 26.6631208,174.045094 C26.6631208,174.901336 26.3380271,175.701431 25.7555675,176.305011 C25.1731078,176.922628 24.3874646,177.25951 23.5611847,177.25951 L23.5611847,177.25951 Z M80.4932272,177.25951 C78.786485,177.25951 77.391291,175.813725 77.391291,174.031057 C77.391291,173.188852 77.7163848,172.37472 78.2988444,171.77114 C78.881304,171.153523 79.6534017,170.830677 80.4932272,170.830677 C82.213515,170.830677 83.5951634,172.262426 83.5951634,174.031057 C83.5951634,175.813725 82.1999694,177.25951 80.4932272,177.25951 L80.4932272,177.25951 Z M108.966021,177.25951 C107.259279,177.25951 105.85054,175.813725 105.85054,174.031057 C105.85054,173.188852 106.175633,172.37472 106.758093,171.77114 C107.340553,171.153523 108.126196,170.830677 108.966021,170.830677 C109.792301,170.830677 110.577944,171.153523 111.160404,171.77114 C111.742864,172.37472 112.067957,173.188852 112.067957,174.031057 C112.067957,175.813725 110.672763,177.25951 108.966021,177.25951 L108.966021,177.25951 Z M137.42527,177.25951 C135.718528,177.25951 134.323334,175.813725 134.323334,174.045094 C134.323334,172.262426 135.718528,170.830677 137.42527,170.830677 C139.132012,170.830677 140.540752,172.262426 140.540752,174.031057 C140.540752,175.813725 139.132012,177.25951 137.42527,177.25951 L137.42527,177.25951 Z M165.898064,177.25951 C164.191322,177.25951 162.782582,175.813725 162.782582,174.031057 C162.782582,172.262426 164.191322,170.830677 165.898064,170.830677 C167.618352,170.830677 169,172.262426 169,174.031057 C169,175.813725 167.604806,177.25951 165.898064,177.25951 L165.898064,177.25951 Z M52.0204332,177.25951 C50.313691,177.25951 48.918497,175.813725 48.918497,174.045094 C48.9320425,172.262426 50.313691,170.830677 52.0204332,170.830677 C53.7407209,170.830677 55.1359149,172.262426 55.1359149,174.031057 C55.1359149,175.813725 53.7407209,177.25951 52.0204332,177.25951 L52.0204332,177.25951 Z M165.898064,211.228453 C164.191322,211.228453 162.782582,209.782668 162.782582,208 C162.782582,206.231369 164.191322,204.79962 165.898064,204.79962 C167.618352,204.79962 169,206.231369 169,208 C169,208.870279 168.674906,209.670374 168.092447,210.273954 C167.509987,210.877534 166.724344,211.228453 165.898064,211.228453 L165.898064,211.228453 Z M23.5611847,211.228453 C22.7213591,211.228453 21.9628071,210.877534 21.3668019,210.273954 C20.7843422,209.670374 20.4457029,208.870279 20.4457029,208 C20.4592485,206.231369 21.8544425,204.79962 23.5611847,204.79962 C25.2679268,204.79962 26.6631208,206.231369 26.6631208,208 C26.6631208,209.782668 25.2679268,211.228453 23.5611847,211.228453 L23.5611847,211.228453 Z M80.4932272,211.228453 C78.786485,211.228453 77.391291,209.782668 77.391291,208 C77.391291,206.231369 78.786485,204.79962 80.4932272,204.785584 C81.3330527,204.785584 82.1051504,205.122466 82.68761,205.726046 C83.2700696,206.343663 83.5951634,207.157795 83.5951634,208 C83.5951634,209.782668 82.1999694,211.228453 80.4932272,211.228453 L80.4932272,211.228453 Z M108.966021,211.228453 C107.259279,211.228453 105.85054,209.782668 105.85054,208 C105.85054,206.231369 107.259279,204.79962 108.966021,204.79962 C110.686309,204.79962 112.067957,206.231369 112.067957,208 C112.067957,209.782668 110.672763,211.228453 108.966021,211.228453 L108.966021,211.228453 Z M137.42527,211.228453 C136.59899,211.228453 135.813347,210.877534 135.230887,210.273954 C134.648427,209.670374 134.323334,208.870279 134.323334,208 C134.323334,207.157795 134.648427,206.343663 135.230887,205.726046 C135.813347,205.122466 136.59899,204.79962 137.42527,204.79962 C139.145558,204.79962 140.540752,206.231369 140.540752,208 C140.540752,208.870279 140.202112,209.670374 139.619653,210.273954 C139.037193,210.877534 138.265095,211.228453 137.42527,211.228453 L137.42527,211.228453 Z M-4.9116094,211.228453 C-6.61835157,211.228453 -8,209.782668 -8,208 C-8,206.231369 -6.61835157,204.79962 -4.9116094,204.785584 C-3.20486722,204.785584 -1.79612765,206.231369 -1.79612765,208 C-1.79612765,209.782668 -3.20486722,211.228453 -4.9116094,211.228453 L-4.9116094,211.228453 Z M52.0204332,211.228453 C50.313691,211.228453 48.918497,209.768631 48.918497,208 C48.9320425,206.231369 50.313691,204.79962 52.0204332,204.785584 C53.7407209,204.79962 55.1359149,206.231369 55.1359149,208 C55.1359149,209.782668 53.7407209,211.228453 52.0204332,211.228453 L52.0204332,211.228453 Z M-4.9116094,245.169323 C-6.61835157,245.169323 -8,243.737574 -8,241.968943 C-8,240.186275 -6.61835157,238.74049 -4.9116094,238.74049 C-3.19132165,238.74049 -1.79612765,240.186275 -1.79612765,241.968943 C-1.79612765,243.737574 -3.20486722,245.169323 -4.9116094,245.169323 L-4.9116094,245.169323 Z M52.0204332,245.169323 C50.313691,245.169323 48.918497,243.737574 48.918497,241.968943 C48.9320425,240.186275 50.313691,238.74049 52.0204332,238.74049 C53.7407209,238.74049 55.1359149,240.186275 55.1359149,241.968943 C55.1359149,243.737574 53.7407209,245.169323 52.0204332,245.169323 L52.0204332,245.169323 Z M80.4932272,245.169323 C78.786485,245.169323 77.391291,243.737574 77.391291,241.968943 C77.391291,241.098664 77.7163848,240.298569 78.2988444,239.694989 C78.8948496,239.091408 79.6534017,238.74049 80.4932272,238.74049 C82.1999694,238.74049 83.5951634,240.186275 83.5951634,241.968943 C83.5951634,243.737574 82.1999694,245.169323 80.4932272,245.169323 L80.4932272,245.169323 Z M23.5611847,245.169323 C22.7349047,245.169323 21.9628071,244.846477 21.3668019,244.242897 C20.7843422,243.639316 20.4457029,242.839222 20.4457029,241.968943 C20.4457029,240.200312 21.8544425,238.74049 23.5611847,238.74049 C24.3874646,238.74049 25.1731078,239.091408 25.7555675,239.694989 C26.3380271,240.298569 26.6631208,241.098664 26.6631208,241.968943 C26.6631208,242.839222 26.3380271,243.62528 25.7555675,244.242897 C25.1731078,244.846477 24.3874646,245.169323 23.5611847,245.169323 L23.5611847,245.169323 Z M165.898064,245.169323 C165.058238,245.169323 164.286141,244.846477 163.703681,244.242897 C163.121221,243.639316 162.782582,242.839222 162.782582,241.968943 C162.782582,240.186275 164.191322,238.74049 165.898064,238.74049 C166.724344,238.74049 167.509987,239.091408 168.092447,239.694989 C168.674906,240.298569 169,241.098664 169,241.968943 C169,243.737574 167.618352,245.169323 165.898064,245.169323 L165.898064,245.169323 Z M108.966021,245.183359 C107.259279,245.169323 105.85054,243.737574 105.85054,241.968943 C105.85054,240.200312 107.259279,238.74049 108.966021,238.74049 C110.672763,238.74049 112.067957,240.200312 112.067957,241.968943 C112.067957,243.737574 110.672763,245.169323 108.966021,245.183359 L108.966021,245.183359 Z M137.42527,245.183359 C135.718528,245.183359 134.323334,243.737574 134.323334,241.968943 C134.323334,240.200312 135.718528,238.74049 137.42527,238.74049 C139.132012,238.74049 140.540752,240.186275 140.540752,241.968943 C140.540752,243.737574 139.132012,245.169323 137.42527,245.183359 L137.42527,245.183359 Z M23.5611847,279.138265 C21.8544425,279.138265 20.4457029,277.706517 20.4457029,275.937886 C20.4592485,274.155218 21.8544425,272.709432 23.5611847,272.709432 C25.2679268,272.709432 26.6631208,274.155218 26.6631208,275.937886 C26.6631208,277.706517 25.2679268,279.138265 23.5611847,279.138265 L23.5611847,279.138265 Z M52.0204332,279.138265 C50.313691,279.138265 48.918497,277.706517 48.918497,275.937886 C48.9320425,274.155218 50.313691,272.709432 52.0204332,272.709432 C53.7407209,272.709432 55.1359149,274.155218 55.1359149,275.937886 C55.1359149,276.780091 54.8108212,277.594223 54.2283615,278.21184 C53.6459019,278.81542 52.8602587,279.138265 52.0204332,279.138265 L52.0204332,279.138265 Z M80.4932272,279.138265 C78.786485,279.138265 77.391291,277.706517 77.391291,275.937886 C77.391291,274.155218 78.786485,272.709432 80.4932272,272.709432 C82.1999694,272.709432 83.5951634,274.155218 83.5951634,275.937886 C83.5951634,276.780091 83.2700696,277.594223 82.68761,278.21184 C82.1051504,278.81542 81.3330527,279.138265 80.4932272,279.138265 L80.4932272,279.138265 Z M108.966021,279.138265 C107.259279,279.138265 105.85054,277.706517 105.85054,275.937886 C105.85054,274.155218 107.259279,272.709432 108.966021,272.709432 C109.792301,272.709432 110.577944,273.046315 111.160404,273.663932 C111.742864,274.267512 112.067957,275.067607 112.067957,275.937886 C112.067957,277.706517 110.672763,279.138265 108.966021,279.138265 L108.966021,279.138265 Z M137.42527,279.138265 C136.59899,279.138265 135.813347,278.81542 135.230887,278.197803 C134.648427,277.594223 134.323334,276.780091 134.323334,275.937886 C134.323334,275.067607 134.648427,274.267512 135.230887,273.663932 C135.813347,273.046315 136.59899,272.709432 137.42527,272.709432 C138.265095,272.709432 139.037193,273.046315 139.619653,273.663932 C140.215658,274.267512 140.540752,275.067607 140.540752,275.937886 C140.540752,276.780091 140.202112,277.594223 139.619653,278.21184 C139.037193,278.81542 138.265095,279.138265 137.42527,279.138265 L137.42527,279.138265 Z M-4.9116094,279.138265 C-6.61835157,279.138265 -8,277.706517 -8,275.937886 C-8,274.155218 -6.61835157,272.709432 -4.9116094,272.709432 C-4.07178388,272.709432 -3.29968623,273.046315 -2.7172266,273.663932 C-2.13476697,274.267512 -1.79612765,275.067607 -1.79612765,275.937886 C-1.79612765,277.706517 -3.20486722,279.138265 -4.9116094,279.138265 L-4.9116094,279.138265 Z M165.898064,279.138265 C164.191322,279.138265 162.782582,277.706517 162.782582,275.937886 C162.782582,274.155218 164.191322,272.709432 165.898064,272.709432 C166.724344,272.709432 167.509987,273.046315 168.092447,273.663932 C168.674906,274.267512 169,275.067607 169,275.937886 C169,277.706517 167.604806,279.138265 165.898064,279.138265 L165.898064,279.138265 Z M-4.9116094,313.107208 C-5.73788934,313.107208 -6.50998699,312.784363 -7.10599219,312.166746 C-7.68845183,311.563165 -8,310.749034 -8,309.892792 C-8,309.03655 -7.68845183,308.236455 -7.10599219,307.618838 C-6.50998699,307.015257 -5.72434377,306.678375 -4.9116094,306.678375 C-3.19132165,306.678375 -1.79612765,308.124161 -1.79612765,309.892792 C-1.79612765,311.675459 -3.20486722,313.107208 -4.9116094,313.107208 L-4.9116094,313.107208 Z M23.5611847,313.107208 C21.8544425,313.107208 20.4457029,311.675459 20.4457029,309.892792 C20.4457029,309.03655 20.7843422,308.236455 21.3668019,307.618838 C21.9628071,307.015257 22.7349047,306.678375 23.5611847,306.678375 C24.3874646,306.678375 25.1731078,307.015257 25.7555675,307.618838 C26.3380271,308.236455 26.6631208,309.03655 26.6631208,309.892792 C26.6631208,310.749034 26.3380271,311.563165 25.7555675,312.166746 C25.1731078,312.784363 24.3874646,313.107208 23.5611847,313.107208 L23.5611847,313.107208 Z M80.4932272,313.107208 C79.6534017,313.107208 78.8948496,312.784363 78.2988444,312.166746 C77.7163848,311.563165 77.391291,310.749034 77.391291,309.892792 C77.391291,309.03655 77.7163848,308.236455 78.2988444,307.618838 C78.8948496,307.015257 79.6534017,306.678375 80.4932272,306.678375 C81.3330527,306.678375 82.1051504,307.015257 82.68761,307.618838 C83.2700696,308.236455 83.5951634,309.03655 83.5951634,309.892792 C83.5951634,311.675459 82.213515,313.107208 80.4932272,313.107208 L80.4932272,313.107208 Z M108.966021,313.107208 C107.259279,313.107208 105.85054,311.675459 105.85054,309.892792 C105.85054,308.124161 107.259279,306.678375 108.966021,306.678375 C110.672763,306.678375 112.067957,308.124161 112.067957,309.892792 C112.067957,311.675459 110.672763,313.107208 108.966021,313.107208 L108.966021,313.107208 Z M137.42527,313.107208 C135.718528,313.107208 134.323334,311.675459 134.323334,309.892792 C134.323334,308.124161 135.718528,306.678375 137.42527,306.678375 C139.132012,306.678375 140.540752,308.124161 140.540752,309.892792 C140.540752,311.675459 139.132012,313.107208 137.42527,313.107208 L137.42527,313.107208 Z M165.898064,313.107208 C164.191322,313.107208 162.782582,311.675459 162.782582,309.892792 C162.782582,308.124161 164.191322,306.678375 165.898064,306.678375 C167.618352,306.678375 169,308.124161 169,309.892792 C169,311.675459 167.604806,313.107208 165.898064,313.107208 L165.898064,313.107208 Z M52.0204332,313.107208 C50.313691,313.107208 48.918497,311.675459 48.918497,309.892792 C48.9320425,308.124161 50.313691,306.678375 52.0204332,306.678375 C53.7407209,306.678375 55.1359149,308.124161 55.1359149,309.892792 C55.1359149,311.675459 53.7271753,313.107208 52.0204332,313.107208 L52.0204332,313.107208 Z M165.898064,347.076151 C164.191322,347.076151 162.782582,345.630365 162.782582,343.861735 C162.782582,342.093104 164.191322,340.633281 165.898064,340.633281 C167.618352,340.633281 169,342.093104 169,343.861735 C169,344.717977 168.674906,345.532108 168.092447,346.135689 C167.509987,346.739269 166.724344,347.076151 165.898064,347.076151 L165.898064,347.076151 Z M23.5611847,347.076151 C21.8544425,347.076151 20.4457029,345.630365 20.4457029,343.861735 C20.4592485,342.093104 21.8544425,340.633281 23.5611847,340.633281 C24.3874646,340.633281 25.1731078,340.9842 25.7555675,341.587781 C26.3380271,342.191361 26.6631208,342.991456 26.6631208,343.861735 C26.6631208,345.630365 25.2679268,347.076151 23.5611847,347.076151 L23.5611847,347.076151 Z M80.4932272,347.076151 C78.786485,347.076151 77.391291,345.630365 77.391291,343.861735 C77.391291,342.093104 78.786485,340.633281 80.4932272,340.633281 C81.3330527,340.633281 82.1051504,340.9842 82.68761,341.587781 C83.2700696,342.191361 83.5951634,342.991456 83.5951634,343.861735 C83.5951634,344.717977 83.2700696,345.532108 82.68761,346.135689 C82.1051504,346.739269 81.3330527,347.076151 80.4932272,347.076151 L80.4932272,347.076151 Z M108.966021,347.076151 C107.259279,347.076151 105.85054,345.630365 105.85054,343.861735 C105.85054,342.093104 107.259279,340.633281 108.966021,340.633281 C109.792301,340.633281 110.577944,340.9842 111.160404,341.587781 C111.742864,342.205398 112.067957,343.005493 112.067957,343.861735 C112.067957,344.717977 111.742864,345.532108 111.160404,346.135689 C110.577944,346.739269 109.792301,347.076151 108.966021,347.076151 L108.966021,347.076151 Z M137.42527,347.076151 C136.59899,347.076151 135.813347,346.739269 135.230887,346.135689 C134.648427,345.518071 134.323334,344.717977 134.323334,343.861735 C134.323334,343.005493 134.648427,342.205398 135.230887,341.587781 C135.813347,340.9842 136.59899,340.633281 137.42527,340.633281 C138.265095,340.633281 139.037193,340.9842 139.619653,341.587781 C140.202112,342.191361 140.540752,343.005493 140.540752,343.861735 C140.540752,345.630365 139.132012,347.076151 137.42527,347.076151 L137.42527,347.076151 Z M-4.9116094,347.076151 C-6.61835157,347.076151 -8,345.630365 -8,343.861735 C-8,342.093104 -6.61835157,340.633281 -4.9116094,340.633281 C-4.07178388,340.633281 -3.29968623,340.9842 -2.7172266,341.587781 C-2.13476697,342.191361 -1.79612765,343.005493 -1.79612765,343.861735 C-1.79612765,345.630365 -3.20486722,347.076151 -4.9116094,347.076151 L-4.9116094,347.076151 Z M52.0204332,347.076151 C50.313691,347.076151 48.918497,345.630365 48.918497,343.861735 C48.9320425,342.093104 50.313691,340.633281 52.0204332,340.633281 C53.7407209,340.633281 55.1359149,342.093104 55.1359149,343.861735 C55.1359149,345.630365 53.7407209,347.076151 52.0204332,347.076151 L52.0204332,347.076151 Z M23.5611847,379.908117 L23.5611847,381.031057 C22.7213591,381.031057 21.9492615,380.708212 21.3668019,380.090595 C20.7843422,379.487014 20.4457029,378.672883 20.4592485,377.830677 C20.4457029,376.960399 20.7843422,376.160304 21.3668019,375.556723 C21.9492615,374.953143 22.7213591,374.602224 23.5611847,374.602224 C25.2679268,374.602224 26.6631208,376.04801 26.6631208,377.830677 C26.6631208,379.599308 25.2679268,381.031057 23.5611847,381.031057 L23.5611847,379.908117 Z M-4.9116094,381.031057 C-5.72434377,381.031057 -6.50998699,380.708212 -7.10599219,380.104631 C-7.68845183,379.487014 -8,378.672883 -8,377.830677 C-8,376.960399 -7.68845183,376.160304 -7.10599219,375.556723 C-6.50998699,374.939106 -5.72434377,374.602224 -4.9116094,374.602224 C-3.19132165,374.602224 -1.79612765,376.062047 -1.79612765,377.830677 C-1.79612765,379.599308 -3.19132165,381.031057 -4.9116094,381.031057 L-4.9116094,381.031057 Z M52.0204332,381.031057 C50.313691,381.031057 48.918497,379.599308 48.918497,377.830677 C48.918497,376.04801 50.313691,374.602224 52.0204332,374.602224 C52.8602587,374.602224 53.6459019,374.939106 54.2283615,375.556723 C54.8108212,376.160304 55.1359149,376.960399 55.1359149,377.830677 C55.1359149,378.672883 54.8108212,379.487014 54.2283615,380.104631 C53.6459019,380.708212 52.8602587,381.031057 52.0204332,381.031057 L52.0204332,381.031057 Z M80.4932272,381.031057 C78.786485,381.031057 77.391291,379.599308 77.391291,377.830677 C77.391291,376.04801 78.786485,374.602224 80.4932272,374.602224 C82.213515,374.602224 83.5951634,376.04801 83.5951634,377.830677 C83.5951634,379.599308 82.1999694,381.031057 80.4932272,381.031057 L80.4932272,381.031057 Z M108.966021,381.031057 C108.126196,381.031057 107.354098,380.708212 106.758093,380.104631 C106.175633,379.487014 105.85054,378.672883 105.85054,377.830677 C105.85054,376.960399 106.175633,376.160304 106.758093,375.556723 C107.340553,374.939106 108.126196,374.602224 108.966021,374.602224 C110.672763,374.602224 112.067957,376.04801 112.067957,377.830677 C112.067957,379.599308 110.686309,381.031057 108.966021,381.031057 L108.966021,381.031057 Z M137.42527,381.031057 C135.718528,381.031057 134.323334,379.599308 134.323334,377.830677 C134.323334,376.960399 134.648427,376.160304 135.230887,375.556723 C135.826892,374.939106 136.59899,374.602224 137.42527,374.602224 C139.132012,374.602224 140.540752,376.04801 140.540752,377.830677 C140.540752,379.599308 139.132012,381.031057 137.42527,381.031057 L137.42527,381.031057 Z M165.898064,381.031057 C164.191322,381.031057 162.782582,379.599308 162.782582,377.830677 C162.782582,376.04801 164.191322,374.602224 165.898064,374.602224 C166.724344,374.602224 167.509987,374.939106 168.092447,375.556723 C168.674906,376.160304 169,376.960399 169,377.830677 C169,379.599308 167.618352,381.031057 165.898064,381.031057 L165.898064,381.031057 Z M80.4932272,415 C78.786485,415 77.391291,413.568251 77.391291,411.785584 C77.391291,410.016953 78.786485,408.571167 80.4932272,408.571167 C82.213515,408.571167 83.5951634,410.016953 83.5951634,411.785584 C83.5951634,412.641825 83.2700696,413.455957 82.68761,414.059538 C82.1051504,414.677155 81.3330527,415 80.4932272,415 L80.4932272,415 Z M108.966021,415 C107.259279,415 105.85054,413.568251 105.85054,411.785584 C105.85054,410.016953 107.259279,408.571167 108.966021,408.571167 C109.792301,408.571167 110.577944,408.908049 111.160404,409.525666 C111.742864,410.11521 112.067957,410.929342 112.067957,411.79962 C112.067957,413.568251 110.672763,415 108.966021,415 L108.966021,415 Z M137.42527,415 C136.59899,415 135.813347,414.677155 135.230887,414.059538 C134.648427,413.455957 134.323334,412.641825 134.323334,411.785584 C134.323334,410.929342 134.648427,410.11521 135.230887,409.525666 C135.813347,408.908049 136.59899,408.571167 137.42527,408.571167 C138.265095,408.571167 139.037193,408.908049 139.619653,409.525666 C140.202112,410.11521 140.540752,410.929342 140.540752,411.79962 C140.540752,413.568251 139.132012,415 137.42527,415 L137.42527,415 Z M165.898064,415 C164.191322,415 162.782582,413.568251 162.782582,411.79962 C162.782582,410.016953 164.191322,408.571167 165.898064,408.571167 C166.724344,408.571167 167.509987,408.908049 168.092447,409.511629 C168.674906,410.11521 169,410.929342 169,411.79962 C169,413.568251 167.604806,415 165.898064,415 L165.898064,415 Z M-4.9116094,415 C-6.61835157,415 -8,413.568251 -8,411.785584 C-8,410.016953 -6.61835157,408.571167 -4.9116094,408.571167 C-3.20486722,408.571167 -1.79612765,410.016953 -1.79612765,411.79962 C-1.79612765,413.568251 -3.20486722,415 -4.9116094,415 L-4.9116094,415 Z M23.5611847,415 C21.8544425,415 20.4457029,413.568251 20.4457029,411.79962 C20.4457029,410.016953 21.8544425,408.571167 23.5611847,408.571167 C25.2679268,408.571167 26.6631208,410.016953 26.6631208,411.785584 C26.6631208,413.568251 25.2679268,415 23.5611847,415 L23.5611847,415 Z M52.0204332,415 C50.313691,415 48.918497,413.568251 48.918497,411.785584 C48.918497,410.016953 50.313691,408.571167 52.0204332,408.571167 C53.7407209,408.571167 55.1359149,410.016953 55.1359149,411.79962 C55.1359149,413.568251 53.7407209,415 52.0204332,415 L52.0204332,415 Z" id="Fill-1" fill="url(#linearGradient-3)" mask="url(#mask-2)"></path>
            </g>
        </g>
    </g>
</svg>