<?xml version="1.0" encoding="UTF-8"?>
<svg width="177px" height="408px" viewBox="0 0 177 408" version="1.1" xmlns="http://www.w3.org/2000/svg" xmlns:xlink="http://www.w3.org/1999/xlink">
    <title>Group 3</title>
    <defs>
        <polygon id="path-1" points="0 0 177 0 177 408 0 408"></polygon>
        <linearGradient x1="50%" y1="0%" x2="50%" y2="100%" id="linearGradient-3">
            <stop stop-color="#BEDBCE" stop-opacity="0" offset="0%"></stop>
            <stop stop-color="#44FFF3" offset="100%"></stop>
        </linearGradient>
    </defs>
    <g id="視覺稿" stroke="none" stroke-width="1" fill="none" fill-rule="evenodd" opacity="0.499790737">
        <g id="Artboard-Copy-4" transform="translate(32.000000, -3425.000000)">
            <g id="Group-3" transform="translate(56.500000, 3629.000000) scale(1, -1) rotate(180.000000) translate(-56.500000, -3629.000000) translate(-32.000000, 3425.000000)">
                <mask id="mask-2" fill="white">
                    <use xlink:href="#path-1"></use>
                </mask>
                <g id="Clip-2"></g>
                <path d="M83.4932272,0.33566149 C81.786485,0.33566149 80.391291,-1.08917068 80.391291,-2.83216925 C80.391291,-4.57516783 81.786485,-6 83.4932272,-6 C85.213515,-6 86.5951634,-4.57516783 86.5951634,-2.83216925 C86.5951634,-1.08917068 85.1999694,0.33566149 83.4932272,0.33566149 L83.4932272,0.33566149 Z M55.0204332,0.33566149 C54.2076988,0.33566149 53.4220556,0.0174950837 52.8260504,-0.591171086 C52.2435907,-1.18600393 51.918497,-1.98833661 51.918497,-2.83216925 C51.918497,-4.57516783 53.313691,-6 55.0204332,-6 C56.7271753,-6 58.1359149,-4.57516783 58.1359149,-2.83216925 C58.1359149,-1.08917068 56.7271753,0.33566149 55.0204332,0.33566149 L55.0204332,0.33566149 Z M26.5611847,0.33566149 C24.8544425,0.33566149 23.4592485,-1.08917068 23.4457029,-2.83216925 C23.4457029,-4.57516783 24.8544425,-6 26.5611847,-6 C28.2679268,-6 29.6631208,-4.57516783 29.6631208,-2.83216925 C29.6631208,-1.08917068 28.2679268,0.33566149 26.5611847,0.33566149 L26.5611847,0.33566149 Z M111.966021,0.33566149 C110.259279,0.33566149 108.85054,-1.08917068 108.85054,-2.83216925 C108.85054,-3.6760019 109.175633,-4.47833458 109.758093,-5.07316742 C110.340553,-5.66800027 111.126196,-6 111.966021,-6 C112.792301,-6 113.577944,-5.66800027 114.160404,-5.07316742 C114.742864,-4.47833458 115.067957,-3.6760019 115.067957,-2.83216925 C115.067957,-1.08917068 113.672763,0.33566149 111.966021,0.33566149 L111.966021,0.33566149 Z M168.898064,0.33566149 C167.191322,0.33566149 165.782582,-1.08917068 165.782582,-2.83216925 C165.782582,-4.57516783 167.191322,-6 168.898064,-6 C170.604806,-6 172,-4.57516783 172,-2.83216925 C172,-1.98833661 171.674906,-1.18600393 171.092447,-0.591171086 C170.509987,0.0174950837 169.724344,0.33566149 168.898064,0.33566149 L168.898064,0.33566149 Z M-1.9116094,0.33566149 C-3.61835157,0.33566149 -5,-1.08917068 -5,-2.83216925 C-5,-4.57516783 -3.61835157,-6 -1.9116094,-6 C-0.204867223,-6 1.20387235,-4.57516783 1.20387235,-2.83216925 C1.20387235,-1.98833661 0.86523303,-1.18600393 0.282773399,-0.591171086 C-0.299686232,0.0174950837 -1.07178388,0.33566149 -1.9116094,0.33566149 L-1.9116094,0.33566149 Z M140.42527,0.33566149 C138.718528,0.33566149 137.323334,-1.08917068 137.323334,-2.83216925 C137.323334,-4.57516783 138.718528,-6 140.42527,-6 C142.132012,-6 143.540752,-4.57516783 143.540752,-2.83216925 C143.540752,-1.08917068 142.132012,0.33566149 140.42527,0.33566149 L140.42527,0.33566149 Z M-1.9116094,33.8123008 C-3.61835157,33.8123008 -5,32.3874686 -5,30.6444701 C-5,28.8876382 -3.61835157,27.462806 -1.9116094,27.462806 C-1.07178388,27.462806 -0.299686232,27.7948057 0.282773399,28.4034719 C0.86523303,28.9983047 1.20387235,29.7868041 1.20387235,30.6444701 C1.20387235,31.4883027 0.86523303,32.2906354 0.282773399,32.8854682 C-0.299686232,33.4803011 -1.07178388,33.8123008 -1.9116094,33.8123008 L-1.9116094,33.8123008 Z M26.5611847,33.8123008 C25.7349047,33.8123008 24.9628071,33.4803011 24.3668019,32.8854682 C23.7843422,32.2906354 23.4457029,31.4883027 23.4592485,30.6444701 C23.4457029,29.7868041 23.7843422,28.9983047 24.3668019,28.4034719 C24.9628071,27.7948057 25.7349047,27.462806 26.5611847,27.462806 C28.2814724,27.462806 29.6631208,28.8876382 29.6631208,30.6444701 C29.6631208,32.3874686 28.2814724,33.8123008 26.5611847,33.8123008 L26.5611847,33.8123008 Z M140.42527,33.8123008 C138.718528,33.8123008 137.323334,32.3874686 137.323334,30.6444701 C137.323334,28.8876382 138.718528,27.462806 140.42527,27.462806 C142.132012,27.462806 143.540752,28.8876382 143.540752,30.6444701 C143.540752,32.3874686 142.132012,33.8123008 140.42527,33.8123008 L140.42527,33.8123008 Z M168.898064,33.8123008 C167.191322,33.8123008 165.782582,32.3874686 165.782582,30.6444701 C165.782582,28.8876382 167.191322,27.462806 168.898064,27.462806 C170.618352,27.462806 172,28.8876382 172,30.6444701 C172,32.3874686 170.604806,33.8123008 168.898064,33.8123008 L168.898064,33.8123008 Z M55.0204332,33.8123008 C54.1941532,33.8123008 53.4220556,33.4803011 52.8260504,32.8854682 C52.2435907,32.2906354 51.918497,31.4883027 51.918497,30.6444701 C51.918497,29.7868041 52.2435907,28.9983047 52.8260504,28.4034719 C53.40851,27.7948057 54.1941532,27.462806 55.0204332,27.462806 C56.7407209,27.462806 58.1359149,28.8876382 58.1359149,30.6444701 C58.1359149,32.3874686 56.7407209,33.8123008 55.0204332,33.8123008 L55.0204332,33.8123008 Z M83.4932272,33.8123008 C81.786485,33.8123008 80.391291,32.3874686 80.391291,30.6444701 C80.391291,28.8876382 81.786485,27.462806 83.4932272,27.462806 C85.1999694,27.462806 86.5951634,28.8876382 86.5951634,30.6444701 C86.5951634,32.3874686 85.213515,33.8123008 83.4932272,33.8123008 L83.4932272,33.8123008 Z M111.966021,33.8123008 C110.259279,33.8123008 108.85054,32.3874686 108.85054,30.6444701 C108.85054,29.7868041 109.175633,28.9983047 109.758093,28.4034719 C110.354098,27.7948057 111.126196,27.462806 111.966021,27.462806 C113.686309,27.462806 115.067957,28.8876382 115.067957,30.6444701 C115.067957,31.4883027 114.742864,32.2906354 114.160404,32.8854682 C113.577944,33.4803011 112.792301,33.8123008 111.966021,33.8123008 L111.966021,33.8123008 Z M55.0204332,67.2751068 C54.1941532,67.2751068 53.4220556,66.9569404 52.8260504,66.3482742 C52.2435907,65.7534414 51.918497,64.9511087 51.918497,64.1072761 C51.918497,62.3642775 53.313691,60.9394453 55.0204332,60.9394453 C56.7407209,60.9394453 58.1359149,62.3642775 58.1359149,64.1072761 C58.1359149,64.9511087 57.8108212,65.7534414 57.2283615,66.3482742 C56.6459019,66.9569404 55.8602587,67.2751068 55.0204332,67.2751068 L55.0204332,67.2751068 Z M83.4932272,67.2751068 C81.786485,67.2751068 80.391291,65.864108 80.391291,64.1072761 C80.391291,62.3642775 81.786485,60.9394453 83.4932272,60.9394453 C85.213515,60.9394453 86.5951634,62.3642775 86.5951634,64.1072761 C86.5951634,64.9511087 86.2700696,65.7534414 85.68761,66.3482742 C85.1051504,66.9569404 84.3330527,67.2751068 83.4932272,67.2751068 L83.4932272,67.2751068 Z M168.898064,67.2751068 C167.191322,67.2751068 165.782582,65.864108 165.782582,64.1072761 C165.782582,62.3642775 167.191322,60.9394453 168.898064,60.9394453 C169.724344,60.9394453 170.509987,61.271445 171.092447,61.8662779 C171.674906,62.4749441 172,63.2634434 172,64.1072761 C172,64.9511087 171.674906,65.7534414 171.092447,66.3482742 C170.509987,66.9569404 169.724344,67.2751068 168.898064,67.2751068 L168.898064,67.2751068 Z M-1.9116094,67.2751068 C-3.61835157,67.2751068 -5,65.864108 -5,64.1072761 C-5,62.3642775 -3.61835157,60.9394453 -1.9116094,60.9394453 C-0.204867223,60.9394453 1.20387235,62.3642775 1.20387235,64.1072761 C1.20387235,65.864108 -0.19132165,67.2751068 -1.9116094,67.2751068 L-1.9116094,67.2751068 Z M26.5611847,67.2751068 C24.8544425,67.2751068 23.4457029,65.864108 23.4457029,64.1072761 C23.4457029,62.3642775 24.8544425,60.9394453 26.5611847,60.9394453 C28.2679268,60.9394453 29.6631208,62.3642775 29.6631208,64.1072761 C29.6631208,65.864108 28.2814724,67.2751068 26.5611847,67.2751068 L26.5611847,67.2751068 Z M111.966021,67.2751068 C110.259279,67.2751068 108.85054,65.864108 108.85054,64.1072761 C108.85054,62.3642775 110.259279,60.9394453 111.966021,60.9394453 C113.672763,60.9394453 115.067957,62.3642775 115.067957,64.1072761 C115.067957,65.864108 113.672763,67.2751068 111.966021,67.2751068 L111.966021,67.2751068 Z M140.42527,67.2751068 C139.59899,67.2751068 138.813347,66.9569404 138.230887,66.3482742 C137.648427,65.7534414 137.323334,64.9511087 137.323334,64.1072761 C137.323334,63.2634434 137.648427,62.4749441 138.230887,61.8662779 C138.813347,61.271445 139.59899,60.9394453 140.42527,60.9394453 C141.265095,60.9394453 142.037193,61.271445 142.619653,61.8662779 C143.202112,62.4749441 143.540752,63.2634434 143.540752,64.1072761 C143.540752,65.864108 142.132012,67.2751068 140.42527,67.2751068 L140.42527,67.2751068 Z M-1.9116094,100.765579 C-2.73788934,100.765579 -3.50998699,100.419746 -4.10599219,99.8249135 C-4.68845183,99.2162474 -5,98.4415813 -5,97.5839154 C-5,96.7400827 -4.68845183,95.9515834 -4.10599219,95.3429172 C-3.50998699,94.7480844 -2.73788934,94.4160846 -1.9116094,94.4160846 C-0.204867223,94.4160846 1.20387235,95.8409168 1.20387235,97.5839154 C1.20387235,99.3269139 -0.204867223,100.765579 -1.9116094,100.765579 L-1.9116094,100.765579 Z M26.5611847,100.765579 C25.7213591,100.765579 24.9628071,100.419746 24.3668019,99.8249135 C23.7843422,99.2162474 23.4457029,98.4415813 23.4592485,97.5839154 C23.4457029,96.7400827 23.7843422,95.9515834 24.3668019,95.3429172 C24.9628071,94.7480844 25.7349047,94.4160846 26.5611847,94.4160846 C27.3874646,94.4160846 28.1731078,94.7480844 28.7555675,95.3429172 C29.3380271,95.9515834 29.6631208,96.7400827 29.6631208,97.5839154 C29.6631208,98.4415813 29.3380271,99.2162474 28.7555675,99.8249135 C28.1731078,100.419746 27.3874646,100.765579 26.5611847,100.765579 L26.5611847,100.765579 Z M55.0204332,99.6450804 L55.0204332,100.765579 C54.1941532,100.765579 53.40851,100.419746 52.8260504,99.8249135 C52.2435907,99.2162474 51.918497,98.4415813 51.918497,97.5839154 C51.918497,96.7400827 52.2435907,95.9515834 52.8260504,95.3429172 C53.40851,94.7480844 54.1941532,94.4160846 55.0204332,94.4160846 C55.8602587,94.4160846 56.6459019,94.7480844 57.2283615,95.3429172 C57.8108212,95.9515834 58.1359149,96.7400827 58.1359149,97.5839154 C58.1359149,98.4415813 57.8108212,99.2162474 57.2283615,99.8249135 C56.6459019,100.419746 55.8602587,100.765579 55.0204332,100.765579 L55.0204332,99.6450804 Z M83.4932272,100.765579 C81.786485,100.751746 80.391291,99.3269139 80.391291,97.5839154 C80.391291,95.8409168 81.786485,94.4160846 83.4932272,94.4160846 C85.213515,94.4160846 86.5951634,95.8409168 86.5951634,97.5839154 C86.5951634,98.4415813 86.2700696,99.2162474 85.68761,99.8249135 C85.1051504,100.419746 84.3330527,100.765579 83.4932272,100.765579 L83.4932272,100.765579 Z M111.966021,99.6450804 L111.966021,100.765579 C110.259279,100.765579 108.85054,99.3269139 108.85054,97.5839154 C108.85054,95.8409168 110.259279,94.4160846 111.966021,94.4160846 C113.672763,94.4160846 115.067957,95.8409168 115.067957,97.5839154 C115.067957,98.4415813 114.742864,99.2162474 114.160404,99.8249135 C113.577944,100.419746 112.792301,100.765579 111.966021,100.765579 L111.966021,99.6450804 Z M168.898064,99.6450804 L168.898064,100.765579 C167.191322,100.765579 165.782582,99.3269139 165.782582,97.5839154 C165.782582,95.8409168 167.191322,94.4160846 168.898064,94.4160846 C169.724344,94.4160846 170.509987,94.7480844 171.092447,95.3429172 C171.674906,95.9515834 172,96.7400827 172,97.5839154 C172,98.4415813 171.674906,99.2300807 171.092447,99.8249135 C170.509987,100.419746 169.724344,100.765579 168.898064,100.765579 L168.898064,99.6450804 Z M140.42527,100.765579 C138.718528,100.751746 137.323334,99.3269139 137.323334,97.5839154 C137.323334,95.8409168 138.718528,94.4160846 140.42527,94.4160846 C142.132012,94.4160846 143.540752,95.8409168 143.540752,97.5839154 C143.540752,99.3269139 142.145558,100.765579 140.42527,100.765579 L140.42527,100.765579 Z M83.4932272,134.228385 C81.786485,134.228385 80.391291,132.803553 80.391291,131.060555 C80.391291,129.303723 81.786485,127.892724 83.4932272,127.892724 C85.213515,127.892724 86.5951634,129.303723 86.5951634,131.060555 C86.5951634,132.803553 85.1999694,134.228385 83.4932272,134.228385 L83.4932272,134.228385 Z M168.898064,134.228385 C167.191322,134.228385 165.782582,132.803553 165.782582,131.060555 C165.782582,129.303723 167.191322,127.892724 168.898064,127.892724 C170.604806,127.892724 172,129.303723 172,131.060555 C172,131.918221 171.674906,132.692887 171.092447,133.301553 C170.509987,133.896386 169.724344,134.228385 168.898064,134.228385 L168.898064,134.228385 Z M-1.9116094,134.242219 C-3.61835157,134.228385 -5,132.803553 -5,131.060555 C-5,129.303723 -3.61835157,127.892724 -1.9116094,127.892724 C-0.204867223,127.892724 1.20387235,129.303723 1.20387235,131.060555 C1.20387235,132.803553 -0.19132165,134.242219 -1.9116094,134.242219 L-1.9116094,134.242219 Z M26.5611847,134.242219 C24.8544425,134.242219 23.4457029,132.803553 23.4457029,131.060555 C23.4592485,129.303723 24.8544425,127.892724 26.5611847,127.892724 C28.2679268,127.892724 29.6631208,129.303723 29.6631208,131.060555 C29.6631208,132.803553 28.2679268,134.228385 26.5611847,134.242219 L26.5611847,134.242219 Z M111.966021,134.242219 C110.259279,134.242219 108.85054,132.803553 108.85054,131.060555 C108.85054,129.303723 110.259279,127.892724 111.966021,127.892724 C113.686309,127.892724 115.067957,129.303723 115.067957,131.060555 C115.067957,132.803553 113.672763,134.228385 111.966021,134.242219 L111.966021,134.242219 Z M140.42527,134.242219 C139.59899,134.228385 138.813347,133.896386 138.230887,133.301553 C137.648427,132.692887 137.323334,131.904387 137.323334,131.060555 C137.323334,130.216722 137.648427,129.414389 138.230887,128.819557 C138.813347,128.21089 139.59899,127.892724 140.42527,127.892724 C142.132012,127.892724 143.540752,129.303723 143.540752,131.060555 C143.540752,131.904387 143.202112,132.692887 142.619653,133.301553 C142.037193,133.896386 141.265095,134.242219 140.42527,134.242219 L140.42527,134.242219 Z M55.0204332,134.242219 C53.313691,134.228385 51.918497,132.803553 51.918497,131.060555 C51.9320425,129.303723 53.313691,127.892724 55.0204332,127.892724 C56.7407209,127.892724 58.1359149,129.303723 58.1359149,131.060555 C58.1359149,132.803553 56.7407209,134.242219 55.0204332,134.242219 L55.0204332,134.242219 Z M-1.9116094,167.705025 C-2.72434377,167.705025 -3.50998699,167.373025 -4.10599219,166.764359 C-4.68845183,166.169526 -5,165.381027 -5,164.523361 C-5,163.693361 -4.68845183,162.891029 -4.10599219,162.296196 C-3.50998699,161.68753 -2.72434377,161.369363 -1.9116094,161.369363 C-1.07178388,161.369363 -0.299686232,161.68753 0.282773399,162.296196 C0.86523303,162.891029 1.20387235,163.693361 1.20387235,164.523361 C1.20387235,166.280193 -0.204867223,167.705025 -1.9116094,167.705025 L-1.9116094,167.705025 Z M26.5611847,167.705025 C25.7213591,167.705025 24.9492615,167.373025 24.3668019,166.764359 C23.7843422,166.169526 23.4457029,165.381027 23.4592485,164.523361 C23.4457029,163.693361 23.7843422,162.891029 24.3668019,162.296196 C24.9628071,161.68753 25.7213591,161.369363 26.5611847,161.369363 C27.3874646,161.369363 28.1731078,161.68753 28.7555675,162.296196 C29.3380271,162.891029 29.6631208,163.693361 29.6631208,164.537194 C29.6631208,165.381027 29.3380271,166.169526 28.7555675,166.764359 C28.1731078,167.373025 27.3874646,167.705025 26.5611847,167.705025 L26.5611847,167.705025 Z M83.4932272,167.705025 C81.786485,167.705025 80.391291,166.280193 80.391291,164.523361 C80.391291,163.693361 80.7163848,162.891029 81.2988444,162.296196 C81.881304,161.68753 82.6534017,161.369363 83.4932272,161.369363 C85.213515,161.369363 86.5951634,162.780362 86.5951634,164.523361 C86.5951634,166.280193 85.1999694,167.705025 83.4932272,167.705025 L83.4932272,167.705025 Z M111.966021,167.705025 C110.259279,167.705025 108.85054,166.280193 108.85054,164.523361 C108.85054,163.693361 109.175633,162.891029 109.758093,162.296196 C110.340553,161.68753 111.126196,161.369363 111.966021,161.369363 C112.792301,161.369363 113.577944,161.68753 114.160404,162.296196 C114.742864,162.891029 115.067957,163.693361 115.067957,164.523361 C115.067957,166.280193 113.672763,167.705025 111.966021,167.705025 L111.966021,167.705025 Z M140.42527,167.705025 C138.718528,167.705025 137.323334,166.280193 137.323334,164.537194 C137.323334,162.780362 138.718528,161.369363 140.42527,161.369363 C142.132012,161.369363 143.540752,162.780362 143.540752,164.523361 C143.540752,166.280193 142.132012,167.705025 140.42527,167.705025 L140.42527,167.705025 Z M168.898064,167.705025 C167.191322,167.705025 165.782582,166.280193 165.782582,164.523361 C165.782582,162.780362 167.191322,161.369363 168.898064,161.369363 C170.618352,161.369363 172,162.780362 172,164.523361 C172,166.280193 170.604806,167.705025 168.898064,167.705025 L168.898064,167.705025 Z M55.0204332,167.705025 C53.313691,167.705025 51.918497,166.280193 51.918497,164.537194 C51.9320425,162.780362 53.313691,161.369363 55.0204332,161.369363 C56.7407209,161.369363 58.1359149,162.780362 58.1359149,164.523361 C58.1359149,166.280193 56.7407209,167.705025 55.0204332,167.705025 L55.0204332,167.705025 Z M168.898064,201.181664 C167.191322,201.181664 165.782582,199.756832 165.782582,198 C165.782582,196.257001 167.191322,194.846003 168.898064,194.846003 C170.618352,194.846003 172,196.257001 172,198 C172,198.857666 171.674906,199.646165 171.092447,200.240998 C170.509987,200.835831 169.724344,201.181664 168.898064,201.181664 L168.898064,201.181664 Z M26.5611847,201.181664 C25.7213591,201.181664 24.9628071,200.835831 24.3668019,200.240998 C23.7843422,199.646165 23.4457029,198.857666 23.4457029,198 C23.4592485,196.257001 24.8544425,194.846003 26.5611847,194.846003 C28.2679268,194.846003 29.6631208,196.257001 29.6631208,198 C29.6631208,199.756832 28.2679268,201.181664 26.5611847,201.181664 L26.5611847,201.181664 Z M83.4932272,201.181664 C81.786485,201.181664 80.391291,199.756832 80.391291,198 C80.391291,196.257001 81.786485,194.846003 83.4932272,194.832169 C84.3330527,194.832169 85.1051504,195.164169 85.68761,195.759002 C86.2700696,196.367668 86.5951634,197.170001 86.5951634,198 C86.5951634,199.756832 85.1999694,201.181664 83.4932272,201.181664 L83.4932272,201.181664 Z M111.966021,201.181664 C110.259279,201.181664 108.85054,199.756832 108.85054,198 C108.85054,196.257001 110.259279,194.846003 111.966021,194.846003 C113.686309,194.846003 115.067957,196.257001 115.067957,198 C115.067957,199.756832 113.672763,201.181664 111.966021,201.181664 L111.966021,201.181664 Z M140.42527,201.181664 C139.59899,201.181664 138.813347,200.835831 138.230887,200.240998 C137.648427,199.646165 137.323334,198.857666 137.323334,198 C137.323334,197.170001 137.648427,196.367668 138.230887,195.759002 C138.813347,195.164169 139.59899,194.846003 140.42527,194.846003 C142.145558,194.846003 143.540752,196.257001 143.540752,198 C143.540752,198.857666 143.202112,199.646165 142.619653,200.240998 C142.037193,200.835831 141.265095,201.181664 140.42527,201.181664 L140.42527,201.181664 Z M-1.9116094,201.181664 C-3.61835157,201.181664 -5,199.756832 -5,198 C-5,196.257001 -3.61835157,194.846003 -1.9116094,194.832169 C-0.204867223,194.832169 1.20387235,196.257001 1.20387235,198 C1.20387235,199.756832 -0.204867223,201.181664 -1.9116094,201.181664 L-1.9116094,201.181664 Z M55.0204332,201.181664 C53.313691,201.181664 51.918497,199.742999 51.918497,198 C51.9320425,196.257001 53.313691,194.846003 55.0204332,194.832169 C56.7407209,194.846003 58.1359149,196.257001 58.1359149,198 C58.1359149,199.756832 56.7407209,201.181664 55.0204332,201.181664 L55.0204332,201.181664 Z M-1.9116094,234.630637 C-3.61835157,234.630637 -5,233.219638 -5,231.476639 C-5,229.719807 -3.61835157,228.294975 -1.9116094,228.294975 C-0.19132165,228.294975 1.20387235,229.719807 1.20387235,231.476639 C1.20387235,233.219638 -0.204867223,234.630637 -1.9116094,234.630637 L-1.9116094,234.630637 Z M55.0204332,234.630637 C53.313691,234.630637 51.918497,233.219638 51.918497,231.476639 C51.9320425,229.719807 53.313691,228.294975 55.0204332,228.294975 C56.7407209,228.294975 58.1359149,229.719807 58.1359149,231.476639 C58.1359149,233.219638 56.7407209,234.630637 55.0204332,234.630637 L55.0204332,234.630637 Z M83.4932272,234.630637 C81.786485,234.630637 80.391291,233.219638 80.391291,231.476639 C80.391291,230.618973 80.7163848,229.830474 81.2988444,229.235641 C81.8948496,228.640808 82.6534017,228.294975 83.4932272,228.294975 C85.1999694,228.294975 86.5951634,229.719807 86.5951634,231.476639 C86.5951634,233.219638 85.1999694,234.630637 83.4932272,234.630637 L83.4932272,234.630637 Z M26.5611847,234.630637 C25.7349047,234.630637 24.9628071,234.31247 24.3668019,233.717637 C23.7843422,233.122805 23.4457029,232.334305 23.4457029,231.476639 C23.4457029,229.733641 24.8544425,228.294975 26.5611847,228.294975 C27.3874646,228.294975 28.1731078,228.640808 28.7555675,229.235641 C29.3380271,229.830474 29.6631208,230.618973 29.6631208,231.476639 C29.6631208,232.334305 29.3380271,233.108971 28.7555675,233.717637 C28.1731078,234.31247 27.3874646,234.630637 26.5611847,234.630637 L26.5611847,234.630637 Z M168.898064,234.630637 C168.058238,234.630637 167.286141,234.31247 166.703681,233.717637 C166.121221,233.122805 165.782582,232.334305 165.782582,231.476639 C165.782582,229.719807 167.191322,228.294975 168.898064,228.294975 C169.724344,228.294975 170.509987,228.640808 171.092447,229.235641 C171.674906,229.830474 172,230.618973 172,231.476639 C172,233.219638 170.618352,234.630637 168.898064,234.630637 L168.898064,234.630637 Z M111.966021,234.64447 C110.259279,234.630637 108.85054,233.219638 108.85054,231.476639 C108.85054,229.733641 110.259279,228.294975 111.966021,228.294975 C113.672763,228.294975 115.067957,229.733641 115.067957,231.476639 C115.067957,233.219638 113.672763,234.630637 111.966021,234.64447 L111.966021,234.64447 Z M140.42527,234.64447 C138.718528,234.64447 137.323334,233.219638 137.323334,231.476639 C137.323334,229.733641 138.718528,228.294975 140.42527,228.294975 C142.132012,228.294975 143.540752,229.719807 143.540752,231.476639 C143.540752,233.219638 142.132012,234.630637 140.42527,234.64447 L140.42527,234.64447 Z M26.5611847,268.107276 C24.8544425,268.107276 23.4457029,266.696277 23.4457029,264.953279 C23.4592485,263.196447 24.8544425,261.771615 26.5611847,261.771615 C28.2679268,261.771615 29.6631208,263.196447 29.6631208,264.953279 C29.6631208,266.696277 28.2679268,268.107276 26.5611847,268.107276 L26.5611847,268.107276 Z M55.0204332,268.107276 C53.313691,268.107276 51.918497,266.696277 51.918497,264.953279 C51.9320425,263.196447 53.313691,261.771615 55.0204332,261.771615 C56.7407209,261.771615 58.1359149,263.196447 58.1359149,264.953279 C58.1359149,265.783278 57.8108212,266.585611 57.2283615,267.194277 C56.6459019,267.78911 55.8602587,268.107276 55.0204332,268.107276 L55.0204332,268.107276 Z M83.4932272,268.107276 C81.786485,268.107276 80.391291,266.696277 80.391291,264.953279 C80.391291,263.196447 81.786485,261.771615 83.4932272,261.771615 C85.1999694,261.771615 86.5951634,263.196447 86.5951634,264.953279 C86.5951634,265.783278 86.2700696,266.585611 85.68761,267.194277 C85.1051504,267.78911 84.3330527,268.107276 83.4932272,268.107276 L83.4932272,268.107276 Z M111.966021,268.107276 C110.259279,268.107276 108.85054,266.696277 108.85054,264.953279 C108.85054,263.196447 110.259279,261.771615 111.966021,261.771615 C112.792301,261.771615 113.577944,262.103614 114.160404,262.71228 C114.742864,263.307113 115.067957,264.095613 115.067957,264.953279 C115.067957,266.696277 113.672763,268.107276 111.966021,268.107276 L111.966021,268.107276 Z M140.42527,268.107276 C139.59899,268.107276 138.813347,267.78911 138.230887,267.180443 C137.648427,266.585611 137.323334,265.783278 137.323334,264.953279 C137.323334,264.095613 137.648427,263.307113 138.230887,262.71228 C138.813347,262.103614 139.59899,261.771615 140.42527,261.771615 C141.265095,261.771615 142.037193,262.103614 142.619653,262.71228 C143.215658,263.307113 143.540752,264.095613 143.540752,264.953279 C143.540752,265.783278 143.202112,266.585611 142.619653,267.194277 C142.037193,267.78911 141.265095,268.107276 140.42527,268.107276 L140.42527,268.107276 Z M-1.9116094,268.107276 C-3.61835157,268.107276 -5,266.696277 -5,264.953279 C-5,263.196447 -3.61835157,261.771615 -1.9116094,261.771615 C-1.07178388,261.771615 -0.299686232,262.103614 0.282773399,262.71228 C0.86523303,263.307113 1.20387235,264.095613 1.20387235,264.953279 C1.20387235,266.696277 -0.204867223,268.107276 -1.9116094,268.107276 L-1.9116094,268.107276 Z M168.898064,268.107276 C167.191322,268.107276 165.782582,266.696277 165.782582,264.953279 C165.782582,263.196447 167.191322,261.771615 168.898064,261.771615 C169.724344,261.771615 170.509987,262.103614 171.092447,262.71228 C171.674906,263.307113 172,264.095613 172,264.953279 C172,266.696277 170.604806,268.107276 168.898064,268.107276 L168.898064,268.107276 Z M-1.9116094,301.583915 C-2.73788934,301.583915 -3.50998699,301.265749 -4.10599219,300.657083 C-4.68845183,300.06225 -5,299.259917 -5,298.416085 C-5,297.572252 -4.68845183,296.783753 -4.10599219,296.175086 C-3.50998699,295.580254 -2.72434377,295.248254 -1.9116094,295.248254 C-0.19132165,295.248254 1.20387235,296.673086 1.20387235,298.416085 C1.20387235,300.172917 -0.204867223,301.583915 -1.9116094,301.583915 L-1.9116094,301.583915 Z M26.5611847,301.583915 C24.8544425,301.583915 23.4457029,300.172917 23.4457029,298.416085 C23.4457029,297.572252 23.7843422,296.783753 24.3668019,296.175086 C24.9628071,295.580254 25.7349047,295.248254 26.5611847,295.248254 C27.3874646,295.248254 28.1731078,295.580254 28.7555675,296.175086 C29.3380271,296.783753 29.6631208,297.572252 29.6631208,298.416085 C29.6631208,299.259917 29.3380271,300.06225 28.7555675,300.657083 C28.1731078,301.265749 27.3874646,301.583915 26.5611847,301.583915 L26.5611847,301.583915 Z M83.4932272,301.583915 C82.6534017,301.583915 81.8948496,301.265749 81.2988444,300.657083 C80.7163848,300.06225 80.391291,299.259917 80.391291,298.416085 C80.391291,297.572252 80.7163848,296.783753 81.2988444,296.175086 C81.8948496,295.580254 82.6534017,295.248254 83.4932272,295.248254 C84.3330527,295.248254 85.1051504,295.580254 85.68761,296.175086 C86.2700696,296.783753 86.5951634,297.572252 86.5951634,298.416085 C86.5951634,300.172917 85.213515,301.583915 83.4932272,301.583915 L83.4932272,301.583915 Z M111.966021,301.583915 C110.259279,301.583915 108.85054,300.172917 108.85054,298.416085 C108.85054,296.673086 110.259279,295.248254 111.966021,295.248254 C113.672763,295.248254 115.067957,296.673086 115.067957,298.416085 C115.067957,300.172917 113.672763,301.583915 111.966021,301.583915 L111.966021,301.583915 Z M140.42527,301.583915 C138.718528,301.583915 137.323334,300.172917 137.323334,298.416085 C137.323334,296.673086 138.718528,295.248254 140.42527,295.248254 C142.132012,295.248254 143.540752,296.673086 143.540752,298.416085 C143.540752,300.172917 142.132012,301.583915 140.42527,301.583915 L140.42527,301.583915 Z M168.898064,301.583915 C167.191322,301.583915 165.782582,300.172917 165.782582,298.416085 C165.782582,296.673086 167.191322,295.248254 168.898064,295.248254 C170.618352,295.248254 172,296.673086 172,298.416085 C172,300.172917 170.604806,301.583915 168.898064,301.583915 L168.898064,301.583915 Z M55.0204332,301.583915 C53.313691,301.583915 51.918497,300.172917 51.918497,298.416085 C51.9320425,296.673086 53.313691,295.248254 55.0204332,295.248254 C56.7407209,295.248254 58.1359149,296.673086 58.1359149,298.416085 C58.1359149,300.172917 56.7271753,301.583915 55.0204332,301.583915 L55.0204332,301.583915 Z M168.898064,335.060555 C167.191322,335.060555 165.782582,333.635723 165.782582,331.892724 C165.782582,330.149725 167.191322,328.71106 168.898064,328.71106 C170.618352,328.71106 172,330.149725 172,331.892724 C172,332.736557 171.674906,333.538889 171.092447,334.133722 C170.509987,334.728555 169.724344,335.060555 168.898064,335.060555 L168.898064,335.060555 Z M26.5611847,335.060555 C24.8544425,335.060555 23.4457029,333.635723 23.4457029,331.892724 C23.4592485,330.149725 24.8544425,328.71106 26.5611847,328.71106 C27.3874646,328.71106 28.1731078,329.056893 28.7555675,329.651726 C29.3380271,330.246559 29.6631208,331.035058 29.6631208,331.892724 C29.6631208,333.635723 28.2679268,335.060555 26.5611847,335.060555 L26.5611847,335.060555 Z M83.4932272,335.060555 C81.786485,335.060555 80.391291,333.635723 80.391291,331.892724 C80.391291,330.149725 81.786485,328.71106 83.4932272,328.71106 C84.3330527,328.71106 85.1051504,329.056893 85.68761,329.651726 C86.2700696,330.246559 86.5951634,331.035058 86.5951634,331.892724 C86.5951634,332.736557 86.2700696,333.538889 85.68761,334.133722 C85.1051504,334.728555 84.3330527,335.060555 83.4932272,335.060555 L83.4932272,335.060555 Z M111.966021,335.060555 C110.259279,335.060555 108.85054,333.635723 108.85054,331.892724 C108.85054,330.149725 110.259279,328.71106 111.966021,328.71106 C112.792301,328.71106 113.577944,329.056893 114.160404,329.651726 C114.742864,330.260392 115.067957,331.048891 115.067957,331.892724 C115.067957,332.736557 114.742864,333.538889 114.160404,334.133722 C113.577944,334.728555 112.792301,335.060555 111.966021,335.060555 L111.966021,335.060555 Z M140.42527,335.060555 C139.59899,335.060555 138.813347,334.728555 138.230887,334.133722 C137.648427,333.525056 137.323334,332.736557 137.323334,331.892724 C137.323334,331.048891 137.648427,330.260392 138.230887,329.651726 C138.813347,329.056893 139.59899,328.71106 140.42527,328.71106 C141.265095,328.71106 142.037193,329.056893 142.619653,329.651726 C143.202112,330.246559 143.540752,331.048891 143.540752,331.892724 C143.540752,333.635723 142.132012,335.060555 140.42527,335.060555 L140.42527,335.060555 Z M-1.9116094,335.060555 C-3.61835157,335.060555 -5,333.635723 -5,331.892724 C-5,330.149725 -3.61835157,328.71106 -1.9116094,328.71106 C-1.07178388,328.71106 -0.299686232,329.056893 0.282773399,329.651726 C0.86523303,330.246559 1.20387235,331.048891 1.20387235,331.892724 C1.20387235,333.635723 -0.204867223,335.060555 -1.9116094,335.060555 L-1.9116094,335.060555 Z M55.0204332,335.060555 C53.313691,335.060555 51.918497,333.635723 51.918497,331.892724 C51.9320425,330.149725 53.313691,328.71106 55.0204332,328.71106 C56.7407209,328.71106 58.1359149,330.149725 58.1359149,331.892724 C58.1359149,333.635723 56.7407209,335.060555 55.0204332,335.060555 L55.0204332,335.060555 Z M26.5611847,367.416695 L26.5611847,368.523361 C25.7213591,368.523361 24.9492615,368.205194 24.3668019,367.596528 C23.7843422,367.001695 23.4457029,366.199363 23.4592485,365.369363 C23.4457029,364.511697 23.7843422,363.723198 24.3668019,363.128365 C24.9492615,362.533532 25.7213591,362.187699 26.5611847,362.187699 C28.2679268,362.187699 29.6631208,363.612531 29.6631208,365.369363 C29.6631208,367.112362 28.2679268,368.523361 26.5611847,368.523361 L26.5611847,367.416695 Z M-1.9116094,368.523361 C-2.72434377,368.523361 -3.50998699,368.205194 -4.10599219,367.610361 C-4.68845183,367.001695 -5,366.199363 -5,365.369363 C-5,364.511697 -4.68845183,363.723198 -4.10599219,363.128365 C-3.50998699,362.519699 -2.72434377,362.187699 -1.9116094,362.187699 C-0.19132165,362.187699 1.20387235,363.626365 1.20387235,365.369363 C1.20387235,367.112362 -0.19132165,368.523361 -1.9116094,368.523361 L-1.9116094,368.523361 Z M55.0204332,368.523361 C53.313691,368.523361 51.918497,367.112362 51.918497,365.369363 C51.918497,363.612531 53.313691,362.187699 55.0204332,362.187699 C55.8602587,362.187699 56.6459019,362.519699 57.2283615,363.128365 C57.8108212,363.723198 58.1359149,364.511697 58.1359149,365.369363 C58.1359149,366.199363 57.8108212,367.001695 57.2283615,367.610361 C56.6459019,368.205194 55.8602587,368.523361 55.0204332,368.523361 L55.0204332,368.523361 Z M83.4932272,368.523361 C81.786485,368.523361 80.391291,367.112362 80.391291,365.369363 C80.391291,363.612531 81.786485,362.187699 83.4932272,362.187699 C85.213515,362.187699 86.5951634,363.612531 86.5951634,365.369363 C86.5951634,367.112362 85.1999694,368.523361 83.4932272,368.523361 L83.4932272,368.523361 Z M111.966021,368.523361 C111.126196,368.523361 110.354098,368.205194 109.758093,367.610361 C109.175633,367.001695 108.85054,366.199363 108.85054,365.369363 C108.85054,364.511697 109.175633,363.723198 109.758093,363.128365 C110.340553,362.519699 111.126196,362.187699 111.966021,362.187699 C113.672763,362.187699 115.067957,363.612531 115.067957,365.369363 C115.067957,367.112362 113.686309,368.523361 111.966021,368.523361 L111.966021,368.523361 Z M140.42527,368.523361 C138.718528,368.523361 137.323334,367.112362 137.323334,365.369363 C137.323334,364.511697 137.648427,363.723198 138.230887,363.128365 C138.826892,362.519699 139.59899,362.187699 140.42527,362.187699 C142.132012,362.187699 143.540752,363.612531 143.540752,365.369363 C143.540752,367.112362 142.132012,368.523361 140.42527,368.523361 L140.42527,368.523361 Z M168.898064,368.523361 C167.191322,368.523361 165.782582,367.112362 165.782582,365.369363 C165.782582,363.612531 167.191322,362.187699 168.898064,362.187699 C169.724344,362.187699 170.509987,362.519699 171.092447,363.128365 C171.674906,363.723198 172,364.511697 172,365.369363 C172,367.112362 170.618352,368.523361 168.898064,368.523361 L168.898064,368.523361 Z M83.4932272,402 C81.786485,402 80.391291,400.589001 80.391291,398.832169 C80.391291,397.089171 81.786485,395.664339 83.4932272,395.664339 C85.213515,395.664339 86.5951634,397.089171 86.5951634,398.832169 C86.5951634,399.676002 86.2700696,400.478335 85.68761,401.073167 C85.1051504,401.681834 84.3330527,402 83.4932272,402 L83.4932272,402 Z M111.966021,402 C110.259279,402 108.85054,400.589001 108.85054,398.832169 C108.85054,397.089171 110.259279,395.664339 111.966021,395.664339 C112.792301,395.664339 113.577944,395.996338 114.160404,396.605004 C114.742864,397.186004 115.067957,397.988337 115.067957,398.846003 C115.067957,400.589001 113.672763,402 111.966021,402 L111.966021,402 Z M140.42527,402 C139.59899,402 138.813347,401.681834 138.230887,401.073167 C137.648427,400.478335 137.323334,399.676002 137.323334,398.832169 C137.323334,397.988337 137.648427,397.186004 138.230887,396.605004 C138.813347,395.996338 139.59899,395.664339 140.42527,395.664339 C141.265095,395.664339 142.037193,395.996338 142.619653,396.605004 C143.202112,397.186004 143.540752,397.988337 143.540752,398.846003 C143.540752,400.589001 142.132012,402 140.42527,402 L140.42527,402 Z M168.898064,402 C167.191322,402 165.782582,400.589001 165.782582,398.846003 C165.782582,397.089171 167.191322,395.664339 168.898064,395.664339 C169.724344,395.664339 170.509987,395.996338 171.092447,396.591171 C171.674906,397.186004 172,397.988337 172,398.846003 C172,400.589001 170.604806,402 168.898064,402 L168.898064,402 Z M-1.9116094,402 C-3.61835157,402 -5,400.589001 -5,398.832169 C-5,397.089171 -3.61835157,395.664339 -1.9116094,395.664339 C-0.204867223,395.664339 1.20387235,397.089171 1.20387235,398.846003 C1.20387235,400.589001 -0.204867223,402 -1.9116094,402 L-1.9116094,402 Z M26.5611847,402 C24.8544425,402 23.4457029,400.589001 23.4457029,398.846003 C23.4457029,397.089171 24.8544425,395.664339 26.5611847,395.664339 C28.2679268,395.664339 29.6631208,397.089171 29.6631208,398.832169 C29.6631208,400.589001 28.2679268,402 26.5611847,402 L26.5611847,402 Z M55.0204332,402 C53.313691,402 51.918497,400.589001 51.918497,398.832169 C51.918497,397.089171 53.313691,395.664339 55.0204332,395.664339 C56.7407209,395.664339 58.1359149,397.089171 58.1359149,398.846003 C58.1359149,400.589001 56.7407209,402 55.0204332,402 L55.0204332,402 Z" id="Fill-1" fill="url(#linearGradient-3)" mask="url(#mask-2)"></path>
            </g>
        </g>
    </g>
</svg>