<?xml version="1.0" encoding="UTF-8"?>
<svg width="250px" height="34px" viewBox="0 0 250 34" version="1.1" xmlns="http://www.w3.org/2000/svg" xmlns:xlink="http://www.w3.org/1999/xlink">
    <title>Artboard</title>
    <defs>
        <polygon id="path-1" points="0.000479779727 0.245188629 31.3987821 0.245188629 31.3987821 31.3003452 0.000479779727 31.3003452"></polygon>
        <polygon id="path-3" points="0.911867089 0.0939010357 9.79588608 0.0939010357 9.79588608 10.5247411 0.911867089 10.5247411"></polygon>
    </defs>
    <g id="Artboard" stroke="none" stroke-width="1" fill="none" fill-rule="evenodd">
        <g id="Group-4">
            <g id="Group-39" transform="translate(0.000000, 0.244769)"></g>
            <g id="Group-3" transform="translate(0.000000, 1.565017)">
                <mask id="mask-2" fill="white">
                    <use xlink:href="#path-1"></use>
                </mask>
                <g id="Clip-2"></g>
                <path d="M30.3474684,10.0740161 C32.6876582,16.0273418 31.0294304,23.0511392 26.2841772,27.2469505 C22.1892405,30.9544764 16.1117089,32.3207365 10.6829114,30.4990564 C4.60379747,28.4833142 0.347468354,22.9854085 0.0231012658,16.5469275 C-0.301265823,10.4668354 2.88386076,4.9689298 8.21297468,2.07521289 C13.089557,-0.721472957 20.4012658,-0.264487917 24.8537975,3.11594937 C27.2905063,4.77486766 29.243038,7.37592635 30.3474684,10.0740161" id="Fill-1" fill="#FEFEFE" mask="url(#mask-2)"></path>
            </g>
            <path d="M29.1700949,19.1713049 L29.6700949,19.1713049 C29.5767405,18.8536064 29.1083861,18.9819379 28.9200949,18.6955397 C29.1083861,18.632939 29.3568038,18.72684 29.5435127,18.8223061 L29.5435127,18.7910058 C29.4517405,18.72684 29.2318038,18.72684 29.2950949,18.537473 C27.8599684,17.997542 26.5799051,17.3167595 25.3647152,16.3965293 C24.3662975,15.825298 23.8346519,14.460603 22.7112342,14.0803038 C22.5245253,13.825206 22.4628165,13.5716732 22.3061709,13.28684 L22.1811709,13.3494407 C21.9628165,13.0959079 21.9311709,12.7797745 21.7761076,12.5231116 C21.6210443,12.3024442 21.3061709,12.2382785 21.0893987,12.2382785 C20.7460443,12.4292106 20.2175633,12.1115121 19.9976266,12.3024442 L20.1843354,12.3979102 C20.1210443,12.4918113 20.0593354,12.5872773 19.9042722,12.555977 C19.2175633,12.0473464 18.6242089,11.286748 18.0941456,10.6200506 C18.3757911,9.82502186 17.3441456,9.63565478 16.9707278,9.06442348 C16.4390823,8.65125892 15.7539557,9.06442348 15.2238924,9.22249022 C14.3504747,8.96739241 13.4454114,8.80932566 12.5102848,8.71385961 C12.1337025,8.80932566 11.9169304,9.22249022 11.7286392,9.47758803 C11.1669304,10.2710518 10.9169304,11.2538826 10.2634494,12.0473464 C10.0767405,12.3979102 9.60838608,12.2382785 9.35838608,12.4918113 C8.79667722,12.4918113 8.29825949,12.6827434 7.82832278,12.9691415 C7.79825949,13.0317422 7.76661392,13.1272083 7.67167722,13.0959079 C7.54825949,13.3494407 7.36155063,13.5716732 7.17484177,13.825206 C6.70490506,14.460603 5.83306962,14.6515351 5.17642405,15.0318343 C4.36629747,15.5091646 3.55458861,15.9520644 2.89794304,16.6829275 L2.93117089,16.7157929 C2.58781646,17.2228585 2.08781646,17.5076916 1.7460443,17.9834568 C2.08781646,17.8895558 2.02610759,17.4763913 2.43117089,17.540557 C2.52452532,17.7940898 2.21281646,17.8895558 2.18117089,18.0476226 C2.30617089,17.9834568 2.46123418,17.8895558 2.58781646,17.9224212 C2.52452532,18.1117883 2.36946203,18.2072543 2.21281646,18.3324557 C2.36946203,18.269855 2.33781646,18.4279217 2.39794304,18.4607871 C2.55617089,18.4920875 2.80617089,18.2072543 3.02452532,18.3324557 C2.83623418,18.5233878 2.61787975,18.7471853 2.49446203,18.8426513 L2.49446203,18.8739517 C2.61787975,18.8739517 2.71123418,18.8739517 2.77452532,18.7784856 C2.99287975,18.7471853 3.17800633,18.4279217 3.36629747,18.3966214 L3.02452532,18.8739517 L3.39952532,18.5875535 C3.49129747,18.7143199 3.17800633,18.809786 3.33623418,18.9365524 C3.61787975,18.809786 3.67958861,18.5233878 3.92958861,18.3966214 C3.89636076,18.6517192 3.61787975,18.8426513 3.49129747,19.0648838 C3.61787975,18.9365524 3.99129747,18.8426513 3.92958861,18.5875535 C4.17800633,18.3324557 4.48971519,18.1430886 4.67800633,17.8253901 C5.36313291,17.0632267 5.86313291,16.271328 6.8931962,16.0475305 C6.92325949,16.0803959 6.83148734,16.1116962 6.8931962,16.0803959 C7.45332278,15.6030656 8.32832278,15.6030656 8.85838608,15.0318343 C8.95332278,14.9035029 9.1068038,14.6515351 9.32674051,14.7141358 L9.32674051,14.6515351 C9.35838608,14.5247687 9.48338608,14.4293026 9.63844937,14.460603 L9.67009494,14.5873694 C10.1068038,14.0803038 10.8568038,14.2696709 11.2001582,13.7939056 L11.2001582,13.8565063 C11.6969937,13.6984396 12.0419304,13.2226743 12.3235759,12.8423751 C12.5102848,12.555977 12.6337025,12.2382785 12.8837025,12.0473464 C13.0403481,11.7938136 13.1321203,11.4761151 13.3821203,11.2538826 C13.6637658,11.2225823 14.0387658,11.1912819 14.3172468,11.286748 C14.6938291,11.7938136 15.3488924,11.5089804 15.9106013,11.5418458 C15.9406646,11.8266789 16.2207278,11.5418458 16.2523734,11.8266789 C16.7207278,12.0473464 16.8757911,12.7469091 17.2824367,13.1272083 C17.0324367,13.28684 16.7207278,13.5403728 16.659019,13.8893717 C16.2523734,13.9535374 16.6273734,14.3980023 16.2207278,14.4293026 C16.3473101,14.2696709 16.5973101,14.2696709 16.7207278,14.4293026 L16.6273734,14.5247687 C16.159019,14.7454361 15.6906646,15.0631346 15.2238924,15.3495328 L15.2871835,15.4136985 C15.1606013,15.5091646 15.0356013,15.6672313 14.9422468,15.731397 L15.0356013,15.731397 C15.0450949,15.734527 15.0419304,15.7439171 15.0498418,15.7486122 C15.0007911,15.7767825 14.9564873,15.8096479 14.9786392,15.8800736 L15.0735759,15.8800736 C15.0799051,15.8659885 15.090981,15.8612934 15.0988924,15.8519033 C15.0988924,15.8503383 15.0973101,15.8597284 15.0973101,15.8581634 C15.2539557,15.8581634 15.4106013,15.6343659 15.5356013,15.7626974 C15.5672468,15.7939977 15.5039557,15.825298 15.5039557,15.8581634 C15.6606013,15.6343659 15.8488924,15.8894638 15.9406646,15.8894638 C15.7223101,16.0803959 15.4422468,16.3026283 15.1922468,16.4919954 L15.4422468,16.4919954 C15.3488924,16.7783936 15.005538,16.6829275 14.8488924,16.9364603 C15.0356013,16.9364603 14.9106013,17.1586928 14.8488924,17.1899931 C14.9738924,17.1586928 15.0973101,17.002191 15.2539557,17.0960921 C15.1606013,17.3167595 14.880538,17.3496249 14.8488924,17.6031577 C15.0672468,17.4763913 15.1922468,17.0960921 15.4738924,17.2228585 C15.5039557,17.3167595 15.2871835,17.3496249 15.3789557,17.5076916 C15.5039557,17.4763913 15.5973101,17.3167595 15.7539557,17.3809252 C15.8172468,17.3809252 15.8789557,17.4450909 15.8488924,17.5076916 C15.9723101,17.3496249 16.2207278,17.5076916 16.3473101,17.3809252 C16.784019,16.7783936 17.6257911,16.8722946 18.2507911,16.5874614 L18.2191456,16.4293947 C18.3140823,16.0475305 18.8742089,16.1429965 19.1843354,16.0162301 C19.2792722,15.6343659 19.7776899,15.9207641 19.9343354,15.5717652 C20.1210443,15.4136985 20.2792722,15.6343659 20.4643987,15.6343659 C20.7143987,15.5091646 21.0577532,15.5388999 21.2776899,15.4136985 C21.869462,15.2869321 22.3678797,16.0162301 22.7112342,16.366794 C23.4912975,17.3167595 24.6463608,18.0163222 25.6131329,18.4920875 C25.0830696,18.1117883 24.5213608,17.8582555 23.9912975,17.4450909 C24.022943,17.3496249 24.1162975,17.3809252 24.1780063,17.3809252 C24.6463608,17.7314891 25.1147152,17.9834568 25.5814873,18.3011554 C26.5498418,19.0946191 27.7349684,19.5203038 28.7966772,19.9663337 L28.6384494,19.8380023 C28.6716772,19.806702 28.6099684,19.7425362 28.6716772,19.7112359 L28.8900316,19.8380023 C28.9200949,19.7112359 29.0751582,19.7112359 29.1700949,19.6799356 C29.0134494,19.3935374 28.6099684,19.2996364 28.3283228,19.1384396 C27.5166139,18.6626743 26.5181962,18.3966214 25.8014241,17.6986237 L25.8330696,17.6673234 C26.7365506,18.2385547 27.6732595,18.632939 28.7017405,19.0758389 C28.8583861,19.3935374 29.1083861,19.2026053 29.3568038,19.2996364 C29.2950949,19.268336 29.1700949,19.268336 29.1700949,19.1713049" id="Fill-4" fill="#00A19B"></path>
            <path d="M15.7052215,14.7773625 L15.5469937,14.7116318 C15.6403481,14.9714246 15.327057,14.9072589 15.230538,15.005855 L15.2004747,14.9072589 L14.9473101,15.1028861 C14.9156646,15.3611139 14.5375,15.1983521 14.5058544,15.458145 C14.7273734,15.458145 14.9156646,15.1670518 15.2004747,15.1983521 C15.230538,15.005855 15.5469937,14.9072589 15.7052215,14.7773625" id="Fill-6" fill="#040100"></path>
            <path d="M14.6946203,14.9714246 C14.5363924,15.0700207 14.4098101,15.0700207 14.3481013,15.2327825 C14.5063291,15.1983521 14.6313291,15.1013211 14.6946203,14.9714246" id="Fill-8" fill="#040100"></path>
            <polygon id="Fill-10" fill="#FEFEFE" points="162.432278 17.4742002 170.001899 17.4742002 170.001899 19.180069 164.487658 19.180069 164.487658 21.4211738 169.618987 21.4211738 169.618987 23.1270426 164.487658 23.1270426 164.487658 25.8642578 170.19019 25.8642578 170.19019 27.5685616 162.432278 27.5685616"></polygon>
            <path d="M179.126424,24.1017353 C179.224525,24.6244511 179.496677,26.0282716 181.349525,26.0282716 C182.786234,26.0282716 183.362184,25.2833234 183.362184,24.6369712 C183.362184,23.7887319 182.646994,23.6103199 180.759335,23.1564649 C179.754589,22.9013671 177.499842,22.352046 177.499842,20.1265915 C177.499842,19.0232543 178.22769,17.3095604 181.221361,17.3095604 C183.216614,17.3095604 185.040981,18.0811139 185.126424,20.3629091 L183.061551,20.4521151 C182.974525,19.9278343 182.819462,18.9809988 181.196044,18.9809988 C180.578956,18.9809988 179.468196,19.1672359 179.468196,19.9857399 C179.468196,20.6320921 180.107437,20.9153602 181.749842,21.2956594 C183.305222,21.6634384 185.414399,22.1579839 185.414399,24.6369712 C185.414399,25.8639448 184.628006,26.8937261 183.745095,27.2865455 C182.833703,27.7122301 181.803639,27.7388354 181.335285,27.7388354 C180.237184,27.7388354 177.529905,27.6418044 177.128006,24.2817123 L179.126424,24.1017353 Z" id="Fill-12" fill="#FEFEFE"></path>
            <path d="M191.129589,17.4742002 L191.129589,22.9314154 C191.129589,24.1286536 191.129589,24.6247641 191.3875,25.1036594 C191.773576,25.8220023 192.569462,25.9894591 193.199209,25.9894591 C195.162816,25.9894591 195.162816,24.7656157 195.162816,23.0425316 L195.162816,17.4742002 L197.218196,17.4742002 L197.218196,22.7764787 C197.218196,24.5793786 197.145411,25.5794246 196.648576,26.3462831 C195.860601,27.5435213 194.393829,27.7391484 193.256171,27.7391484 C189.075791,27.7391484 189.075791,25.1913003 189.075791,22.8609896 L189.075791,17.4742002 L191.129589,17.4742002 Z" id="Fill-14" fill="#FEFEFE"></path>
            <polygon id="Fill-16" fill="#FEFEFE" points="201.417405 17.4742002 203.414241 17.4742002 207.564557 24.2162946 207.591456 24.2162946 207.591456 17.4742002 209.501266 17.4742002 209.501266 27.5685616 207.439557 27.5685616 203.355696 20.987664 203.327215 20.987664 203.327215 27.5685616 201.417405 27.5685616"></polygon>
            <polygon id="Fill-18" fill="#FEFEFE" points="217.699051 17.4742002 224.702215 17.4742002 224.702215 19.180069 219.757595 19.180069 219.757595 21.5792405 224.032911 21.5792405 224.032911 23.2819793 219.757595 23.2819793 219.757595 27.5685616 217.699051 27.5685616"></polygon>
            <polygon id="Fill-20" fill="#FEFEFE" points="228.163133 17.4742002 230.21693 17.4742002 230.21693 21.4524741 234.250158 21.4524741 234.250158 17.4742002 236.303956 17.4742002 236.303956 27.5685616 234.250158 27.5685616 234.250158 23.1567779 230.21693 23.1567779 230.21693 27.5685616 228.163133 27.5685616"></polygon>
            <g id="Group-24" transform="translate(238.924051, 17.215190)">
                <mask id="mask-4" fill="white">
                    <use xlink:href="#path-3"></use>
                </mask>
                <g id="Clip-23"></g>
                <path d="M9.79636076,7.26481013 C9.57958861,8.05514384 8.89287975,10.5247411 5.56060127,10.5247411 C2.79477848,10.5247411 0.911867089,8.53247411 0.911867089,5.38991945 C0.911867089,2.58540852 2.35015823,0.0939010357 5.67610759,0.0939010357 C6.24256329,0.0939010357 7.67136076,0.147111623 8.79636076,1.24575374 C9.31060127,1.75438435 9.56218354,2.34439586 9.76313291,3.05647871 L7.72674051,3.53067894 C7.47199367,2.43203682 6.63022152,1.83576525 5.57325949,1.83576525 C3.03528481,1.83576525 3.03528481,4.60271577 3.03528481,5.25063291 C3.03528481,6.19590334 3.15079114,7.13960875 3.57800633,7.78596087 C3.94984177,8.35093211 4.6318038,8.77348677 5.54477848,8.77348677 C6.91186709,8.77348677 7.54003165,7.74683544 7.79794304,6.64506329 L9.79636076,7.26481013 Z" id="Fill-22" fill="#FEFEFE" mask="url(#mask-4)"></path>
            </g>
            <path d="M174.521835,26.2774223 C174.521835,25.5590794 173.931646,24.9737629 173.208544,24.9737629 C172.479114,24.9737629 171.888924,25.5590794 171.888924,26.2774223 C171.888924,26.9988953 172.479114,27.5826467 173.208544,27.5826467 C173.931646,27.5826467 174.521835,26.9988953 174.521835,26.2774223" id="Fill-25" fill="#FEFEFE"></path>
            <polygon id="Fill-27" fill="#FEFEFE" points="84.0197785 23.2351853 88.5261076 23.2351853 88.5261076 10.2611922 91.7602848 10.2611922 91.7602848 27.8206858 88.5261076 27.8206858 88.5261076 26.3730449 76.1242089 26.3417445 76.1178797 27.8206858 72.7650316 27.8206858 72.7650316 10.1078205 76.090981 10.1078205 76.090981 23.2351853 80.6606013 23.2038849 80.6606013 7.28139931 84.0197785 7.28139931"></polygon>
            <polygon id="Fill-29" fill="#FEFEFE" points="54.1295886 24.2790518 54.1280063 18.5542186 61.0267405 18.5542186 61.0267405 15.4273142 54.1280063 15.3944488 54.1280063 10.880939 61.5204114 10.880939 61.5267405 7.64761335 43.4033228 7.64761335 43.4033228 10.880939 50.7102848 10.880939 50.7102848 15.3944488 43.8700949 15.3944488 43.8700949 18.5542186 50.7102848 18.5542186 50.7102848 24.2790518 42.3780063 24.2790518 42.3780063 27.4544718 62.4238924 27.4544718 62.4238924 24.2790518"></polygon>
            <path d="M57.2091772,19.5442486 C56.4971519,19.7367457 55.9037975,20.4691738 55.8373418,21.2000368 C55.8088608,21.761878 55.9322785,22.2501634 56.2756329,22.6461128 C56.8341772,23.2282992 57.6126582,23.5146974 58.4227848,23.2611646 C59.0113924,23.1077929 59.5731013,22.4943061 59.7234177,21.9136847 C59.8547468,21.3612336 59.7566456,20.7743521 59.4797468,20.3424074 C58.9813291,19.5755489 58.0462025,19.2969758 57.2091772,19.5442486" id="Fill-31" fill="#FEFEFE"></path>
            <path d="M112.978323,20.2121979 L115.35807,20.2121979 L113.721994,23.664626 L116.408703,24.7288377 L112.978323,24.7288377 L112.978323,20.2121979 Z M106.346994,24.7288377 L109.127057,23.6881013 L107.460918,20.2121979 L109.867563,20.2121979 L109.867563,24.7288377 L106.346994,24.7288377 Z M108.74731,13.5843498 C110.424525,11.9880322 111.649209,10.3807595 111.644462,10.3744994 C111.644462,10.3744994 112.718829,11.8487457 114.698259,13.5843498 L112.978323,13.5843498 L109.867563,13.5843498 L108.74731,13.5843498 Z M118.348576,21.0839125 L115.926108,20.2121979 L119.009968,20.2121979 L119.009968,17.5422785 L112.978323,17.5422785 L112.978323,16.2542693 L115.903956,16.2542693 L115.903956,14.5750058 C117.214082,15.5875719 118.804272,16.6110932 120.647627,17.4249022 L122.644462,14.3559033 C122.644462,14.3559033 116.862816,13.0193786 113.464082,7.55903337 C113.55269,7.3806214 113.596994,7.28359033 113.596994,7.28359033 L109.650791,6.90642117 C107.112816,13.0397238 101.256804,14.9897353 101.256804,14.9897353 L102.690348,18.1260299 C104.320095,17.1619793 105.729905,16.1603682 106.945095,15.1712773 L106.945095,16.2542693 L109.867563,16.2542693 L109.867563,17.5422785 L103.839082,17.5422785 L103.839082,20.2121979 L107.236234,20.2121979 L104.794778,21.123038 L105.937184,24.7288377 L102.172943,24.7288377 L102.172943,27.4613579 L109.867563,27.4613579 L112.978323,27.4613579 L120.674525,27.4613579 L120.674525,24.7288377 L116.619146,24.7288377 C116.850158,24.2405524 118.258386,21.2732796 118.348576,21.0839125 L118.348576,21.0839125 Z" id="Fill-33" fill="#FEFEFE"></path>
            <polygon id="Fill-35" fill="#FEFEFE" points="141.848734 12.5376663 148.843987 12.5376663 148.843987 14.4657675 151.532278 14.4657675 151.532278 12.5376663 151.532278 11.8897491 151.532278 10.1197146 146.682595 10.1197146 146.682595 7.33711392 144.010127 7.33711392 144.010127 10.1197146 139.160443 10.1197146 139.160443 11.8897491 139.160443 12.5376663 139.160443 14.4657675 141.848734 14.4657675"></polygon>
            <path d="M146.680538,21.5158573 L149.91788,21.5158573 L149.91788,19.6237514 C150.125158,19.7896433 150.340348,19.9524051 150.563449,20.1089068 L152.565032,18.3513924 C152.565032,18.3513924 149.66788,16.8427158 148.197943,13.5780898 L145.854589,14.6125662 C145.854589,14.6125662 147.020728,16.9679171 149.16788,18.9742693 L141.523892,18.9742693 C143.672627,16.9679171 144.838766,14.6125662 144.838766,14.6125662 L142.493829,13.5780898 C141.481171,15.8301496 139.789715,17.2449252 138.837184,17.9069275 L138.837184,15.956916 L136.940032,16.3716456 L136.940032,14.2447871 L138.71693,14.2447871 L138.71693,11.5435673 L136.940032,11.5435673 L136.940032,7.33680092 L134.191614,7.33680092 L134.191614,11.5435673 L131.561867,11.5435673 L131.561867,14.2447871 L134.191614,14.2447871 L134.191614,16.9741772 L131.185285,17.6330495 L131.696361,20.5971922 L134.191614,19.9179747 L134.191614,24.4424396 C134.191614,24.7350978 133.95269,24.9729804 133.656804,24.9729804 L132.250158,24.9729804 L133.386234,27.8056617 L134.191614,27.8056617 L134.229589,27.8056617 C135.726424,27.8056617 136.940032,26.6052934 136.940032,25.1247871 L136.940032,19.1698964 L138.560285,18.7301266 L140.129905,20.1089068 C140.353006,19.9524051 140.568196,19.7896433 140.777057,19.6237514 L140.777057,21.5158573 L144.011234,21.5158573 L144.011234,24.9588953 L138.813449,24.9588953 L138.813449,27.4989183 L151.878323,27.4989183 L151.878323,24.9588953 L146.680538,24.9588953 L146.680538,21.5158573 Z" id="Fill-37" fill="#FEFEFE"></path>
        </g>
    </g>
</svg>