<?xml version="1.0" encoding="UTF-8"?>
<svg width="54px" height="46px" viewBox="0 0 54 46" version="1.1" xmlns="http://www.w3.org/2000/svg" xmlns:xlink="http://www.w3.org/1999/xlink">
    <title>Group 38</title>
    <g id="切圖" stroke="none" stroke-width="1" fill="none" fill-rule="evenodd">
        <g id="Artboard-Copy-4" transform="translate(-317.000000, -747.000000)" stroke="#1D5C75" stroke-width="3">
            <g id="Group-38" transform="translate(319.000000, 749.000000)">
                <circle id="Oval" cx="39.3640351" cy="32.3568376" r="3.33333333"></circle>
                <path d="M49.5614035,33.8320533 L49.5614035,30.8817029 C49.5614035,30.4293045 49.1924351,30.0624446 48.7371539,30.0624446 L47.3944576,30.0624446 C47.2197131,29.4550886 46.9785429,28.8756784 46.6770597,28.3335294 L47.6241358,27.3922815 C47.946158,27.072322 47.946158,26.5536636 47.6241358,26.2337041 L45.5251642,24.1475683 C45.2031421,23.8276088 44.6812722,23.8276088 44.359413,24.1475683 L43.4199168,25.081202 C42.8724547,24.7768759 42.2870932,24.5325727 41.6726349,24.3555825 L41.6726349,23.0414805 C41.6726349,22.5890821 41.3036664,22.2222222 40.8483853,22.2222222 L37.8797664,22.2222222 C37.4244853,22.2222222 37.0555168,22.5890821 37.0555168,23.0414805 L37.0555168,24.339463 C36.4338861,24.5137801 35.8412708,24.7562203 35.2872068,25.0603843 L34.3687387,24.1475683 C34.0467165,23.8276088 33.5248466,23.8276088 33.2029875,24.1475683 L31.1038529,26.2337041 C30.7819937,26.5536636 30.7819937,27.072322 31.1038529,27.3922815 L32.0147412,28.2975643 C31.7038036,28.8500817 31.455298,29.4413992 31.2765598,30.0624446 L29.9909978,30.0624446 C29.5357166,30.0624446 29.1666667,30.4293045 29.1666667,30.8817029 L29.1666667,33.8320533 C29.1666667,34.2844517 29.5357166,34.6512306 29.9909978,34.6512306 L31.2765598,34.6512306 C31.455298,35.272276 31.7038036,35.8636745 32.0147412,36.4161919 L31.1038529,37.3214748 C30.7819937,37.6413532 30.7819937,38.1600926 31.1038529,38.4799711 L33.2029875,40.5661879 C33.5248466,40.8860664 34.0467165,40.8860664 34.3687387,40.5661879 L35.2872068,39.6532909 C35.8412708,39.9575359 36.4338861,40.1999761 37.0555168,40.3742122 L37.0555168,41.6722757 C37.0555168,42.1246741 37.4244853,42.491453 37.8797664,42.491453 L40.8483853,42.491453 C41.3036664,42.491453 41.6726349,42.1246741 41.6726349,41.6722757 L41.6726349,40.3580928 C42.2870932,40.1811835 42.8724547,39.9368803 43.4199168,39.6325543 L44.359413,40.5661879 C44.6812722,40.8860664 45.2031421,40.8860664 45.5251642,40.5661879 L47.6241358,38.4799711 C47.946158,38.1600926 47.946158,37.6413532 47.6241358,37.3214748 L46.6770597,36.3802269 C46.9785429,35.8380778 47.2197131,35.2586676 47.3943761,34.6512306 L48.7371539,34.6512306 C49.1924351,34.6512306 49.5614035,34.2844517 49.5614035,33.8320533 Z" id="Stroke-1" stroke-linecap="round" stroke-linejoin="round"></path>
                <path d="M16.3288288,23.704955 L16.3288288,25 C16.3288288,26.4297297 17.4934372,27.5900901 18.8968093,27.5900901 L21.4368493,27.5900901 C22.8389515,27.5900901 23.9489489,26.4297297 23.9489489,25 L23.9489489,24.2760698 C23.9489489,23.1623311 23.2631381,22.1716216 22.2268018,21.8193694 L18.0725663,20.4103604 C17.03496,20.0581081 16.3288288,19.0673986 16.3288288,17.9536599 L16.3288288,17.2297297 C16.3288288,15.8 17.4934372,14.6396396 18.8968093,14.6396396 L21.4368493,14.6396396 C22.8389515,14.6396396 23.9489489,15.8 23.9489489,17.2297297 L23.9489489,18.5247748" id="Stroke-1"></path>
                <line x1="20.1388889" y1="14.0765766" x2="20.1388889" y2="10.1351351" id="Stroke-3"></line>
                <line x1="20.1388889" y1="27.5900901" x2="20.1388889" y2="31.5315315" id="Stroke-5"></line>
                <path d="M27.6904998,40.1640625 C25.3635353,41.1341146 22.8211344,41.6666667 20.1577868,41.6666667 C9.02564905,41.6666667 -7.40148683e-15,32.3398437 -7.40148683e-15,20.8333333 C-7.40148683e-15,9.328125 9.02564905,7.40148683e-15 20.1577868,7.40148683e-15 C30.8666111,7.40148683e-15 39.6264293,8.63151042 40.2777778,19.5286458" id="Stroke-7"></path>
            </g>
        </g>
    </g>
</svg>