<?xml version="1.0" encoding="UTF-8"?>
<svg width="53px" height="46px" viewBox="0 0 53 46" version="1.1" xmlns="http://www.w3.org/2000/svg" xmlns:xlink="http://www.w3.org/1999/xlink">
    <title>Group 32</title>
    <g id="切圖" stroke="none" stroke-width="1" fill="none" fill-rule="evenodd" stroke-linecap="round" stroke-linejoin="round">
        <g id="Artboard-Copy-4" transform="translate(-790.000000, -642.000000)" stroke="#1D5C75" stroke-width="3">
            <g id="Group-32" transform="translate(792.000000, 644.000000)">
                <path d="M36,38.6041173 L36,40.1998577 C36,41.1940372 35.0224846,42 33.8164025,42 L2.18359753,42 C0.977693113,42 0,41.1940372 0,40.1998577 L0,6.50848841 C0,6.03106255 0.230076791,5.57319072 0.63950688,5.2355725 L6.35056359,0.527299612 C6.75999368,0.189754624 7.31546479,0 7.89456541,0 L35.7163571,0 C35.8729692,0 36,0.104800798 36,0.233989203 L36,6.85760469" id="Stroke-1"></path>
                <path d="M1,7 L6.20570668,7 C6.6443599,7 7,6.21758781 7,5.25254582 L7,1" id="Stroke-3"></path>
                <line x1="22" y1="22" x2="28" y2="22" id="Stroke-5"></line>
                <line x1="22" y1="13" x2="28" y2="13" id="Stroke-7"></line>
                <path d="M40.0796916,31.2605776 L46.0150833,10.2440728 C46.1830388,9.64922898 45.8470164,9.02633605 45.2644567,8.85267832 L40.3379115,7.38431327 C39.7553518,7.21065555 39.1469818,7.55213911 38.9790261,8.14691279 L33.0714898,29.0643 C32.6866254,30.4270395 32.7695231,31.8847899 33.3064717,33.1958329 L34.8035032,36.8512195 L37.875509,34.513153 C38.9380304,33.7044552 39.7120325,32.5624297 40.0796916,31.2605776 Z" id="Stroke-9" transform="translate(39.445685, 22.095142) rotate(12.000000) translate(-39.445685, -22.095142) "></path>
                <line x1="32.6127106" y1="27.8239848" x2="38.2982569" y2="29.7584918" id="Stroke-11" transform="translate(35.455484, 28.791238) rotate(12.000000) translate(-35.455484, -28.791238) "></line>
                <polyline id="Stroke-13" points="8 14.5121951 10.038835 17 15 11"></polyline>
                <polyline id="Stroke-15" points="8 22.5121951 10.038835 25 15 19"></polyline>
                <polyline id="Stroke-17" points="8 34.5121951 10.038835 37 15 31"></polyline>
            </g>
        </g>
    </g>
</svg>