<?xml version="1.0" encoding="UTF-8"?>
<svg width="55px" height="46px" viewBox="0 0 55 46" version="1.1" xmlns="http://www.w3.org/2000/svg" xmlns:xlink="http://www.w3.org/1999/xlink">
    <title>Group 35</title>
    <g id="切圖" stroke="none" stroke-width="1" fill="none" fill-rule="evenodd">
        <g id="Artboard-Copy-4" transform="translate(-365.000000, -558.000000)" stroke="#1D5C75" stroke-width="3">
            <g id="Group-35" transform="translate(367.000000, 560.000000)">
                <polygon id="Rectangle" transform="translate(27.879780, 15.990207) rotate(-45.000000) translate(-27.879780, -15.990207) " points="19.2352929 9.12875134 36.448323 9.22467991 36.5242665 22.8516621 19.3112363 22.7557335"></polygon>
                <path d="M19.4651881,14.9483035 L20.6056257,14.9546181 C21.797796,14.9612191 22.7626335,15.9259891 22.7693178,17.118159 L22.8438424,30.4098802 C22.8504312,31.5850223 21.9031316,32.5430046 20.7279895,32.5495934 C20.7200857,32.5496377 20.7121817,32.549638 20.7042779,32.5495942 L19.5415525,32.5431563 C18.993623,32.5401224 18.5501772,32.0967076 18.547105,31.5487784 L18.459667,15.953895 C18.4565705,15.4016189 18.9017684,14.9514005 19.4540445,14.9483039 C19.457759,14.9482831 19.4614736,14.948283 19.4651881,14.9483035 Z" id="Rectangle" transform="translate(20.654952, 23.752106) rotate(-45.000000) translate(-20.654952, -23.752106) "></path>
                <path d="M35.3632834,0.14044338 L36.5260118,0.14692329 C37.0739403,0.149976906 37.5173697,0.593406333 37.5204233,1.14133483 L37.6012083,15.6370622 C37.6042862,16.1893384 37.159073,16.6395418 36.6067968,16.6426196 C36.6030815,16.6426403 36.5993662,16.6426403 36.5956509,16.6426196 L35.455215,16.6362639 C34.2630436,16.62962 33.2982391,15.6648155 33.2915951,14.4726441 L33.2236457,2.28008108 C33.2170966,1.10494089 34.1644269,0.146992461 35.3395671,0.14044338 C35.3474725,0.140399323 35.355378,0.140399323 35.3632834,0.14044338 Z" id="Rectangle" transform="translate(35.409249, 8.388354) rotate(-45.000000) translate(-35.409249, -8.388354) "></path>
                <path d="M37.9760002,17.3248264 L42.9964903,17.3406644 L43.1686811,36.1558064 C43.1812132,37.5251692 42.0812845,38.6454163 40.7119217,38.6579483 C40.7017509,38.6580414 40.6915796,38.6580719 40.6814083,38.6580398 C39.2900693,38.6536506 38.1609238,37.5312561 38.1481911,36.1399684 L37.9760002,17.3248264 L37.9760002,17.3248264 Z" id="Rectangle" transform="translate(40.583827, 27.995393) rotate(-45.000000) translate(-40.583827, -27.995393) "></path>
                <path d="M2.93733733,33.0646266 L21.6812881,33.0022374 C22.0877634,33.0008844 22.4546144,33.2457086 22.6093379,33.6215871 L23.4316828,35.6193553 C23.641907,36.1300648 23.3983156,36.7144971 22.8876061,36.9247214 C22.7668564,36.9744258 22.6375409,37 22.5069614,37 L2.35043707,37 C1.79815232,37 1.35043707,36.5522847 1.35043707,36 C1.35043707,35.90115 1.36509361,35.8028463 1.39392859,35.7082955 L1.98415732,33.7729165 C2.11212672,33.3533007 2.49864447,33.0660868 2.93733733,33.0646266 Z" id="Rectangle"></path>
                <path d="M4,38 L22,38 C24.209139,38 26,39.790861 26,42 L26,42 L26,42 L0,42 C-2.705415e-16,39.790861 1.790861,38 4,38 Z" id="Rectangle"></path>
            </g>
        </g>
    </g>
</svg>