<?xml version="1.0" encoding="UTF-8"?>
<svg width="32px" height="40px" viewBox="0 0 32 40" version="1.1" xmlns="http://www.w3.org/2000/svg" xmlns:xlink="http://www.w3.org/1999/xlink">
    <title>Group 61</title>
    <g id="切圖" stroke="none" stroke-width="1" fill="none" fill-rule="evenodd">
        <g id="Artboard-Copy-4" transform="translate(-898.000000, -663.000000)" stroke-width="3">
            <g id="Group-61" transform="translate(898.000000, 663.000000)">
                <circle id="Oval" stroke="#2B93AE" fill="#FFFFFF" cx="16" cy="10.6666667" r="9.16666667"></circle>
                <g id="Group-63" stroke="#1D5C75">
                    <path d="M15.9511764,21.5 C22.0050254,21.5 25.801536,23.3981373 27.981484,26.018326 C29.4306802,27.7601875 30.152551,29.7895357 30.3994865,31.6688922 C30.6957772,33.9238769 30.3584382,36.0119191 29.6316933,36.950503 C28.3473019,38.609282 23.6695722,38.3741161 19.035181,38.3875541 L18.3576856,38.391544 C18.1741269,38.3932434 17.9903982,38.3949443 17.8055267,38.3967253 L17.8055267,38.3967253 L17.0546109,38.4045131 C16.6775157,38.4087897 16.3010462,38.4137418 15.9263594,38.4199417 C15.3827639,38.4289365 14.8424499,38.4394903 14.3074311,38.4499429 C13.1429045,38.4726941 12.0037086,38.4950158 10.916944,38.4992652 L10.916944,38.4992652 L10.1918218,38.4992389 C6.66116215,38.4838319 3.53757789,38.4755562 2.35673035,36.950503 C1.64287931,36.0285714 1.3037743,33.9241227 1.60030926,31.6497297 C1.84512934,29.7719845 2.55853096,27.7434675 3.99826693,26.0028995 C6.15881502,23.3909062 9.92698426,21.5 15.9511764,21.5 Z" id="Triangle"></path>
                    <circle id="Oval" fill="#FFFFFF" cx="16" cy="10.6666667" r="9.16666667"></circle>
                </g>
            </g>
        </g>
    </g>
</svg>