<?xml version="1.0" encoding="UTF-8"?>
<svg width="24px" height="30px" viewBox="0 0 24 30" version="1.1" xmlns="http://www.w3.org/2000/svg" xmlns:xlink="http://www.w3.org/1999/xlink">
    <title>Group 59</title>
    <g id="視覺稿" stroke="none" stroke-width="1" fill="none" fill-rule="evenodd">
        <g id="首頁-關於玉山(單色板)" transform="translate(-538.000000, -748.000000)">
            <g id="Group-57" transform="translate(95.000000, 612.000000)">
                <g id="Group-59" transform="translate(443.000000, 136.000000)">
                    <g id="Group-61" stroke="#2B93AE" stroke-width="3">
                        <circle id="Oval" fill="#FFFFFF" cx="12" cy="8" r="6.5"></circle>
                        <g id="Group-63">
                            <path d="M11.9633823,16.5 C16.3474984,16.5 19.1151141,17.8512279 20.6978384,19.7535836 C21.7356959,21.0010365 22.2510036,22.4548936 22.4278106,23.8005219 C22.6330492,25.3625347 22.4346515,26.8280064 21.9272638,27.4832927 C20.952112,28.7426917 17.2229356,28.3866586 13.7647926,28.418674 C13.491578,28.4212035 13.2178624,28.4237381 12.942151,28.4266965 L12.942151,28.4266965 L12.2702434,28.4349388 C11.8327151,28.4421441 11.3999036,28.4504988 10.9731652,28.4587383 C6.97164886,28.5359998 3.24145452,29.0038941 2.06405397,27.4832927 C1.56547461,26.8393823 1.36663026,25.3615942 1.57208472,23.7857794 C1.74738649,22.4412326 2.25649752,20.987811 3.28765792,19.7411902 C4.85583843,17.8453393 7.60222807,16.5 11.9633823,16.5 Z" id="Triangle"></path>
                            <circle id="Oval" fill="#FFFFFF" cx="12" cy="8" r="6.5"></circle>
                        </g>
                    </g>
                    <g id="Group-61" transform="translate(4.000000, 0.000000)"></g>
                </g>
            </g>
        </g>
    </g>
</svg>