<?xml version="1.0" encoding="UTF-8"?>
<svg width="33px" height="29px" viewBox="0 0 33 29" version="1.1" xmlns="http://www.w3.org/2000/svg" xmlns:xlink="http://www.w3.org/1999/xlink">
    <title>Group 27</title>
    <g id="視覺稿" stroke="none" stroke-width="1" fill="none" fill-rule="evenodd">
        <g id="首頁-人才培育(單色板)" transform="translate(-946.000000, -879.000000)">
            <g id="Group-50" transform="translate(95.000000, 612.000000)">
                <g id="Group-27" transform="translate(851.000000, 267.000000)">
                    <rect id="Rectangle" stroke="#2B93AE" stroke-width="3" fill="#FFFFFF" x="1.5" y="1.5" width="30" height="21" rx="4"></rect>
                    <path d="M11.5333951,24 L23.6577305,24 C24.0916437,24 24.4760441,24.2798309 24.6093613,24.6927561 L25.5779426,27.6927561 C25.7476288,28.2183272 25.459127,28.7819446 24.9335558,28.9516308 C24.8342907,28.9836796 24.7306224,29 24.6263118,29 L10.4322727,29 C9.87998793,29 9.43227268,28.5522847 9.43227268,28 C9.43227268,27.8824386 9.45300247,27.765798 9.49350993,27.6554358 L10.5946323,24.6554358 C10.7391446,24.2617131 11.1139891,24 11.5333951,24 Z" id="Rectangle" fill="#2B93AE"></path>
                    <rect id="Rectangle" fill="#2B93AE" x="7" y="8" width="19" height="2" rx="1"></rect>
                    <rect id="Rectangle-Copy-15" fill="#2B93AE" x="9" y="14" width="15" height="2" rx="1"></rect>
                </g>
            </g>
        </g>
    </g>
</svg>