<?xml version="1.0" encoding="UTF-8"?>
<svg width="37px" height="30px" viewBox="0 0 37 30" version="1.1" xmlns="http://www.w3.org/2000/svg" xmlns:xlink="http://www.w3.org/1999/xlink">
    <title>Group 33</title>
    <g id="切圖" stroke="none" stroke-width="1" fill="none" fill-rule="evenodd">
        <g id="Artboard-Copy-4" transform="translate(-324.000000, -746.000000)" stroke="#2B93AE" stroke-width="3">
            <g id="Group-33" transform="translate(326.000000, 748.000000)">
                <circle id="Oval" cx="16.5" cy="3.5" r="3.5"></circle>
                <path d="M11,16 L11,15 C11,11.6862915 13.6862915,9 17,9 C20.3137085,9 23,11.6862915 23,15 L23,16 L23,16" id="Path-4"></path>
                <path d="M3,21 L3,18 C3,16.8954305 3.8954305,16 5,16 L29,16 C30.1045695,16 31,16.8954305 31,18 L31,21 L31,21" id="Path-5"></path>
                <line x1="16.5" y1="16.1846591" x2="16.5" y2="20.7727273" id="Line-8" stroke-linecap="square"></line>
                <circle id="Oval" cx="2.5" cy="23.5" r="2.5"></circle>
                <circle id="Oval" cx="16.5" cy="23.5" r="2.5"></circle>
                <circle id="Oval" cx="30.5" cy="23.5" r="2.5"></circle>
            </g>
        </g>
    </g>
</svg>