<?xml version="1.0" encoding="UTF-8"?>
<svg width="40px" height="35px" viewBox="0 0 40 35" version="1.1" xmlns="http://www.w3.org/2000/svg" xmlns:xlink="http://www.w3.org/1999/xlink">
    <title>Group 30</title>
    <g id="切圖" stroke="none" stroke-width="1" fill="none" fill-rule="evenodd">
        <g id="Artboard-Copy-4" transform="translate(-524.000000, -745.000000)">
            <g id="Group-30" transform="translate(526.000000, 746.000000)">
                <circle id="Oval" stroke="#2B93AE" stroke-width="3" cx="28.3421053" cy="24.2969231" r="2.4"></circle>
                <path d="M35.6842105,25.3590784 L35.6842105,23.2348261 C35.6842105,22.9090992 35.4185532,22.6449601 35.0907508,22.6449601 L34.1240095,22.6449601 C33.9981935,22.2076638 33.8245509,21.7904885 33.607483,21.4001411 L34.2893778,20.7224427 C34.5212337,20.4920718 34.5212337,20.1186378 34.2893778,19.888267 L32.7781182,18.3862492 C32.5462623,18.1558783 32.170516,18.1558783 31.9387774,18.3862492 L31.2623401,19.0584654 C30.8681674,18.8393507 30.4467071,18.6634523 30.0042971,18.5360194 L30.0042971,17.589866 C30.0042971,17.2641391 29.7386398,17 29.4108374,17 L27.2734318,17 C26.9456294,17 26.6799721,17.2641391 26.6799721,17.589866 L26.6799721,18.5244133 C26.232398,18.6499217 25.805715,18.8244786 25.4067889,19.0434767 L24.7454918,18.3862492 C24.5136359,18.1558783 24.1378896,18.1558783 23.906151,18.3862492 L22.3947741,19.888267 C22.1630355,20.1186378 22.1630355,20.4920718 22.3947741,20.7224427 L23.0506136,21.3742463 C22.8267386,21.7720588 22.6478145,22.1978074 22.519123,22.6449601 L21.5935184,22.6449601 C21.265716,22.6449601 21,22.9090992 21,23.2348261 L21,25.3590784 C21,25.6848053 21.265716,25.948886 21.5935184,25.948886 L22.519123,25.948886 C22.6478145,26.3960387 22.8267386,26.8218457 23.0506136,27.2196582 L22.3947741,27.8714618 C22.1630355,28.1017743 22.1630355,28.4752667 22.3947741,28.7055792 L23.906151,30.2076553 C24.1378896,30.4379678 24.5136359,30.4379678 24.7454918,30.2076553 L25.4067889,29.5503694 C25.805715,29.7694258 26.232398,29.9439828 26.6799721,30.0694328 L26.6799721,31.0040385 C26.6799721,31.3297654 26.9456294,31.5938462 27.2734318,31.5938462 L29.4108374,31.5938462 C29.7386398,31.5938462 30.0042971,31.3297654 30.0042971,31.0040385 L30.0042971,30.0578268 C30.4467071,29.9304521 30.8681674,29.7545538 31.2623401,29.5354391 L31.9387774,30.2076553 C32.170516,30.4379678 32.5462623,30.4379678 32.7781182,30.2076553 L34.2893778,28.7055792 C34.5212337,28.4752667 34.5212337,28.1017743 34.2893778,27.8714618 L33.607483,27.1937633 C33.8245509,26.803416 33.9981935,26.3862407 34.1239508,25.948886 L35.0907508,25.948886 C35.4185532,25.948886 35.6842105,25.6848053 35.6842105,25.3590784 Z" id="Stroke-1" stroke="#2B93AE" stroke-width="3" stroke-linecap="round" stroke-linejoin="round"></path>
                <path d="M11.7567568,18.0675676 L11.7567568,19 C11.7567568,20.0294054 12.5952748,20.8648649 13.6057027,20.8648649 L15.4345315,20.8648649 C16.444045,20.8648649 17.2432432,20.0294054 17.2432432,19 L17.2432432,18.4787703 C17.2432432,17.6768784 16.7494595,16.9635676 16.0032973,16.7099459 L13.0122477,15.6954595 C12.2651712,15.4418378 11.7567568,14.728527 11.7567568,13.9266351 L11.7567568,13.4054054 C11.7567568,12.376 12.5952748,11.5405405 13.6057027,11.5405405 L15.4345315,11.5405405 C16.444045,11.5405405 17.2432432,12.376 17.2432432,13.4054054 L17.2432432,14.3378378" id="Stroke-1" stroke="#2B93AE" stroke-width="3"></path>
                <line x1="14.5" y1="11.1351351" x2="14.5" y2="8.2972973" id="Stroke-3" stroke="#2B93AE" stroke-width="3"></line>
                <line x1="14.5" y1="20.8648649" x2="14.5" y2="23.7027027" id="Stroke-5" stroke="#2B93AE" stroke-width="3"></line>
                <path d="M19.9371598,29.918125 C18.2617454,30.6165625 16.4312168,31 14.5136065,31 C6.49846731,31 -5.32907052e-15,24.2846875 -5.32907052e-15,16 C-5.32907052e-15,7.71625 6.49846731,1 14.5136065,1 C22.22396,1 28.5310291,7.2146875 29,15.060625" id="Stroke-7" stroke="#2B93AE" stroke-width="3"></path>
                <g id="Group-7" transform="translate(21.000000, 16.000000)"></g>
                <g id="Group-9"></g>
            </g>
        </g>
    </g>
</svg>