<?xml version="1.0" encoding="UTF-8"?>
<svg width="47px" height="41px" viewBox="0 0 47 41" version="1.1" xmlns="http://www.w3.org/2000/svg" xmlns:xlink="http://www.w3.org/1999/xlink">
    <title>Group 35</title>
    <g id="切圖" stroke="none" stroke-width="1" fill="none" fill-rule="evenodd">
        <g id="Artboard-Copy-4" transform="translate(-730.000000, -742.000000)" stroke="#2B93AE" stroke-width="3">
            <g id="Group-35" transform="translate(732.000000, 744.487940)">
                <polygon id="Rectangle" transform="translate(23.548457, 13.363711) rotate(-45.000000) translate(-23.548457, -13.363711) " points="16.2497872 7.56539673 30.7614388 7.67363354 30.8471263 19.1620243 16.3354747 19.0537875"></polygon>
                <path d="M16.5915306,12.4723063 L17.3904874,12.4782366 C18.3966542,12.4857049 19.2104956,13.2994895 19.2180343,14.3056558 L19.3019926,25.5114024 C19.3093875,26.4983906 18.5152703,27.3044974 17.5282822,27.3118923 C17.5193975,27.3119589 17.5105124,27.3119592 17.5016276,27.3118933 L16.67284,27.3057415 C16.1263859,27.3016855 15.6843847,26.8597151 15.6802904,26.3132613 L15.5841363,13.479771 C15.5799985,12.9275018 16.0243468,12.4764447 16.576616,12.4723068 C16.5815875,12.4722696 16.5865591,12.4722694 16.5915306,12.4723063 Z" id="Rectangle" transform="translate(17.446058, 19.895065) rotate(-45.000000) translate(-17.446058, -19.895065) "></path>
                <path d="M29.8563059,0.0135296005 L30.6850966,0.0197112298 C31.2315496,0.0237870123 31.6735346,0.465771933 31.6776104,1.01222501 L31.7664188,12.9190575 C31.770538,13.4713269 31.3261744,13.9223689 30.773905,13.9264881 C30.7689328,13.9265252 30.7639604,13.9265252 30.7589882,13.9264881 L29.9600329,13.920529 C28.9538651,13.9130244 28.1400514,13.0992107 28.1325468,12.093043 L28.0558791,1.81395644 C28.0485175,0.826969708 28.8426607,0.0208911534 29.8296474,0.0135296005 C29.8385335,0.0134633229 29.8474199,0.0134633229 29.8563059,0.0135296005 Z" id="Rectangle" transform="translate(29.908169, 6.967029) rotate(-45.000000) translate(-29.908169, -6.967029) "></path>
                <path d="M32.0633398,14.4656352 L36.2959049,14.4869687 L36.4709823,30.3494547 C36.4836761,31.4995486 35.5616312,32.4421743 34.4115373,32.4548681 C34.4003775,32.4549913 34.3892168,32.4550248 34.3780565,32.4549685 C33.2038026,32.4490499 32.2513771,31.5023186 32.2384173,30.3281213 L32.0633398,14.4656352 L32.0633398,14.4656352 Z" id="Rectangle" transform="translate(34.278839, 23.465635) rotate(-45.000000) translate(-34.278839, -23.465635) "></path>
                <path d="M2.31542326,28.4155614 L18.3122985,28.3581377 C18.7283153,28.3566443 19.1018006,28.6128703 19.2501491,29.001541 L19.9107859,30.7323992 C20.1077252,31.2483772 19.8490932,31.8263109 19.3331152,32.0232503 C19.2192509,32.0667102 19.0984013,32.0889894 18.976525,32.0889894 L1.84580129,32.0889894 C1.29351654,32.0889894 0.845801294,31.6412741 0.845801294,31.0889894 C0.845801294,30.9969826 0.858498885,30.905416 0.883534716,30.8168809 L1.35674634,29.1434464 C1.47814933,28.7141249 1.86926958,28.4171629 2.31542326,28.4155614 Z" id="Rectangle"></path>
                <path d="M3.73333333,32.0889894 L17.7428571,32.0889894 C19.8047202,32.0889894 21.4761905,33.7604597 21.4761905,35.8223227 L21.4761905,35.8223227 L21.4761905,35.8223227 L1.75859327e-13,35.8223227 C1.75606822e-13,33.7604597 1.67147027,32.0889894 3.73333333,32.0889894 Z" id="Rectangle"></path>
            </g>
        </g>
    </g>
</svg>