<?xml version="1.0" encoding="UTF-8"?>
<svg width="40px" height="34px" viewBox="0 0 40 34" version="1.1" xmlns="http://www.w3.org/2000/svg" xmlns:xlink="http://www.w3.org/1999/xlink">
    <title>Group 32</title>
    <g id="切圖" stroke="none" stroke-width="1" fill="none" fill-rule="evenodd" stroke-linecap="round" stroke-linejoin="round">
        <g id="Artboard-Copy-4" transform="translate(-954.000000, -771.000000)" stroke="#2B93AE" stroke-width="3">
            <g id="Group-32" transform="translate(956.000000, 773.000000)">
                <path d="M26,27.5743695 L26,28.7141841 C26,29.4243123 25.2940166,30 24.4229573,30 L1.57704266,30 C0.706111692,30 0,29.4243123 0,28.7141841 L0,4.64892029 C0,4.30790182 0.166166571,3.98085051 0.46186608,3.73969464 L4.58651815,0.37664258 C4.88221766,0.135539017 5.28339124,0 5.70163057,0 L25.7951468,0 C25.9082555,0 26,0.0748577128 26,0.167135145 L26,4.89828907" id="Stroke-1"></path>
                <path d="M1,5 L4.47047112,5 C4.7629066,5 5,4.47839188 5,3.83503055 L5,1" id="Stroke-3"></path>
                <line x1="16" y1="16" x2="20" y2="16" id="Stroke-5"></line>
                <line x1="16" y1="9" x2="20" y2="9" id="Stroke-7"></line>
                <path d="M28.846036,22.3308783 L33.1424752,7.30700028 C33.264053,6.8817697 33.0229238,6.43708281 32.6038265,6.31367568 L29.0596373,5.27020595 C28.64054,5.14679882 28.202267,5.39150699 28.0806892,5.81668743 L23.8044141,20.7697104 C23.5258232,21.7438795 23.583795,22.7853936 23.9687418,23.7215528 L25.0419867,26.3317064 L27.2557891,24.6575114 C28.0214819,24.0784356 28.5798994,23.2615215 28.846036,22.3308783 Z" id="Stroke-9" transform="translate(28.402373, 15.784969) rotate(12.000000) translate(-28.402373, -15.784969) "></path>
                <line x1="23.7101968" y1="20.1066164" x2="27.5729187" y2="21.2530009" id="Stroke-11" transform="translate(25.527948, 20.565170) rotate(12.000000) translate(-25.527948, -20.565170) "></line>
                <polyline id="Stroke-13" points="6 10.3414634 7.45631068 12 11 8"></polyline>
                <polyline id="Stroke-15" points="6 16.3414634 7.45631068 18 11 14"></polyline>
                <polyline id="Stroke-17" points="6 24.3414634 7.45631068 26 11 22"></polyline>
            </g>
        </g>
    </g>
</svg>