<?xml version="1.0" encoding="UTF-8"?>
<svg width="430px" height="80px" viewBox="0 0 430 80" version="1.1" xmlns="http://www.w3.org/2000/svg" xmlns:xlink="http://www.w3.org/1999/xlink">
    <title>Group 13</title>
    <g id="視覺稿" stroke="none" stroke-width="1" fill="none" fill-rule="evenodd" opacity="0.300757068">
        <g id="首頁-關於玉山(單色板)" transform="translate(3.000000, -986.000000)" stroke="#5DE9CA" stroke-width="3">
            <g id="Group-13" transform="translate(-2.000000, 987.000000)">
                <path d="M2.8907,73.9043 C0.8907,72.7043 -0.0093,70.5043 0.7907,68.6033 C1.5907,66.7043 3.7907,66.0043 5.5907,66.8033 C7.5907,67.7043 10.3907,69.7043 14.3917,69.7043 C20.5917,69.7043 22.9927,65.4033 22.9927,56.4033 L22.9927,5.4003 C22.9927,2.2003 24.6917,0.5003 27.8917,0.5003 C31.0927,0.5003 32.7927,2.2003 32.7927,5.4003 L32.7927,56.5033 C32.7927,70.9043 27.2927,76.9043 14.6917,76.9043 C10.1917,76.9043 5.6907,75.6043 2.8907,73.9043 Z" id="Stroke-1"></path>
                <path d="M110.2935,38.2022 C110.2935,18.7012 102.2935,7.8002 87.9925,7.8002 C73.7915,7.8002 65.8905,18.9002 65.8905,38.2022 C65.8905,58.4032 73.5915,69.5042 87.9925,69.5042 C102.7935,69.5042 110.2935,58.9032 110.2935,38.2022 Z M55.6895,37.8022 C55.6895,16.0012 67.4905,0.5002 88.1925,0.5002 C109.4935,0.5002 120.4945,16.2012 120.4945,37.8022 C120.4945,62.5042 108.5935,76.8052 87.6915,76.8052 C67.1905,76.8052 55.6895,62.7032 55.6895,37.8022 Z" id="Stroke-3"></path>
                <path d="M143.9898,72.0039 L143.9898,5.3999 C143.9898,2.1999 145.6898,0.4999 148.8898,0.4999 C152.0908,0.4999 153.7898,2.1999 153.7898,5.3999 L153.7898,72.0039 C153.7898,75.2039 152.0908,76.9039 148.8898,76.9039 C145.6898,76.9039 143.9898,75.2039 143.9898,72.0039 Z" id="Stroke-5"></path>
                <path d="M221.692,71.4043 C214.891,59.7033 200.19,30.9013 189.99,12.7003 L189.29,12.8003 C189.589,16.2013 189.79,19.7013 189.79,23.9013 L189.79,72.3033 C189.79,75.3043 188.29,76.9043 185.689,76.9043 C182.79,76.9043 181.089,75.2043 181.089,72.3033 L181.089,6.9003 C181.089,3.2003 183.79,0.5993 187.49,0.5993 C190.889,0.5993 193.589,2.3993 195.99,6.8003 C203.59,20.8003 216.691,46.0033 227.792,65.0043 L228.492,64.9033 C228.192,62.2033 227.792,57.2033 227.792,53.5033 L227.792,5.2003 C227.792,2.2003 229.192,0.5993 231.892,0.5993 C234.793,0.5993 236.493,2.3003 236.493,5.2003 L236.493,70.4043 C236.493,74.6043 234.192,76.9043 229.992,76.9043 C226.692,76.9043 223.892,75.2043 221.692,71.4043 Z" id="Stroke-7"></path>
                <path d="M331.4879,76.9043 C312.8859,76.9043 303.8859,67.7043 303.8859,49.1023 L303.8859,5.4003 C303.8859,2.2003 305.5869,0.5003 308.7869,0.5003 C311.9869,0.5003 313.6869,2.2003 313.6869,5.4003 L313.6869,48.5033 C313.6869,60.5033 317.2869,69.9043 331.4879,69.9043 C346.0889,69.9043 349.5889,60.5033 349.5889,48.5033 L349.5889,5.3003 C349.5889,2.3003 351.2889,0.5003 354.2899,0.5003 C357.2899,0.5003 358.8889,2.2003 358.8889,5.3003 L358.8889,49.1023 C358.8889,67.7043 349.9889,76.9043 331.4879,76.9043 Z" id="Stroke-9"></path>
                <path d="M385.985,63.6035 C390.286,66.8035 394.986,69.6035 402.886,69.6035 C411.787,69.6035 417.687,65.3035 417.788,58.3035 C417.887,52.1025 413.587,48.0025 401.686,41.5015 C387.885,33.9015 381.185,28.3015 381.585,18.5005 C381.985,7.4005 390.685,0.4995 404.487,0.4995 C412.587,0.4995 419.588,3.4995 423.187,6.2995 C424.988,7.7005 425.288,9.8005 423.988,11.4995 C422.788,13.1005 420.687,13.3005 418.387,11.9005 C414.887,9.8005 410.386,7.4995 404.087,7.4995 C396.586,7.4995 391.486,11.4995 391.286,17.5005 C391.086,23.7015 395.086,27.6015 406.886,33.9015 C422.488,42.3025 427.388,47.8025 427.388,57.0025 C427.388,69.5035 418.588,76.9045 402.886,76.9045 C394.385,76.9045 386.185,74.4045 381.785,70.0035 C379.885,68.1035 379.785,65.9035 380.985,64.1035 C382.085,62.5035 384.086,62.2035 385.985,63.6035 Z" id="Stroke-11"></path>
            </g>
        </g>
    </g>
</svg>