<?xml version="1.0" encoding="UTF-8"?>
<svg width="46px" height="43px" viewBox="0 0 46 43" version="1.1" xmlns="http://www.w3.org/2000/svg" xmlns:xlink="http://www.w3.org/1999/xlink">
    <title>Group 61</title>
    <g id="視覺稿" stroke="none" stroke-width="1" fill="none" fill-rule="evenodd">
        <g id="首頁-薪資福利(單色板)" transform="translate(-482.000000, -1353.000000)" fill="#FFFFFF">
            <g id="Group-61" transform="translate(482.000000, 1353.000000)">
                <path d="M30.3266035,23.4705632 C30.2165239,20.0056711 27.3615748,17.1667158 23.8228727,17.0072841 C19.9038211,16.8307035 16.6698916,19.8875041 16.6698916,23.6835853 C16.6698916,26.3071069 18.2145653,28.5771994 20.4627076,29.6712489 C16.2544918,30.7358237 12.9772972,34.2020555 12.0361443,40.848614 C11.7256213,43.0407323 14.4086054,42.5 16.6698916,42.5 L31.4688758,42.5 C33.7304358,42.5 35.2741596,43.0407323 34.9639105,40.848614 C34.0227576,34.2020555 30.745563,30.7358237 26.5370733,29.6712489 C28.8460059,28.5474567 30.4128598,26.1835809 30.3266035,23.4705632 Z" id="Fill-24"></path>
                <path d="M39.7675967,21.5004833 C37.8698236,21.5004833 36.3258587,20.0039022 36.3258587,18.1643712 C36.3258587,16.3248401 37.8698236,14.828259 39.7675967,14.828259 C41.6656443,14.828259 43.2093348,16.3248401 43.2093348,18.1643712 C43.2093348,20.0039022 41.6656443,21.5004833 39.7675967,21.5004833 Z M23,9.37697881 C21.1022269,9.37697881 19.5582619,7.88039767 19.5582619,6.04086664 C19.5582619,4.20133562 21.1022269,2.70502053 23,2.70502053 C24.8977731,2.70502053 26.4414636,4.20133562 26.4414636,6.04086664 C26.4414636,7.88039767 24.8977731,9.37697881 23,9.37697881 Z M2.7906652,18.1643712 C2.7906652,16.3248401 4.33435568,14.828259 6.23212879,14.828259 C8.1299019,14.828259 9.67386686,16.3248401 9.67386686,18.1643712 C9.67386686,20.0039022 8.1299019,21.5004833 6.23212879,21.5004833 C4.33435568,21.5004833 2.7906652,20.0039022 2.7906652,18.1643712 Z M39.7675967,12.1232385 C38.2313173,12.1232385 36.8243192,12.6659986 35.7365444,13.5623509 L28.7015538,8.47610348 C29.0416378,7.73034047 29.2321288,6.90715432 29.2321288,6.04086664 C29.2321288,2.70980959 26.4362484,0 23,0 C19.5634771,0 16.7675967,2.70980959 16.7675967,6.04086664 C16.7675967,6.90715432 16.9580877,7.73034047 17.2984462,8.47610348 L10.2631811,13.5623509 C9.17568084,12.6659986 7.76840824,12.1232385 6.23212879,12.1232385 C2.79588037,12.1232385 0,14.8335802 0,18.1643712 C0,21.4954282 2.79588037,24.2055039 6.23212879,24.2055039 C7.03993126,24.2055039 7.81122753,24.0543824 8.51994176,23.7819382 L12.9256629,30 C13.5986944,29.2792465 14.3043893,28.6846049 15.0109077,28.196919 C14.9302098,28.0814495 14.8574719,27.9609248 14.7822636,27.8419965 L10.8190085,22.249173 C11.8398095,21.1726988 12.4645321,19.7381094 12.4645321,18.1643712 C12.4645321,17.2980835 12.2740411,16.4748973 11.9339571,15.7294004 L18.9689477,10.6428869 C20.056448,11.5392392 21.4637206,12.0819993 23,12.0819993 C24.536005,12.0819993 25.9432776,11.5392392 27.0310523,10.6428869 L34.0660429,15.7291343 C33.7256844,16.4748973 33.5351935,17.2980835 33.5351935,18.1643712 C33.5351935,19.7381094 34.159916,21.1729649 35.180717,22.249173 L31.049753,28.079055 C31.0250495,28.115505 31.0017185,28.1522211 30.9767406,28.1884052 C31.6873762,28.6779535 32.3971883,29.2749896 33.0740626,30 L37.4800582,23.7819382 C38.1887725,24.0543824 38.9600687,24.2055039 39.7675967,24.2055039 C43.2041196,24.2055039 46,21.4954282 46,18.1643712 C46,14.8335802 43.2041196,12.1232385 39.7675967,12.1232385 L39.7675967,12.1232385 Z" id="Fill-25" transform="translate(23.000000, 15.000000) rotate(-360.000000) translate(-23.000000, -15.000000) "></path>
            </g>
        </g>
    </g>
</svg>